STARTFONT 2.1
COMMENT
COMMENT Converted from OpenType font "notosans_regular.ttf" by "otf2bdf 3.0".
COMMENT
FONT -FreeType-Noto Sans-Medium-R-Normal--17-120-100-100-P-84-ISO10646-1
SIZE 12 100 100
FONTBOUNDINGBOX 57 29 -10 -7
STARTPROPERTIES 19
FOUNDRY "FreeType"
FAMILY_NAME "Noto Sans"
WEIGHT_NAME "Medium"
SLANT "R"
SETWIDTH_NAME "Normal"
ADD_STYLE_NAME ""
PIXEL_SIZE 17
POINT_SIZE 120
RESOLUTION_X 100
RESOLUTION_Y 100
SPACING "P"
AVERAGE_WIDTH 84
CHARSET_REGISTRY "ISO10646"
CHARSET_ENCODING "1"
FONT_ASCENT 18
FONT_DESCENT 4
COPYRIGHT "Copyright 2015-2021 Google LLC. All Rights Reserved."
_OTF_FONTFILE "notosans_regular.ttf"
_OTF_PSNAME "NotoSans-Regular"
ENDPROPERTIES
CHARS 3053
STARTCHAR 0000
ENCODING 0
SWIDTH 0 0
DWIDTH 0 0
BBX 0 0 0 0
BITMAP
ENDCHAR
STARTCHAR 000D
ENCODING 13
SWIDTH 240 0
DWIDTH 4 0
BBX 0 0 0 0
BITMAP
ENDCHAR
STARTCHAR 0020
ENCODING 32
SWIDTH 240 0
DWIDTH 4 0
BBX 0 0 0 0
BITMAP
ENDCHAR
STARTCHAR 0021
ENCODING 33
SWIDTH 240 0
DWIDTH 4 0
BBX 2 12 1 0
BITMAP
C0
C0
C0
40
40
40
40
40
40
00
C0
C0
ENDCHAR
STARTCHAR 0022
ENCODING 34
SWIDTH 360 0
DWIDTH 6 0
BBX 5 4 1 8
BITMAP
D8
D8
98
90
ENDCHAR
STARTCHAR 0023
ENCODING 35
SWIDTH 600 0
DWIDTH 10 0
BBX 10 12 0 0
BITMAP
0880
0980
0900
1900
7FC0
1100
1300
FFC0
FFC0
3200
2200
2200
ENDCHAR
STARTCHAR 0024
ENCODING 36
SWIDTH 540 0
DWIDTH 9 0
BBX 8 14 1 -1
BITMAP
10
10
7E
D2
90
D0
78
1E
12
13
92
FC
10
10
ENDCHAR
STARTCHAR 0025
ENCODING 37
SWIDTH 780 0
DWIDTH 13 0
BBX 12 12 1 0
BITMAP
70C0
9080
9980
8900
9A00
9AE0
F590
0D10
0910
1910
11B0
30E0
ENDCHAR
STARTCHAR 0026
ENCODING 38
SWIDTH 720 0
DWIDTH 12 0
BBX 11 12 1 0
BITMAP
3C00
6600
4600
6600
2C00
3800
6C40
C6C0
83C0
C180
C3C0
7C60
ENDCHAR
STARTCHAR 0027
ENCODING 39
SWIDTH 180 0
DWIDTH 3 0
BBX 2 4 1 8
BITMAP
C0
C0
80
80
ENDCHAR
STARTCHAR 0028
ENCODING 40
SWIDTH 300 0
DWIDTH 5 0
BBX 3 15 1 -3
BITMAP
20
60
40
C0
80
80
80
80
80
80
C0
C0
40
60
20
ENDCHAR
STARTCHAR 0029
ENCODING 41
SWIDTH 300 0
DWIDTH 5 0
BBX 3 15 1 -3
BITMAP
80
C0
40
60
20
20
20
20
20
20
60
60
40
C0
80
ENDCHAR
STARTCHAR 002A
ENCODING 42
SWIDTH 540 0
DWIDTH 9 0
BBX 7 8 1 5
BITMAP
10
10
10
FE
10
28
6C
04
ENDCHAR
STARTCHAR 002B
ENCODING 43
SWIDTH 540 0
DWIDTH 9 0
BBX 8 8 1 2
BITMAP
10
10
10
10
FF
10
10
10
ENDCHAR
STARTCHAR 002C
ENCODING 44
SWIDTH 240 0
DWIDTH 4 0
BBX 2 4 1 -2
BITMAP
C0
C0
80
80
ENDCHAR
STARTCHAR 002D
ENCODING 45
SWIDTH 300 0
DWIDTH 5 0
BBX 4 1 1 4
BITMAP
F0
ENDCHAR
STARTCHAR 002E
ENCODING 46
SWIDTH 240 0
DWIDTH 4 0
BBX 2 2 1 0
BITMAP
C0
C0
ENDCHAR
STARTCHAR 002F
ENCODING 47
SWIDTH 360 0
DWIDTH 6 0
BBX 6 12 0 0
BITMAP
0C
0C
08
18
10
10
30
20
60
60
40
C0
ENDCHAR
STARTCHAR 0030
ENCODING 48
SWIDTH 540 0
DWIDTH 9 0
BBX 8 12 1 0
BITMAP
3C
66
C2
82
83
83
83
83
83
C2
46
3C
ENDCHAR
STARTCHAR 0031
ENCODING 49
SWIDTH 540 0
DWIDTH 9 0
BBX 4 12 2 0
BITMAP
30
70
D0
30
30
30
30
30
30
30
30
30
ENDCHAR
STARTCHAR 0032
ENCODING 50
SWIDTH 540 0
DWIDTH 9 0
BBX 8 12 1 0
BITMAP
7C
C6
02
02
06
04
0C
18
30
60
C0
FF
ENDCHAR
STARTCHAR 0033
ENCODING 51
SWIDTH 540 0
DWIDTH 9 0
BBX 8 12 1 0
BITMAP
7C
C6
02
02
06
3C
1E
02
03
02
86
FC
ENDCHAR
STARTCHAR 0034
ENCODING 52
SWIDTH 540 0
DWIDTH 9 0
BBX 9 12 0 0
BITMAP
0200
0600
0E00
0A00
1200
3200
6200
4200
FF80
0200
0200
0200
ENDCHAR
STARTCHAR 0035
ENCODING 53
SWIDTH 540 0
DWIDTH 9 0
BBX 8 12 1 0
BITMAP
7E
40
40
40
C0
FC
06
03
03
02
86
FC
ENDCHAR
STARTCHAR 0036
ENCODING 54
SWIDTH 540 0
DWIDTH 9 0
BBX 8 12 1 0
BITMAP
1E
70
40
C0
C0
BE
C2
83
83
C3
66
3C
ENDCHAR
STARTCHAR 0037
ENCODING 55
SWIDTH 540 0
DWIDTH 9 0
BBX 8 12 1 0
BITMAP
FF
03
02
06
04
0C
08
18
10
30
30
60
ENDCHAR
STARTCHAR 0038
ENCODING 56
SWIDTH 540 0
DWIDTH 9 0
BBX 8 12 1 0
BITMAP
7C
C6
C2
C2
66
38
6C
C2
83
83
C2
7C
ENDCHAR
STARTCHAR 0039
ENCODING 57
SWIDTH 540 0
DWIDTH 9 0
BBX 8 12 1 0
BITMAP
7C
C6
C2
83
83
C3
7F
12
02
06
0C
78
ENDCHAR
STARTCHAR 003A
ENCODING 58
SWIDTH 240 0
DWIDTH 4 0
BBX 2 9 1 0
BITMAP
C0
C0
00
00
00
00
00
C0
C0
ENDCHAR
STARTCHAR 003B
ENCODING 59
SWIDTH 240 0
DWIDTH 4 0
BBX 2 11 1 -2
BITMAP
C0
C0
00
00
00
00
00
C0
C0
80
80
ENDCHAR
STARTCHAR 003C
ENCODING 60
SWIDTH 540 0
DWIDTH 9 0
BBX 8 8 1 2
BITMAP
03
0E
38
E0
C0
38
0E
03
ENDCHAR
STARTCHAR 003D
ENCODING 61
SWIDTH 540 0
DWIDTH 9 0
BBX 8 4 1 4
BITMAP
FF
00
00
FF
ENDCHAR
STARTCHAR 003E
ENCODING 62
SWIDTH 540 0
DWIDTH 9 0
BBX 8 8 1 2
BITMAP
80
60
18
06
07
1C
E0
80
ENDCHAR
STARTCHAR 003F
ENCODING 63
SWIDTH 420 0
DWIDTH 7 0
BBX 6 12 1 0
BITMAP
F8
8C
0C
0C
08
10
20
60
60
00
60
60
ENDCHAR
STARTCHAR 0040
ENCODING 64
SWIDTH 840 0
DWIDTH 14 0
BBX 13 13 1 -1
BITMAP
0F80
1860
2010
4398
CC88
8888
9888
9888
8998
CF70
4000
6000
3FC0
ENDCHAR
STARTCHAR 0041
ENCODING 65
SWIDTH 600 0
DWIDTH 10 0
BBX 10 12 0 0
BITMAP
0C00
0E00
0A00
1A00
1300
1100
3180
3F80
6080
40C0
4040
C040
ENDCHAR
STARTCHAR 0042
ENCODING 66
SWIDTH 600 0
DWIDTH 10 0
BBX 8 12 2 0
BITMAP
FC
8E
82
83
82
FC
8E
83
83
83
86
FC
ENDCHAR
STARTCHAR 0043
ENCODING 67
SWIDTH 600 0
DWIDTH 10 0
BBX 9 12 1 0
BITMAP
1F80
3180
6000
C000
C000
C000
C000
C000
C000
6000
7080
1F80
ENDCHAR
STARTCHAR 0044
ENCODING 68
SWIDTH 720 0
DWIDTH 12 0
BBX 9 12 2 0
BITMAP
FC00
8E00
8300
8180
8180
8080
8080
8180
8180
8300
8600
FC00
ENDCHAR
STARTCHAR 0045
ENCODING 69
SWIDTH 540 0
DWIDTH 9 0
BBX 6 12 2 0
BITMAP
FC
80
80
80
80
FC
80
80
80
80
80
FC
ENDCHAR
STARTCHAR 0046
ENCODING 70
SWIDTH 480 0
DWIDTH 8 0
BBX 6 12 2 0
BITMAP
FC
80
80
80
80
80
FC
80
80
80
80
80
ENDCHAR
STARTCHAR 0047
ENCODING 71
SWIDTH 720 0
DWIDTH 12 0
BBX 10 12 1 0
BITMAP
1F80
3080
6000
C000
C000
C000
C3C0
C0C0
C0C0
60C0
70C0
1FC0
ENDCHAR
STARTCHAR 0048
ENCODING 72
SWIDTH 720 0
DWIDTH 12 0
BBX 9 12 2 0
BITMAP
8180
8180
8180
8180
8180
FF80
8180
8180
8180
8180
8180
8180
ENDCHAR
STARTCHAR 0049
ENCODING 73
SWIDTH 300 0
DWIDTH 5 0
BBX 4 12 1 0
BITMAP
F0
60
60
60
60
60
60
60
60
60
60
F0
ENDCHAR
STARTCHAR 004A
ENCODING 74
SWIDTH 240 0
DWIDTH 4 0
BBX 4 15 -1 -3
BITMAP
10
10
10
10
10
10
10
10
10
10
10
10
30
30
E0
ENDCHAR
STARTCHAR 004B
ENCODING 75
SWIDTH 600 0
DWIDTH 10 0
BBX 8 12 2 0
BITMAP
83
86
8C
98
B0
B0
F0
98
8C
84
86
83
ENDCHAR
STARTCHAR 004C
ENCODING 76
SWIDTH 480 0
DWIDTH 8 0
BBX 6 12 2 0
BITMAP
80
80
80
80
80
80
80
80
80
80
80
FC
ENDCHAR
STARTCHAR 004D
ENCODING 77
SWIDTH 900 0
DWIDTH 15 0
BBX 12 12 2 0
BITMAP
C070
C070
E0F0
A0B0
A0B0
B1B0
9130
9B30
8A30
8A30
8E30
8430
ENDCHAR
STARTCHAR 004E
ENCODING 78
SWIDTH 720 0
DWIDTH 12 0
BBX 9 12 2 0
BITMAP
C080
C080
E080
B080
B080
9880
8880
8C80
8680
8280
8380
8180
ENDCHAR
STARTCHAR 004F
ENCODING 79
SWIDTH 780 0
DWIDTH 13 0
BBX 11 12 1 0
BITMAP
1F00
71C0
60C0
C060
C060
C060
C060
C060
C060
4040
71C0
1F00
ENDCHAR
STARTCHAR 0050
ENCODING 80
SWIDTH 600 0
DWIDTH 10 0
BBX 7 12 2 0
BITMAP
F8
8E
86
82
82
86
FC
80
80
80
80
80
ENDCHAR
STARTCHAR 0051
ENCODING 81
SWIDTH 780 0
DWIDTH 13 0
BBX 11 15 1 -3
BITMAP
1F00
71C0
60C0
C060
C060
C060
C060
C060
C060
4040
71C0
1F00
0300
0180
00C0
ENDCHAR
STARTCHAR 0052
ENCODING 82
SWIDTH 600 0
DWIDTH 10 0
BBX 8 12 2 0
BITMAP
F8
8E
86
82
82
86
F8
88
8C
86
86
83
ENDCHAR
STARTCHAR 0053
ENCODING 83
SWIDTH 540 0
DWIDTH 9 0
BBX 7 12 1 0
BITMAP
7E
C2
C0
C0
C0
70
1C
06
02
02
86
FC
ENDCHAR
STARTCHAR 0054
ENCODING 84
SWIDTH 540 0
DWIDTH 9 0
BBX 9 12 0 0
BITMAP
FF80
0800
0800
0800
0800
0800
0800
0800
0800
0800
0800
0800
ENDCHAR
STARTCHAR 0055
ENCODING 85
SWIDTH 720 0
DWIDTH 12 0
BBX 10 12 1 0
BITMAP
C0C0
C0C0
C0C0
C0C0
C0C0
C0C0
C0C0
C0C0
40C0
4080
6180
3F00
ENDCHAR
STARTCHAR 0056
ENCODING 86
SWIDTH 600 0
DWIDTH 10 0
BBX 10 12 0 0
BITMAP
C0C0
4080
4080
6180
2100
2100
3300
1200
1E00
1E00
0C00
0C00
ENDCHAR
STARTCHAR 0057
ENCODING 87
SWIDTH 900 0
DWIDTH 15 0
BBX 15 12 0 0
BITMAP
C182
4186
4386
6284
62C4
264C
244C
3468
3C28
1C38
1838
1830
ENDCHAR
STARTCHAR 0058
ENCODING 88
SWIDTH 540 0
DWIDTH 9 0
BBX 9 12 0 0
BITMAP
4080
6180
2300
1200
1E00
0C00
0C00
1600
3200
2300
6180
C080
ENDCHAR
STARTCHAR 0059
ENCODING 89
SWIDTH 540 0
DWIDTH 9 0
BBX 9 12 0 0
BITMAP
C080
4180
6100
2300
3600
1400
1C00
0800
0800
0800
0800
0800
ENDCHAR
STARTCHAR 005A
ENCODING 90
SWIDTH 540 0
DWIDTH 9 0
BBX 8 12 1 0
BITMAP
FF
03
06
04
0C
18
10
30
60
40
C0
FF
ENDCHAR
STARTCHAR 005B
ENCODING 91
SWIDTH 300 0
DWIDTH 5 0
BBX 4 15 1 -3
BITMAP
F0
C0
C0
C0
C0
C0
C0
C0
C0
C0
C0
C0
C0
F0
F0
ENDCHAR
STARTCHAR 005C
ENCODING 92
SWIDTH 360 0
DWIDTH 6 0
BBX 6 12 0 0
BITMAP
C0
40
40
60
20
30
10
10
18
08
08
0C
ENDCHAR
STARTCHAR 005D
ENCODING 93
SWIDTH 300 0
DWIDTH 5 0
BBX 4 15 0 -3
BITMAP
F0
10
10
10
10
10
10
10
10
10
10
10
10
F0
F0
ENDCHAR
STARTCHAR 005E
ENCODING 94
SWIDTH 540 0
DWIDTH 9 0
BBX 8 8 1 4
BITMAP
10
38
28
24
44
42
82
81
ENDCHAR
STARTCHAR 005F
ENCODING 95
SWIDTH 420 0
DWIDTH 7 0
BBX 7 2 0 -3
BITMAP
FE
FE
ENDCHAR
STARTCHAR 0060
ENCODING 96
SWIDTH 240 0
DWIDTH 4 0
BBX 3 3 1 10
BITMAP
C0
40
20
ENDCHAR
STARTCHAR 0061
ENCODING 97
SWIDTH 540 0
DWIDTH 9 0
BBX 7 9 1 0
BITMAP
7C
46
02
02
7E
C2
86
C6
7A
ENDCHAR
STARTCHAR 0062
ENCODING 98
SWIDTH 600 0
DWIDTH 10 0
BBX 8 13 1 0
BITMAP
C0
C0
C0
C0
DE
E3
C3
C1
C1
C1
C1
E3
FE
ENDCHAR
STARTCHAR 0063
ENCODING 99
SWIDTH 480 0
DWIDTH 8 0
BBX 6 9 1 0
BITMAP
3C
60
C0
C0
80
80
C0
60
3C
ENDCHAR
STARTCHAR 0064
ENCODING 100
SWIDTH 600 0
DWIDTH 10 0
BBX 8 13 1 0
BITMAP
03
03
03
03
3F
67
C3
C3
83
83
C3
47
7D
ENDCHAR
STARTCHAR 0065
ENCODING 101
SWIDTH 540 0
DWIDTH 9 0
BBX 8 9 1 0
BITMAP
3C
46
C2
83
FF
80
C0
60
3E
ENDCHAR
STARTCHAR 0066
ENCODING 102
SWIDTH 300 0
DWIDTH 5 0
BBX 6 13 0 0
BITMAP
1C
34
20
20
FC
20
20
20
20
20
20
20
20
ENDCHAR
STARTCHAR 0067
ENCODING 103
SWIDTH 600 0
DWIDTH 10 0
BBX 8 13 1 -4
BITMAP
3D
67
C3
C3
83
83
C3
43
7F
03
03
46
7C
ENDCHAR
STARTCHAR 0068
ENCODING 104
SWIDTH 600 0
DWIDTH 10 0
BBX 8 13 1 0
BITMAP
C0
C0
C0
C0
DE
E3
C3
C3
C3
C3
C3
C3
C3
ENDCHAR
STARTCHAR 0069
ENCODING 105
SWIDTH 240 0
DWIDTH 4 0
BBX 2 12 1 0
BITMAP
C0
40
00
C0
C0
C0
C0
C0
C0
C0
C0
C0
ENDCHAR
STARTCHAR 006A
ENCODING 106
SWIDTH 240 0
DWIDTH 4 0
BBX 4 16 -1 -4
BITMAP
30
10
00
30
30
30
30
30
30
30
30
30
30
30
30
E0
ENDCHAR
STARTCHAR 006B
ENCODING 107
SWIDTH 480 0
DWIDTH 8 0
BBX 7 13 1 0
BITMAP
C0
C0
C0
C0
C6
CC
D8
D0
F0
D8
CC
C6
C2
ENDCHAR
STARTCHAR 006C
ENCODING 108
SWIDTH 240 0
DWIDTH 4 0
BBX 2 13 1 0
BITMAP
C0
C0
C0
C0
C0
C0
C0
C0
C0
C0
C0
C0
C0
ENDCHAR
STARTCHAR 006D
ENCODING 109
SWIDTH 900 0
DWIDTH 15 0
BBX 13 9 1 0
BITMAP
DEF0
E798
C308
C308
C308
C308
C308
C308
C308
ENDCHAR
STARTCHAR 006E
ENCODING 110
SWIDTH 600 0
DWIDTH 10 0
BBX 8 9 1 0
BITMAP
DE
E3
C3
C3
C3
C3
C3
C3
C3
ENDCHAR
STARTCHAR 006F
ENCODING 111
SWIDTH 600 0
DWIDTH 10 0
BBX 8 9 1 0
BITMAP
3C
66
C3
C1
81
C1
C3
62
3C
ENDCHAR
STARTCHAR 0070
ENCODING 112
SWIDTH 600 0
DWIDTH 10 0
BBX 8 13 1 -4
BITMAP
DE
E3
C3
C1
C1
C1
C3
E3
DE
C0
C0
C0
C0
ENDCHAR
STARTCHAR 0071
ENCODING 113
SWIDTH 600 0
DWIDTH 10 0
BBX 8 13 1 -4
BITMAP
3D
67
C3
C3
83
83
C3
47
7F
03
03
03
03
ENDCHAR
STARTCHAR 0072
ENCODING 114
SWIDTH 360 0
DWIDTH 6 0
BBX 6 9 1 0
BITMAP
DC
E0
C0
C0
C0
C0
C0
C0
C0
ENDCHAR
STARTCHAR 0073
ENCODING 115
SWIDTH 420 0
DWIDTH 7 0
BBX 6 9 1 0
BITMAP
7C
C4
80
E0
38
0C
04
0C
F8
ENDCHAR
STARTCHAR 0074
ENCODING 116
SWIDTH 360 0
DWIDTH 6 0
BBX 6 11 0 0
BITMAP
20
20
FC
20
20
20
20
20
20
20
3C
ENDCHAR
STARTCHAR 0075
ENCODING 117
SWIDTH 600 0
DWIDTH 10 0
BBX 8 9 1 0
BITMAP
C3
C3
C3
C3
C3
C3
C3
47
7D
ENDCHAR
STARTCHAR 0076
ENCODING 118
SWIDTH 480 0
DWIDTH 8 0
BBX 8 9 0 0
BITMAP
C1
43
43
62
26
34
34
1C
18
ENDCHAR
STARTCHAR 0077
ENCODING 119
SWIDTH 780 0
DWIDTH 13 0
BBX 13 9 0 0
BITMAP
C318
4718
4510
6510
6DB0
28A0
28A0
38E0
1060
ENDCHAR
STARTCHAR 0078
ENCODING 120
SWIDTH 480 0
DWIDTH 8 0
BBX 7 9 1 0
BITMAP
86
C4
6C
38
30
38
6C
C4
82
ENDCHAR
STARTCHAR 0079
ENCODING 121
SWIDTH 480 0
DWIDTH 8 0
BBX 8 13 0 -4
BITMAP
C1
43
63
62
26
34
14
1C
18
18
18
30
E0
ENDCHAR
STARTCHAR 007A
ENCODING 122
SWIDTH 420 0
DWIDTH 7 0
BBX 6 9 1 0
BITMAP
FC
0C
08
10
30
60
40
C0
FC
ENDCHAR
STARTCHAR 007B
ENCODING 123
SWIDTH 360 0
DWIDTH 6 0
BBX 6 15 0 -3
BITMAP
0C
18
10
30
30
30
30
E0
30
30
30
30
10
1C
04
ENDCHAR
STARTCHAR 007C
ENCODING 124
SWIDTH 540 0
DWIDTH 9 0
BBX 1 17 4 -4
BITMAP
80
80
80
80
80
80
80
80
80
80
80
80
80
80
80
80
80
ENDCHAR
STARTCHAR 007D
ENCODING 125
SWIDTH 360 0
DWIDTH 6 0
BBX 5 15 1 -3
BITMAP
C0
60
60
60
60
60
30
18
20
60
60
60
60
C0
80
ENDCHAR
STARTCHAR 007E
ENCODING 126
SWIDTH 540 0
DWIDTH 9 0
BBX 8 2 1 5
BITMAP
F1
9F
ENDCHAR
STARTCHAR 00A0
ENCODING 160
SWIDTH 240 0
DWIDTH 4 0
BBX 0 0 0 0
BITMAP
ENDCHAR
STARTCHAR 00A1
ENCODING 161
SWIDTH 240 0
DWIDTH 4 0
BBX 2 12 1 -3
BITMAP
C0
C0
00
40
40
40
40
40
C0
C0
C0
C0
ENDCHAR
STARTCHAR 00A2
ENCODING 162
SWIDTH 540 0
DWIDTH 9 0
BBX 6 12 2 0
BITMAP
10
38
7C
C0
80
80
80
80
C0
7C
10
10
ENDCHAR
STARTCHAR 00A3
ENCODING 163
SWIDTH 540 0
DWIDTH 9 0
BBX 8 12 1 0
BITMAP
3E
22
60
60
60
60
FC
60
60
60
C0
FF
ENDCHAR
STARTCHAR 00A4
ENCODING 164
SWIDTH 540 0
DWIDTH 9 0
BBX 7 7 1 3
BITMAP
FE
46
42
42
46
7E
82
ENDCHAR
STARTCHAR 00A5
ENCODING 165
SWIDTH 540 0
DWIDTH 9 0
BBX 9 12 0 0
BITMAP
C080
4180
2100
3200
1600
1C00
3F00
0800
0800
3F00
0800
0800
ENDCHAR
STARTCHAR 00A6
ENCODING 166
SWIDTH 540 0
DWIDTH 9 0
BBX 1 17 4 -4
BITMAP
80
80
80
80
80
80
80
00
00
00
00
80
80
80
80
80
80
ENDCHAR
STARTCHAR 00A7
ENCODING 167
SWIDTH 480 0
DWIDTH 8 0
BBX 6 13 1 0
BITMAP
38
C4
C0
E0
78
CC
84
C4
7C
0C
04
84
F8
ENDCHAR
STARTCHAR 00A8
ENCODING 168
SWIDTH 540 0
DWIDTH 9 0
BBX 5 1 2 11
BITMAP
C8
ENDCHAR
STARTCHAR 00A9
ENCODING 169
SWIDTH 780 0
DWIDTH 13 0
BBX 12 12 1 0
BITMAP
1F80
2040
4620
8D30
9810
9010
9010
9010
8910
4720
2040
1F80
ENDCHAR
STARTCHAR 00AA
ENCODING 170
SWIDTH 300 0
DWIDTH 5 0
BBX 4 6 1 6
BITMAP
F0
10
70
90
90
70
ENDCHAR
STARTCHAR 00AB
ENCODING 171
SWIDTH 480 0
DWIDTH 8 0
BBX 7 7 1 1
BITMAP
24
64
48
98
C8
6C
26
ENDCHAR
STARTCHAR 00AC
ENCODING 172
SWIDTH 540 0
DWIDTH 9 0
BBX 8 4 1 2
BITMAP
FF
03
03
03
ENDCHAR
STARTCHAR 00AD
ENCODING 173
SWIDTH 300 0
DWIDTH 5 0
BBX 4 1 1 4
BITMAP
F0
ENDCHAR
STARTCHAR 00AE
ENCODING 174
SWIDTH 780 0
DWIDTH 13 0
BBX 12 12 1 0
BITMAP
1F80
2040
4E20
8B30
8910
8910
8E10
8B10
8910
48A0
2040
1F80
ENDCHAR
STARTCHAR 00AF
ENCODING 175
SWIDTH 480 0
DWIDTH 8 0
BBX 8 1 0 13
BITMAP
FF
ENDCHAR
STARTCHAR 00B0
ENCODING 176
SWIDTH 420 0
DWIDTH 7 0
BBX 5 5 1 7
BITMAP
70
88
88
88
70
ENDCHAR
STARTCHAR 00B1
ENCODING 177
SWIDTH 540 0
DWIDTH 9 0
BBX 8 10 1 0
BITMAP
10
10
10
FF
FF
10
10
10
00
FF
ENDCHAR
STARTCHAR 00B2
ENCODING 178
SWIDTH 300 0
DWIDTH 5 0
BBX 5 7 0 7
BITMAP
78
08
08
10
20
40
F8
ENDCHAR
STARTCHAR 00B3
ENCODING 179
SWIDTH 300 0
DWIDTH 5 0
BBX 5 7 0 7
BITMAP
F8
08
08
70
08
08
F8
ENDCHAR
STARTCHAR 00B4
ENCODING 180
SWIDTH 240 0
DWIDTH 4 0
BBX 3 3 1 10
BITMAP
60
40
80
ENDCHAR
STARTCHAR 00B5
ENCODING 181
SWIDTH 600 0
DWIDTH 10 0
BBX 8 13 1 -4
BITMAP
C3
C3
C3
C3
C3
C3
C3
C3
FD
C0
C0
C0
C0
ENDCHAR
STARTCHAR 00B6
ENCODING 182
SWIDTH 600 0
DWIDTH 10 0
BBX 8 15 1 -2
BITMAP
3F
79
F9
F9
F9
F9
F9
79
39
09
09
09
09
09
09
ENDCHAR
STARTCHAR 00B7
ENCODING 183
SWIDTH 240 0
DWIDTH 4 0
BBX 2 2 1 5
BITMAP
C0
C0
ENDCHAR
STARTCHAR 00B8
ENCODING 184
SWIDTH 180 0
DWIDTH 3 0
BBX 4 4 0 -4
BITMAP
40
60
30
E0
ENDCHAR
STARTCHAR 00B9
ENCODING 185
SWIDTH 300 0
DWIDTH 5 0
BBX 3 7 1 7
BITMAP
60
A0
20
20
20
20
20
ENDCHAR
STARTCHAR 00BA
ENCODING 186
SWIDTH 360 0
DWIDTH 6 0
BBX 5 6 1 6
BITMAP
F0
98
88
88
90
60
ENDCHAR
STARTCHAR 00BB
ENCODING 187
SWIDTH 480 0
DWIDTH 8 0
BBX 7 7 1 1
BITMAP
90
C8
6C
36
64
C8
90
ENDCHAR
STARTCHAR 00BC
ENCODING 188
SWIDTH 720 0
DWIDTH 12 0
BBX 11 12 1 0
BITMAP
6080
A080
2100
2300
2200
2440
2CC0
0940
1340
13E0
2040
6040
ENDCHAR
STARTCHAR 00BD
ENCODING 189
SWIDTH 720 0
DWIDTH 12 0
BBX 11 12 1 0
BITMAP
6080
A100
2300
2200
2400
25E0
2820
1820
1040
2080
2100
43E0
ENDCHAR
STARTCHAR 00BE
ENCODING 190
SWIDTH 780 0
DWIDTH 13 0
BBX 13 12 0 0
BITMAP
7820
0840
0840
7080
0980
0930
FA50
0250
0490
0DF8
0810
1010
ENDCHAR
STARTCHAR 00BF
ENCODING 191
SWIDTH 420 0
DWIDTH 7 0
BBX 7 12 0 -3
BITMAP
18
18
00
08
08
18
30
60
C0
C0
42
7E
ENDCHAR
STARTCHAR 00C0
ENCODING 192
SWIDTH 600 0
DWIDTH 10 0
BBX 10 16 0 0
BITMAP
1800
0C00
0400
0000
0C00
0E00
0A00
1A00
1300
1100
3180
3F80
6080
40C0
4040
C040
ENDCHAR
STARTCHAR 00C1
ENCODING 193
SWIDTH 600 0
DWIDTH 10 0
BBX 10 16 0 0
BITMAP
0300
0600
0400
0000
0C00
0E00
0A00
1A00
1300
1100
3180
3F80
6080
40C0
4040
C040
ENDCHAR
STARTCHAR 00C2
ENCODING 194
SWIDTH 600 0
DWIDTH 10 0
BBX 10 16 0 0
BITMAP
0C00
0E00
1300
0000
0C00
0E00
0A00
1A00
1300
1100
3180
3F80
6080
40C0
4040
C040
ENDCHAR
STARTCHAR 00C3
ENCODING 195
SWIDTH 600 0
DWIDTH 10 0
BBX 10 15 0 0
BITMAP
1D00
2700
0000
0C00
0E00
0A00
1A00
1300
1100
3180
3F80
6080
40C0
4040
C040
ENDCHAR
STARTCHAR 00C4
ENCODING 196
SWIDTH 600 0
DWIDTH 10 0
BBX 10 15 0 0
BITMAP
1B00
0000
0000
0C00
0E00
0A00
1A00
1300
1100
3180
3F80
6080
40C0
4040
C040
ENDCHAR
STARTCHAR 00C5
ENCODING 197
SWIDTH 600 0
DWIDTH 10 0
BBX 10 15 0 0
BITMAP
0C00
0A00
1200
0C00
0E00
0A00
1A00
1300
1100
3180
3F80
6080
40C0
4040
C040
ENDCHAR
STARTCHAR 00C6
ENCODING 198
SWIDTH 840 0
DWIDTH 14 0
BBX 14 12 0 0
BITMAP
07FC
0580
0D80
0D80
0980
19F8
1180
3F80
2180
6180
4180
C1FC
ENDCHAR
STARTCHAR 00C7
ENCODING 199
SWIDTH 600 0
DWIDTH 10 0
BBX 9 16 1 -4
BITMAP
1F80
3180
6000
C000
C000
C000
C000
C000
C000
6000
7080
1F80
0400
0600
0200
0C00
ENDCHAR
STARTCHAR 00C8
ENCODING 200
SWIDTH 540 0
DWIDTH 9 0
BBX 6 16 2 0
BITMAP
60
20
10
00
FC
80
80
80
80
FC
80
80
80
80
80
FC
ENDCHAR
STARTCHAR 00C9
ENCODING 201
SWIDTH 540 0
DWIDTH 9 0
BBX 6 16 2 0
BITMAP
08
18
30
00
FC
80
80
80
80
FC
80
80
80
80
80
FC
ENDCHAR
STARTCHAR 00CA
ENCODING 202
SWIDTH 540 0
DWIDTH 9 0
BBX 6 16 2 0
BITMAP
30
78
CC
00
FC
80
80
80
80
FC
80
80
80
80
80
FC
ENDCHAR
STARTCHAR 00CB
ENCODING 203
SWIDTH 540 0
DWIDTH 9 0
BBX 6 15 2 0
BITMAP
48
40
00
FC
80
80
80
80
FC
80
80
80
80
80
FC
ENDCHAR
STARTCHAR 00CC
ENCODING 204
SWIDTH 300 0
DWIDTH 5 0
BBX 4 16 1 0
BITMAP
C0
40
20
00
F0
60
60
60
60
60
60
60
60
60
60
F0
ENDCHAR
STARTCHAR 00CD
ENCODING 205
SWIDTH 300 0
DWIDTH 5 0
BBX 4 16 1 0
BITMAP
30
20
40
00
F0
60
60
60
60
60
60
60
60
60
60
F0
ENDCHAR
STARTCHAR 00CE
ENCODING 206
SWIDTH 300 0
DWIDTH 5 0
BBX 5 16 0 0
BITMAP
30
70
C8
00
78
30
30
30
30
30
30
30
30
30
30
78
ENDCHAR
STARTCHAR 00CF
ENCODING 207
SWIDTH 300 0
DWIDTH 5 0
BBX 4 15 1 0
BITMAP
90
00
00
F0
60
60
60
60
60
60
60
60
60
60
F0
ENDCHAR
STARTCHAR 00D0
ENCODING 208
SWIDTH 720 0
DWIDTH 12 0
BBX 11 12 0 0
BITMAP
3F00
2380
20C0
2060
2060
FC20
FC20
2060
2060
20C0
2180
3F00
ENDCHAR
STARTCHAR 00D1
ENCODING 209
SWIDTH 720 0
DWIDTH 12 0
BBX 9 15 2 0
BITMAP
3A00
4E00
0000
C080
C080
E080
B080
B080
9880
8880
8C80
8680
8280
8380
8180
ENDCHAR
STARTCHAR 00D2
ENCODING 210
SWIDTH 780 0
DWIDTH 13 0
BBX 11 16 1 0
BITMAP
1800
0C00
0600
0000
1F00
71C0
60C0
C060
C060
C060
C060
C060
C060
4040
71C0
1F00
ENDCHAR
STARTCHAR 00D3
ENCODING 211
SWIDTH 780 0
DWIDTH 13 0
BBX 11 16 1 0
BITMAP
0300
0600
0400
0000
1F00
71C0
60C0
C060
C060
C060
C060
C060
C060
4040
71C0
1F00
ENDCHAR
STARTCHAR 00D4
ENCODING 212
SWIDTH 780 0
DWIDTH 13 0
BBX 11 16 1 0
BITMAP
0400
0A00
1100
0000
1F00
71C0
60C0
C060
C060
C060
C060
C060
C060
4040
71C0
1F00
ENDCHAR
STARTCHAR 00D5
ENCODING 213
SWIDTH 780 0
DWIDTH 13 0
BBX 11 15 1 0
BITMAP
1D00
0300
0000
1F00
71C0
60C0
C060
C060
C060
C060
C060
C060
4040
71C0
1F00
ENDCHAR
STARTCHAR 00D6
ENCODING 214
SWIDTH 780 0
DWIDTH 13 0
BBX 11 15 1 0
BITMAP
1B00
0000
0000
1F00
71C0
60C0
C060
C060
C060
C060
C060
C060
4040
71C0
1F00
ENDCHAR
STARTCHAR 00D7
ENCODING 215
SWIDTH 540 0
DWIDTH 9 0
BBX 7 7 1 3
BITMAP
C2
64
38
18
2C
46
02
ENDCHAR
STARTCHAR 00D8
ENCODING 216
SWIDTH 780 0
DWIDTH 13 0
BBX 11 12 1 -1
BITMAP
1F40
7180
61C0
C160
C260
C660
CC60
C860
D060
7040
71C0
5F00
ENDCHAR
STARTCHAR 00D9
ENCODING 217
SWIDTH 720 0
DWIDTH 12 0
BBX 10 16 1 0
BITMAP
1800
0800
0400
0000
C0C0
C0C0
C0C0
C0C0
C0C0
C0C0
C0C0
C0C0
40C0
4080
6180
3F00
ENDCHAR
STARTCHAR 00DA
ENCODING 218
SWIDTH 720 0
DWIDTH 12 0
BBX 10 16 1 0
BITMAP
0300
0600
0C00
0000
C0C0
C0C0
C0C0
C0C0
C0C0
C0C0
C0C0
C0C0
40C0
4080
6180
3F00
ENDCHAR
STARTCHAR 00DB
ENCODING 219
SWIDTH 720 0
DWIDTH 12 0
BBX 10 16 1 0
BITMAP
0C00
1E00
1300
0000
C0C0
C0C0
C0C0
C0C0
C0C0
C0C0
C0C0
C0C0
40C0
4080
6180
3F00
ENDCHAR
STARTCHAR 00DC
ENCODING 220
SWIDTH 720 0
DWIDTH 12 0
BBX 10 15 1 0
BITMAP
1200
1000
0000
C0C0
C0C0
C0C0
C0C0
C0C0
C0C0
C0C0
C0C0
40C0
4080
6180
3F00
ENDCHAR
STARTCHAR 00DD
ENCODING 221
SWIDTH 540 0
DWIDTH 9 0
BBX 9 16 0 0
BITMAP
0600
0400
0800
0000
C080
4180
6100
2300
3600
1400
1C00
0800
0800
0800
0800
0800
ENDCHAR
STARTCHAR 00DE
ENCODING 222
SWIDTH 600 0
DWIDTH 10 0
BBX 7 12 2 0
BITMAP
80
80
F8
9E
86
82
82
86
FC
80
80
80
ENDCHAR
STARTCHAR 00DF
ENCODING 223
SWIDTH 600 0
DWIDTH 10 0
BBX 9 13 1 0
BITMAP
3C00
7600
C300
C300
C600
CC00
C800
CE00
C300
C180
C180
D180
DF00
ENDCHAR
STARTCHAR 00E0
ENCODING 224
SWIDTH 540 0
DWIDTH 9 0
BBX 7 13 1 0
BITMAP
20
30
18
00
7C
46
02
02
7E
C2
86
C6
7A
ENDCHAR
STARTCHAR 00E1
ENCODING 225
SWIDTH 540 0
DWIDTH 9 0
BBX 7 13 1 0
BITMAP
0C
08
10
00
7C
46
02
02
7E
C2
86
C6
7A
ENDCHAR
STARTCHAR 00E2
ENCODING 226
SWIDTH 540 0
DWIDTH 9 0
BBX 7 13 1 0
BITMAP
18
38
44
00
7C
46
02
02
7E
C2
86
C6
7A
ENDCHAR
STARTCHAR 00E3
ENCODING 227
SWIDTH 540 0
DWIDTH 9 0
BBX 7 12 1 0
BITMAP
72
4C
00
7C
46
02
02
7E
C2
86
C6
7A
ENDCHAR
STARTCHAR 00E4
ENCODING 228
SWIDTH 540 0
DWIDTH 9 0
BBX 7 12 1 0
BITMAP
6C
00
00
7C
46
02
02
7E
C2
86
C6
7A
ENDCHAR
STARTCHAR 00E5
ENCODING 229
SWIDTH 540 0
DWIDTH 9 0
BBX 7 14 1 0
BITMAP
10
28
28
38
00
7C
46
02
02
7E
C2
86
C6
7A
ENDCHAR
STARTCHAR 00E6
ENCODING 230
SWIDTH 840 0
DWIDTH 14 0
BBX 13 9 1 0
BITMAP
7DE0
4730
0610
0618
7FF8
C600
8600
CF00
79F0
ENDCHAR
STARTCHAR 00E7
ENCODING 231
SWIDTH 480 0
DWIDTH 8 0
BBX 6 13 1 -4
BITMAP
3C
60
C0
C0
80
80
C0
60
3C
10
18
08
38
ENDCHAR
STARTCHAR 00E8
ENCODING 232
SWIDTH 540 0
DWIDTH 9 0
BBX 8 13 1 0
BITMAP
20
30
18
00
3C
46
C2
83
FF
80
C0
60
3E
ENDCHAR
STARTCHAR 00E9
ENCODING 233
SWIDTH 540 0
DWIDTH 9 0
BBX 8 13 1 0
BITMAP
0C
08
10
00
3C
46
C2
83
FF
80
C0
60
3E
ENDCHAR
STARTCHAR 00EA
ENCODING 234
SWIDTH 540 0
DWIDTH 9 0
BBX 8 13 1 0
BITMAP
18
38
44
00
3C
46
C2
83
FF
80
C0
60
3E
ENDCHAR
STARTCHAR 00EB
ENCODING 235
SWIDTH 540 0
DWIDTH 9 0
BBX 8 12 1 0
BITMAP
64
00
00
3C
46
C2
83
FF
80
C0
60
3E
ENDCHAR
STARTCHAR 00EC
ENCODING 236
SWIDTH 240 0
DWIDTH 4 0
BBX 3 13 0 0
BITMAP
C0
40
20
00
60
60
60
60
60
60
60
60
60
ENDCHAR
STARTCHAR 00ED
ENCODING 237
SWIDTH 240 0
DWIDTH 4 0
BBX 4 13 1 0
BITMAP
30
60
C0
00
C0
C0
C0
C0
C0
C0
C0
C0
C0
ENDCHAR
STARTCHAR 00EE
ENCODING 238
SWIDTH 240 0
DWIDTH 4 0
BBX 5 13 0 0
BITMAP
60
F0
98
00
60
60
60
60
60
60
60
60
60
ENDCHAR
STARTCHAR 00EF
ENCODING 239
SWIDTH 240 0
DWIDTH 4 0
BBX 4 12 0 0
BITMAP
90
00
00
60
60
60
60
60
60
60
60
60
ENDCHAR
STARTCHAR 00F0
ENCODING 240
SWIDTH 600 0
DWIDTH 10 0
BBX 8 13 1 0
BITMAP
22
3E
1C
26
02
3F
67
C3
81
81
C3
42
3C
ENDCHAR
STARTCHAR 00F1
ENCODING 241
SWIDTH 600 0
DWIDTH 10 0
BBX 8 12 1 0
BITMAP
3A
4C
00
DE
E3
C3
C3
C3
C3
C3
C3
C3
ENDCHAR
STARTCHAR 00F2
ENCODING 242
SWIDTH 600 0
DWIDTH 10 0
BBX 8 13 1 0
BITMAP
30
10
08
00
3C
66
C3
C1
81
C1
C3
62
3C
ENDCHAR
STARTCHAR 00F3
ENCODING 243
SWIDTH 600 0
DWIDTH 10 0
BBX 8 13 1 0
BITMAP
04
0C
18
00
3C
66
C3
C1
81
C1
C3
62
3C
ENDCHAR
STARTCHAR 00F4
ENCODING 244
SWIDTH 600 0
DWIDTH 10 0
BBX 8 13 1 0
BITMAP
18
3C
66
00
3C
66
C3
C1
81
C1
C3
62
3C
ENDCHAR
STARTCHAR 00F5
ENCODING 245
SWIDTH 600 0
DWIDTH 10 0
BBX 8 12 1 0
BITMAP
7A
4C
00
3C
66
C3
C1
81
C1
C3
62
3C
ENDCHAR
STARTCHAR 00F6
ENCODING 246
SWIDTH 600 0
DWIDTH 10 0
BBX 8 12 1 0
BITMAP
24
00
00
3C
66
C3
C1
81
C1
C3
62
3C
ENDCHAR
STARTCHAR 00F7
ENCODING 247
SWIDTH 540 0
DWIDTH 9 0
BBX 8 8 1 2
BITMAP
10
18
00
00
FF
00
18
18
ENDCHAR
STARTCHAR 00F8
ENCODING 248
SWIDTH 600 0
DWIDTH 10 0
BBX 8 9 1 -1
BITMAP
3F
66
C7
CD
99
D1
E3
62
7C
ENDCHAR
STARTCHAR 00F9
ENCODING 249
SWIDTH 600 0
DWIDTH 10 0
BBX 8 13 1 0
BITMAP
30
10
08
00
C3
C3
C3
C3
C3
C3
C3
47
7D
ENDCHAR
STARTCHAR 00FA
ENCODING 250
SWIDTH 600 0
DWIDTH 10 0
BBX 8 13 1 0
BITMAP
06
0C
18
00
C3
C3
C3
C3
C3
C3
C3
47
7D
ENDCHAR
STARTCHAR 00FB
ENCODING 251
SWIDTH 600 0
DWIDTH 10 0
BBX 8 13 1 0
BITMAP
18
3C
26
00
C3
C3
C3
C3
C3
C3
C3
47
7D
ENDCHAR
STARTCHAR 00FC
ENCODING 252
SWIDTH 600 0
DWIDTH 10 0
BBX 8 12 1 0
BITMAP
24
00
00
C3
C3
C3
C3
C3
C3
C3
47
7D
ENDCHAR
STARTCHAR 00FD
ENCODING 253
SWIDTH 480 0
DWIDTH 8 0
BBX 8 17 0 -4
BITMAP
06
0C
08
00
C1
43
63
62
26
34
14
1C
18
18
18
30
E0
ENDCHAR
STARTCHAR 00FE
ENCODING 254
SWIDTH 600 0
DWIDTH 10 0
BBX 8 17 1 -4
BITMAP
C0
C0
C0
C0
DE
E3
C1
C1
C1
C1
C1
E3
DE
C0
C0
C0
C0
ENDCHAR
STARTCHAR 00FF
ENCODING 255
SWIDTH 480 0
DWIDTH 8 0
BBX 8 16 0 -4
BITMAP
26
00
00
C1
43
63
62
26
34
14
1C
18
18
18
30
E0
ENDCHAR
STARTCHAR 0100
ENCODING 256
SWIDTH 600 0
DWIDTH 10 0
BBX 10 14 0 0
BITMAP
1F00
0000
0C00
0E00
0A00
1A00
1300
1100
3180
3F80
6080
40C0
4040
C040
ENDCHAR
STARTCHAR 0101
ENCODING 257
SWIDTH 540 0
DWIDTH 9 0
BBX 7 11 1 0
BITMAP
7C
00
7C
46
02
02
7E
C2
86
C6
7A
ENDCHAR
STARTCHAR 0102
ENCODING 258
SWIDTH 600 0
DWIDTH 10 0
BBX 10 15 0 0
BITMAP
1300
0E00
0000
0C00
0E00
0A00
1A00
1300
1100
3180
3F80
6080
40C0
4040
C040
ENDCHAR
STARTCHAR 0103
ENCODING 259
SWIDTH 540 0
DWIDTH 9 0
BBX 7 12 1 0
BITMAP
44
38
00
7C
46
02
02
7E
C2
86
C6
7A
ENDCHAR
STARTCHAR 0104
ENCODING 260
SWIDTH 600 0
DWIDTH 10 0
BBX 11 16 0 -4
BITMAP
0C00
0E00
0A00
1A00
1300
1100
3180
3F80
6080
40C0
4040
C040
0040
0080
0080
0060
ENDCHAR
STARTCHAR 0105
ENCODING 261
SWIDTH 540 0
DWIDTH 9 0
BBX 7 13 1 -4
BITMAP
7C
46
02
02
7E
C2
86
C6
7A
06
04
04
06
ENDCHAR
STARTCHAR 0106
ENCODING 262
SWIDTH 600 0
DWIDTH 10 0
BBX 9 16 1 0
BITMAP
0300
0600
0400
0000
1F80
3180
6000
C000
C000
C000
C000
C000
C000
6000
7080
1F80
ENDCHAR
STARTCHAR 0107
ENCODING 263
SWIDTH 480 0
DWIDTH 8 0
BBX 6 13 1 0
BITMAP
0C
08
10
00
3C
60
C0
C0
80
80
C0
60
3C
ENDCHAR
STARTCHAR 0108
ENCODING 264
SWIDTH 600 0
DWIDTH 10 0
BBX 9 16 1 0
BITMAP
0C00
0E00
1300
0000
1F80
3180
6000
C000
C000
C000
C000
C000
C000
6000
7080
1F80
ENDCHAR
STARTCHAR 0109
ENCODING 265
SWIDTH 480 0
DWIDTH 8 0
BBX 6 13 1 0
BITMAP
18
38
44
00
3C
60
C0
C0
80
80
C0
60
3C
ENDCHAR
STARTCHAR 010A
ENCODING 266
SWIDTH 600 0
DWIDTH 10 0
BBX 9 15 1 0
BITMAP
0C00
0400
0000
1F80
3180
6000
C000
C000
C000
C000
C000
C000
6000
7080
1F80
ENDCHAR
STARTCHAR 010B
ENCODING 267
SWIDTH 480 0
DWIDTH 8 0
BBX 6 12 1 0
BITMAP
18
10
00
3C
60
C0
C0
80
80
C0
60
3C
ENDCHAR
STARTCHAR 010C
ENCODING 268
SWIDTH 600 0
DWIDTH 10 0
BBX 9 16 1 0
BITMAP
1100
1A00
0C00
0000
1F80
3180
6000
C000
C000
C000
C000
C000
C000
6000
7080
1F80
ENDCHAR
STARTCHAR 010D
ENCODING 269
SWIDTH 480 0
DWIDTH 8 0
BBX 7 13 1 0
BITMAP
46
2C
18
00
3C
60
C0
C0
80
80
C0
60
3C
ENDCHAR
STARTCHAR 010E
ENCODING 270
SWIDTH 720 0
DWIDTH 12 0
BBX 9 16 2 0
BITMAP
6600
3C00
1800
0000
FC00
8E00
8300
8180
8180
8080
8080
8180
8180
8300
8600
FC00
ENDCHAR
STARTCHAR 010F
ENCODING 271
SWIDTH 600 0
DWIDTH 10 0
BBX 10 13 1 0
BITMAP
0340
0340
0340
0300
3F00
6700
C300
C300
8300
8300
C300
4700
7D00
ENDCHAR
STARTCHAR 0110
ENCODING 272
SWIDTH 720 0
DWIDTH 12 0
BBX 11 12 0 0
BITMAP
3F00
2380
20C0
2060
2060
FC20
FC20
2060
2060
20C0
2180
3F00
ENDCHAR
STARTCHAR 0111
ENCODING 273
SWIDTH 600 0
DWIDTH 10 0
BBX 9 13 1 0
BITMAP
0300
0300
1F80
0300
3F00
6700
C300
C300
8300
C300
C300
4300
7D00
ENDCHAR
STARTCHAR 0112
ENCODING 274
SWIDTH 540 0
DWIDTH 9 0
BBX 6 14 2 0
BITMAP
7C
00
FC
80
80
80
80
FC
80
80
80
80
80
FC
ENDCHAR
STARTCHAR 0113
ENCODING 275
SWIDTH 540 0
DWIDTH 9 0
BBX 8 11 1 0
BITMAP
7C
00
3C
46
C2
83
FF
80
C0
60
3E
ENDCHAR
STARTCHAR 0114
ENCODING 276
SWIDTH 540 0
DWIDTH 9 0
BBX 6 15 2 0
BITMAP
48
78
00
FC
80
80
80
80
FC
80
80
80
80
80
FC
ENDCHAR
STARTCHAR 0115
ENCODING 277
SWIDTH 540 0
DWIDTH 9 0
BBX 8 12 1 0
BITMAP
44
38
00
3C
46
C2
83
FF
80
C0
60
3E
ENDCHAR
STARTCHAR 0116
ENCODING 278
SWIDTH 540 0
DWIDTH 9 0
BBX 6 15 2 0
BITMAP
30
10
00
FC
80
80
80
80
FC
80
80
80
80
80
FC
ENDCHAR
STARTCHAR 0117
ENCODING 279
SWIDTH 540 0
DWIDTH 9 0
BBX 8 12 1 0
BITMAP
18
10
00
3C
46
C2
83
FF
80
C0
60
3E
ENDCHAR
STARTCHAR 0118
ENCODING 280
SWIDTH 540 0
DWIDTH 9 0
BBX 6 16 2 -4
BITMAP
FC
80
80
80
80
FC
80
80
80
80
80
FC
08
08
18
0C
ENDCHAR
STARTCHAR 0119
ENCODING 281
SWIDTH 540 0
DWIDTH 9 0
BBX 8 13 1 -4
BITMAP
3C
46
C2
83
FF
80
C0
60
3E
04
0C
0C
06
ENDCHAR
STARTCHAR 011A
ENCODING 282
SWIDTH 540 0
DWIDTH 9 0
BBX 6 16 2 0
BITMAP
C4
78
30
00
FC
80
80
80
80
FC
80
80
80
80
80
FC
ENDCHAR
STARTCHAR 011B
ENCODING 283
SWIDTH 540 0
DWIDTH 9 0
BBX 8 13 1 0
BITMAP
46
2C
18
00
3C
46
C2
83
FF
80
C0
60
3E
ENDCHAR
STARTCHAR 011C
ENCODING 284
SWIDTH 720 0
DWIDTH 12 0
BBX 10 16 1 0
BITMAP
0600
0E00
1900
0000
1F80
3080
6000
C000
C000
C000
C3C0
C0C0
C0C0
60C0
70C0
1FC0
ENDCHAR
STARTCHAR 011D
ENCODING 285
SWIDTH 600 0
DWIDTH 10 0
BBX 8 17 1 -4
BITMAP
18
3C
66
00
3D
67
C3
C3
83
83
C3
43
7F
03
03
46
7C
ENDCHAR
STARTCHAR 011E
ENCODING 286
SWIDTH 720 0
DWIDTH 12 0
BBX 10 15 1 0
BITMAP
1100
0E00
0000
1F80
3080
6000
C000
C000
C000
C3C0
C0C0
C0C0
60C0
70C0
1FC0
ENDCHAR
STARTCHAR 011F
ENCODING 287
SWIDTH 600 0
DWIDTH 10 0
BBX 8 16 1 -4
BITMAP
24
38
00
3D
67
C3
C3
83
83
C3
43
7F
03
03
46
7C
ENDCHAR
STARTCHAR 0120
ENCODING 288
SWIDTH 720 0
DWIDTH 12 0
BBX 10 15 1 0
BITMAP
0600
0400
0000
1F80
3080
6000
C000
C000
C000
C3C0
C0C0
C0C0
60C0
70C0
1FC0
ENDCHAR
STARTCHAR 0121
ENCODING 289
SWIDTH 600 0
DWIDTH 10 0
BBX 8 16 1 -4
BITMAP
18
00
00
3D
67
C3
C3
83
83
C3
43
7F
03
03
46
7C
ENDCHAR
STARTCHAR 0122
ENCODING 290
SWIDTH 720 0
DWIDTH 12 0
BBX 10 16 1 -4
BITMAP
1F80
3080
6000
C000
C000
C000
C3C0
C0C0
C0C0
60C0
70C0
1FC0
0000
0600
0400
0400
ENDCHAR
STARTCHAR 0123
ENCODING 291
SWIDTH 600 0
DWIDTH 10 0
BBX 8 17 1 -4
BITMAP
08
18
10
00
3D
67
C3
C3
83
83
C3
43
7F
03
03
46
7C
ENDCHAR
STARTCHAR 0124
ENCODING 292
SWIDTH 720 0
DWIDTH 12 0
BBX 9 16 2 0
BITMAP
1800
3C00
2600
0000
8180
8180
8180
8180
8180
FF80
8180
8180
8180
8180
8180
8180
ENDCHAR
STARTCHAR 0125
ENCODING 293
SWIDTH 600 0
DWIDTH 10 0
BBX 9 17 0 0
BITMAP
6000
7000
9800
0000
6000
6000
6000
6000
6F00
7180
6180
6180
6180
6180
6180
6180
6180
ENDCHAR
STARTCHAR 0126
ENCODING 294
SWIDTH 720 0
DWIDTH 12 0
BBX 12 12 0 0
BITMAP
2060
2060
FFF0
2060
2060
3FE0
2060
2060
2060
2060
2060
2060
ENDCHAR
STARTCHAR 0127
ENCODING 295
SWIDTH 600 0
DWIDTH 10 0
BBX 9 13 0 0
BITMAP
6000
6000
FC00
6000
6E00
7B80
6180
6180
6180
6180
6180
6180
6180
ENDCHAR
STARTCHAR 0128
ENCODING 296
SWIDTH 300 0
DWIDTH 5 0
BBX 6 15 0 0
BITMAP
E4
98
00
78
30
30
30
30
30
30
30
30
30
30
78
ENDCHAR
STARTCHAR 0129
ENCODING 297
SWIDTH 240 0
DWIDTH 4 0
BBX 6 12 -1 0
BITMAP
74
98
00
30
30
30
30
30
30
30
30
30
ENDCHAR
STARTCHAR 012A
ENCODING 298
SWIDTH 300 0
DWIDTH 5 0
BBX 5 14 0 0
BITMAP
F8
00
78
30
30
30
30
30
30
30
30
30
30
78
ENDCHAR
STARTCHAR 012B
ENCODING 299
SWIDTH 240 0
DWIDTH 4 0
BBX 5 11 0 0
BITMAP
F8
00
60
60
60
60
60
60
60
60
60
ENDCHAR
STARTCHAR 012C
ENCODING 300
SWIDTH 300 0
DWIDTH 5 0
BBX 5 15 0 0
BITMAP
C8
70
00
78
30
30
30
30
30
30
30
30
30
30
78
ENDCHAR
STARTCHAR 012D
ENCODING 301
SWIDTH 240 0
DWIDTH 4 0
BBX 5 12 0 0
BITMAP
98
70
00
60
60
60
60
60
60
60
60
60
ENDCHAR
STARTCHAR 012E
ENCODING 302
SWIDTH 300 0
DWIDTH 5 0
BBX 4 16 1 -4
BITMAP
F0
60
60
60
60
60
60
60
60
60
60
F0
20
40
60
30
ENDCHAR
STARTCHAR 012F
ENCODING 303
SWIDTH 240 0
DWIDTH 4 0
BBX 3 16 0 -4
BITMAP
60
20
00
60
60
60
60
60
60
60
60
60
40
40
C0
60
ENDCHAR
STARTCHAR 0130
ENCODING 304
SWIDTH 300 0
DWIDTH 5 0
BBX 4 15 1 0
BITMAP
60
40
00
F0
60
60
60
60
60
60
60
60
60
60
F0
ENDCHAR
STARTCHAR 0131
ENCODING 305
SWIDTH 240 0
DWIDTH 4 0
BBX 2 9 1 0
BITMAP
C0
C0
C0
C0
C0
C0
C0
C0
C0
ENDCHAR
STARTCHAR 0132
ENCODING 306
SWIDTH 600 0
DWIDTH 10 0
BBX 8 15 1 -3
BITMAP
F3
63
63
63
63
63
63
63
63
63
63
F3
03
02
1E
ENDCHAR
STARTCHAR 0133
ENCODING 307
SWIDTH 480 0
DWIDTH 8 0
BBX 6 16 1 -4
BITMAP
C4
44
00
C4
C4
C4
C4
C4
C4
C4
C4
C4
04
04
0C
38
ENDCHAR
STARTCHAR 0134
ENCODING 308
SWIDTH 240 0
DWIDTH 4 0
BBX 6 19 -1 -3
BITMAP
30
38
4C
00
10
10
10
10
10
10
10
10
10
10
10
10
30
30
E0
ENDCHAR
STARTCHAR 0135
ENCODING 309
SWIDTH 240 0
DWIDTH 4 0
BBX 6 17 -1 -4
BITMAP
30
78
4C
00
30
30
30
30
30
30
30
30
30
30
30
30
E0
ENDCHAR
STARTCHAR 0136
ENCODING 310
SWIDTH 600 0
DWIDTH 10 0
BBX 8 16 2 -4
BITMAP
83
86
8C
98
B0
B0
F0
98
8C
84
86
83
00
10
10
20
ENDCHAR
STARTCHAR 0137
ENCODING 311
SWIDTH 480 0
DWIDTH 8 0
BBX 7 17 1 -4
BITMAP
C0
C0
C0
C0
C6
CC
D8
D0
F0
D8
CC
C6
C2
00
10
10
20
ENDCHAR
STARTCHAR 0138
ENCODING 312
SWIDTH 480 0
DWIDTH 8 0
BBX 7 9 1 0
BITMAP
C6
CC
C8
D8
F0
D8
CC
C6
C2
ENDCHAR
STARTCHAR 0139
ENCODING 313
SWIDTH 480 0
DWIDTH 8 0
BBX 6 16 2 0
BITMAP
60
C0
80
00
80
80
80
80
80
80
80
80
80
80
80
FC
ENDCHAR
STARTCHAR 013A
ENCODING 314
SWIDTH 240 0
DWIDTH 4 0
BBX 4 17 1 0
BITMAP
30
60
40
00
C0
C0
C0
C0
C0
C0
C0
C0
C0
C0
C0
C0
C0
ENDCHAR
STARTCHAR 013B
ENCODING 315
SWIDTH 480 0
DWIDTH 8 0
BBX 6 16 2 -4
BITMAP
80
80
80
80
80
80
80
80
80
80
80
FC
00
10
30
20
ENDCHAR
STARTCHAR 013C
ENCODING 316
SWIDTH 240 0
DWIDTH 4 0
BBX 2 17 1 -4
BITMAP
C0
C0
C0
C0
C0
C0
C0
C0
C0
C0
C0
C0
C0
00
40
C0
80
ENDCHAR
STARTCHAR 013D
ENCODING 317
SWIDTH 480 0
DWIDTH 8 0
BBX 6 12 2 0
BITMAP
84
84
88
80
80
80
80
80
80
80
80
FC
ENDCHAR
STARTCHAR 013E
ENCODING 318
SWIDTH 240 0
DWIDTH 4 0
BBX 5 13 1 0
BITMAP
D8
D0
D0
C0
C0
C0
C0
C0
C0
C0
C0
C0
C0
ENDCHAR
STARTCHAR 013F
ENCODING 319
SWIDTH 480 0
DWIDTH 8 0
BBX 6 12 2 0
BITMAP
80
80
80
80
80
88
88
80
80
80
80
FC
ENDCHAR
STARTCHAR 0140
ENCODING 320
SWIDTH 240 0
DWIDTH 4 0
BBX 4 13 1 0
BITMAP
C0
C0
C0
C0
C0
C0
D0
D0
C0
C0
C0
C0
C0
ENDCHAR
STARTCHAR 0141
ENCODING 321
SWIDTH 480 0
DWIDTH 8 0
BBX 8 12 0 0
BITMAP
20
20
20
20
24
3C
30
E0
20
20
20
3F
ENDCHAR
STARTCHAR 0142
ENCODING 322
SWIDTH 240 0
DWIDTH 4 0
BBX 4 13 0 0
BITMAP
60
60
60
60
60
70
70
E0
E0
60
60
60
60
ENDCHAR
STARTCHAR 0143
ENCODING 323
SWIDTH 720 0
DWIDTH 12 0
BBX 9 16 2 0
BITMAP
0600
0C00
0800
0000
C080
C080
E080
B080
B080
9880
8880
8C80
8680
8280
8380
8180
ENDCHAR
STARTCHAR 0144
ENCODING 324
SWIDTH 600 0
DWIDTH 10 0
BBX 8 13 1 0
BITMAP
06
0C
18
00
DE
E3
C3
C3
C3
C3
C3
C3
C3
ENDCHAR
STARTCHAR 0145
ENCODING 325
SWIDTH 720 0
DWIDTH 12 0
BBX 9 16 2 -4
BITMAP
C080
C080
E080
B080
B080
9880
8880
8C80
8680
8280
8380
8180
0000
0800
0800
1000
ENDCHAR
STARTCHAR 0146
ENCODING 326
SWIDTH 600 0
DWIDTH 10 0
BBX 8 13 1 -4
BITMAP
DE
E3
C3
C3
C3
C3
C3
C3
C3
00
08
18
10
ENDCHAR
STARTCHAR 0147
ENCODING 327
SWIDTH 720 0
DWIDTH 12 0
BBX 9 16 2 0
BITMAP
2200
3400
1800
0000
C080
C080
E080
B080
B080
9880
8880
8C80
8680
8280
8380
8180
ENDCHAR
STARTCHAR 0148
ENCODING 328
SWIDTH 600 0
DWIDTH 10 0
BBX 8 13 1 0
BITMAP
62
3C
18
00
DE
E3
C3
C3
C3
C3
C3
C3
C3
ENDCHAR
STARTCHAR 0149
ENCODING 329
SWIDTH 660 0
DWIDTH 11 0
BBX 10 12 0 0
BITMAP
4000
4000
C000
9780
18C0
1040
1040
1040
1040
1040
1040
1040
ENDCHAR
STARTCHAR 014A
ENCODING 330
SWIDTH 720 0
DWIDTH 12 0
BBX 9 15 2 -3
BITMAP
C080
C080
E080
B080
9080
9880
8C80
8480
8680
8380
8180
8180
0080
0180
0700
ENDCHAR
STARTCHAR 014B
ENCODING 331
SWIDTH 600 0
DWIDTH 10 0
BBX 8 13 1 -4
BITMAP
DE
E3
C3
C3
C3
C3
C3
C3
C3
03
03
03
0E
ENDCHAR
STARTCHAR 014C
ENCODING 332
SWIDTH 780 0
DWIDTH 13 0
BBX 11 14 1 0
BITMAP
1F00
0000
1F00
71C0
60C0
C060
C060
C060
C060
C060
C060
4040
71C0
1F00
ENDCHAR
STARTCHAR 014D
ENCODING 333
SWIDTH 600 0
DWIDTH 10 0
BBX 8 11 1 0
BITMAP
3E
00
3C
66
C3
C1
81
C1
C3
62
3C
ENDCHAR
STARTCHAR 014E
ENCODING 334
SWIDTH 780 0
DWIDTH 13 0
BBX 11 15 1 0
BITMAP
1100
0E00
0000
1F00
71C0
60C0
C060
C060
C060
C060
C060
C060
4040
71C0
1F00
ENDCHAR
STARTCHAR 014F
ENCODING 335
SWIDTH 600 0
DWIDTH 10 0
BBX 8 12 1 0
BITMAP
24
3C
00
3C
66
C3
C1
81
C1
C3
62
3C
ENDCHAR
STARTCHAR 0150
ENCODING 336
SWIDTH 780 0
DWIDTH 13 0
BBX 11 16 1 0
BITMAP
0D00
1B00
1200
0000
1F00
71C0
60C0
C060
C060
C060
C060
C060
C060
4040
71C0
1F00
ENDCHAR
STARTCHAR 0151
ENCODING 337
SWIDTH 600 0
DWIDTH 10 0
BBX 8 13 1 0
BITMAP
36
24
48
00
3C
66
C3
C1
81
C1
C3
62
3C
ENDCHAR
STARTCHAR 0152
ENCODING 338
SWIDTH 900 0
DWIDTH 15 0
BBX 13 12 1 0
BITMAP
1FF8
7180
6180
C180
C180
C1F8
C180
C180
C180
4180
7180
1FF8
ENDCHAR
STARTCHAR 0153
ENCODING 339
SWIDTH 900 0
DWIDTH 15 0
BBX 14 9 1 0
BITMAP
3CF0
4788
C30C
830C
83FC
8300
C300
4784
3CFC
ENDCHAR
STARTCHAR 0154
ENCODING 340
SWIDTH 600 0
DWIDTH 10 0
BBX 8 16 2 0
BITMAP
0C
18
30
00
F8
8E
86
82
82
86
F8
88
8C
86
86
83
ENDCHAR
STARTCHAR 0155
ENCODING 341
SWIDTH 360 0
DWIDTH 6 0
BBX 6 13 1 0
BITMAP
08
18
30
00
DC
E0
C0
C0
C0
C0
C0
C0
C0
ENDCHAR
STARTCHAR 0156
ENCODING 342
SWIDTH 600 0
DWIDTH 10 0
BBX 8 16 2 -4
BITMAP
F8
8E
86
82
82
86
F8
88
8C
86
86
83
00
10
10
20
ENDCHAR
STARTCHAR 0157
ENCODING 343
SWIDTH 360 0
DWIDTH 6 0
BBX 6 13 1 -4
BITMAP
DC
E0
C0
C0
C0
C0
C0
C0
C0
00
40
C0
80
ENDCHAR
STARTCHAR 0158
ENCODING 344
SWIDTH 600 0
DWIDTH 10 0
BBX 8 16 2 0
BITMAP
C4
78
30
00
F8
8E
86
82
82
86
F8
88
8C
86
86
83
ENDCHAR
STARTCHAR 0159
ENCODING 345
SWIDTH 360 0
DWIDTH 6 0
BBX 6 13 1 0
BITMAP
CC
78
30
00
DC
E0
C0
C0
C0
C0
C0
C0
C0
ENDCHAR
STARTCHAR 015A
ENCODING 346
SWIDTH 540 0
DWIDTH 9 0
BBX 7 16 1 0
BITMAP
0C
08
10
00
7E
C2
C0
C0
C0
70
1C
06
02
02
86
FC
ENDCHAR
STARTCHAR 015B
ENCODING 347
SWIDTH 420 0
DWIDTH 7 0
BBX 6 13 1 0
BITMAP
08
18
30
00
7C
C4
80
E0
38
0C
04
0C
F8
ENDCHAR
STARTCHAR 015C
ENCODING 348
SWIDTH 540 0
DWIDTH 9 0
BBX 7 16 1 0
BITMAP
18
38
64
00
7E
C2
C0
C0
C0
70
1C
06
02
02
86
FC
ENDCHAR
STARTCHAR 015D
ENCODING 349
SWIDTH 420 0
DWIDTH 7 0
BBX 6 13 1 0
BITMAP
30
78
CC
00
7C
C4
80
E0
38
0C
04
0C
F8
ENDCHAR
STARTCHAR 015E
ENCODING 350
SWIDTH 540 0
DWIDTH 9 0
BBX 7 16 1 -4
BITMAP
7E
C2
C0
C0
C0
70
1C
06
02
02
86
FC
10
18
08
30
ENDCHAR
STARTCHAR 015F
ENCODING 351
SWIDTH 420 0
DWIDTH 7 0
BBX 6 13 1 -4
BITMAP
7C
C4
80
E0
38
0C
04
0C
F8
20
30
18
70
ENDCHAR
STARTCHAR 0160
ENCODING 352
SWIDTH 540 0
DWIDTH 9 0
BBX 7 16 1 0
BITMAP
46
2C
18
00
7E
C2
C0
C0
C0
70
1C
06
02
02
86
FC
ENDCHAR
STARTCHAR 0161
ENCODING 353
SWIDTH 420 0
DWIDTH 7 0
BBX 6 13 1 0
BITMAP
CC
78
30
00
7C
C4
80
E0
38
0C
04
0C
F8
ENDCHAR
STARTCHAR 0162
ENCODING 354
SWIDTH 540 0
DWIDTH 9 0
BBX 9 16 0 -4
BITMAP
FF80
0800
0800
0800
0800
0800
0800
0800
0800
0800
0800
0800
0800
0C00
0400
1C00
ENDCHAR
STARTCHAR 0163
ENCODING 355
SWIDTH 360 0
DWIDTH 6 0
BBX 6 15 0 -4
BITMAP
20
20
FC
20
20
20
20
20
20
20
3C
10
18
08
38
ENDCHAR
STARTCHAR 0164
ENCODING 356
SWIDTH 540 0
DWIDTH 9 0
BBX 9 16 0 0
BITMAP
2200
1400
0C00
0000
FF80
0800
0800
0800
0800
0800
0800
0800
0800
0800
0800
0800
ENDCHAR
STARTCHAR 0165
ENCODING 357
SWIDTH 360 0
DWIDTH 6 0
BBX 8 13 0 0
BITMAP
03
02
22
20
FC
20
20
20
20
20
20
20
3C
ENDCHAR
STARTCHAR 0166
ENCODING 358
SWIDTH 540 0
DWIDTH 9 0
BBX 9 12 0 0
BITMAP
FF80
0800
0800
0800
0800
7F00
7F00
0800
0800
0800
0800
0800
ENDCHAR
STARTCHAR 0167
ENCODING 359
SWIDTH 360 0
DWIDTH 6 0
BBX 6 11 0 0
BITMAP
20
20
FC
20
20
F8
20
20
20
20
3C
ENDCHAR
STARTCHAR 0168
ENCODING 360
SWIDTH 720 0
DWIDTH 12 0
BBX 10 15 1 0
BITMAP
1D00
2600
0000
C0C0
C0C0
C0C0
C0C0
C0C0
C0C0
C0C0
C0C0
40C0
4080
6180
3F00
ENDCHAR
STARTCHAR 0169
ENCODING 361
SWIDTH 600 0
DWIDTH 10 0
BBX 8 12 1 0
BITMAP
3A
4C
00
C3
C3
C3
C3
C3
C3
C3
47
7D
ENDCHAR
STARTCHAR 016A
ENCODING 362
SWIDTH 720 0
DWIDTH 12 0
BBX 10 14 1 0
BITMAP
1F00
0000
C0C0
C0C0
C0C0
C0C0
C0C0
C0C0
C0C0
C0C0
40C0
4080
6180
3F00
ENDCHAR
STARTCHAR 016B
ENCODING 363
SWIDTH 600 0
DWIDTH 10 0
BBX 8 11 1 0
BITMAP
3E
00
C3
C3
C3
C3
C3
C3
C3
47
7D
ENDCHAR
STARTCHAR 016C
ENCODING 364
SWIDTH 720 0
DWIDTH 12 0
BBX 10 15 1 0
BITMAP
1200
1E00
0000
C0C0
C0C0
C0C0
C0C0
C0C0
C0C0
C0C0
C0C0
40C0
4080
6180
3F00
ENDCHAR
STARTCHAR 016D
ENCODING 365
SWIDTH 600 0
DWIDTH 10 0
BBX 8 12 1 0
BITMAP
26
1C
00
C3
C3
C3
C3
C3
C3
C3
47
7D
ENDCHAR
STARTCHAR 016E
ENCODING 366
SWIDTH 720 0
DWIDTH 12 0
BBX 10 17 1 0
BITMAP
0C00
1200
1200
0C00
0000
C0C0
C0C0
C0C0
C0C0
C0C0
C0C0
C0C0
C0C0
40C0
4080
6180
3F00
ENDCHAR
STARTCHAR 016F
ENCODING 367
SWIDTH 600 0
DWIDTH 10 0
BBX 8 14 1 0
BITMAP
18
24
24
18
00
C3
C3
C3
C3
C3
C3
C3
47
7D
ENDCHAR
STARTCHAR 0170
ENCODING 368
SWIDTH 720 0
DWIDTH 12 0
BBX 10 16 1 0
BITMAP
1B00
1200
2400
0000
C0C0
C0C0
C0C0
C0C0
C0C0
C0C0
C0C0
C0C0
40C0
4080
6180
3F00
ENDCHAR
STARTCHAR 0171
ENCODING 369
SWIDTH 600 0
DWIDTH 10 0
BBX 8 13 1 0
BITMAP
36
24
48
00
C3
C3
C3
C3
C3
C3
C3
47
7D
ENDCHAR
STARTCHAR 0172
ENCODING 370
SWIDTH 720 0
DWIDTH 12 0
BBX 10 16 1 -4
BITMAP
C0C0
C0C0
C0C0
C0C0
C0C0
C0C0
C0C0
C0C0
40C0
4080
6180
3F00
0200
0200
0200
0300
ENDCHAR
STARTCHAR 0173
ENCODING 371
SWIDTH 600 0
DWIDTH 10 0
BBX 8 13 1 -4
BITMAP
C3
C3
C3
C3
C3
C3
C3
47
7D
02
06
06
03
ENDCHAR
STARTCHAR 0174
ENCODING 372
SWIDTH 900 0
DWIDTH 15 0
BBX 15 16 0 0
BITMAP
0180
0380
0640
0000
C182
4186
4386
6284
62C4
264C
244C
3468
3C28
1C38
1838
1830
ENDCHAR
STARTCHAR 0175
ENCODING 373
SWIDTH 780 0
DWIDTH 13 0
BBX 13 13 0 0
BITMAP
0200
0500
0880
0000
C318
4718
4510
6510
6DB0
28A0
28A0
38E0
1060
ENDCHAR
STARTCHAR 0176
ENCODING 374
SWIDTH 540 0
DWIDTH 9 0
BBX 9 16 0 0
BITMAP
0C00
1C00
2200
0000
C080
4180
6100
2300
3600
1400
1C00
0800
0800
0800
0800
0800
ENDCHAR
STARTCHAR 0177
ENCODING 375
SWIDTH 480 0
DWIDTH 8 0
BBX 8 17 0 -4
BITMAP
18
1C
26
00
C1
43
63
62
26
34
14
1C
18
18
18
30
E0
ENDCHAR
STARTCHAR 0178
ENCODING 376
SWIDTH 540 0
DWIDTH 9 0
BBX 9 15 0 0
BITMAP
3200
0000
0000
C080
4180
6100
2300
3600
1400
1C00
0800
0800
0800
0800
0800
ENDCHAR
STARTCHAR 0179
ENCODING 377
SWIDTH 540 0
DWIDTH 9 0
BBX 8 16 1 0
BITMAP
0C
08
10
00
FF
03
06
04
0C
18
10
30
60
40
C0
FF
ENDCHAR
STARTCHAR 017A
ENCODING 378
SWIDTH 420 0
DWIDTH 7 0
BBX 6 13 1 0
BITMAP
18
10
20
00
FC
0C
08
10
30
60
40
C0
FC
ENDCHAR
STARTCHAR 017B
ENCODING 379
SWIDTH 540 0
DWIDTH 9 0
BBX 8 15 1 0
BITMAP
18
10
00
FF
03
06
04
0C
18
10
30
60
40
C0
FF
ENDCHAR
STARTCHAR 017C
ENCODING 380
SWIDTH 420 0
DWIDTH 7 0
BBX 6 12 1 0
BITMAP
30
00
00
FC
0C
08
10
30
60
40
C0
FC
ENDCHAR
STARTCHAR 017D
ENCODING 381
SWIDTH 540 0
DWIDTH 9 0
BBX 8 16 1 0
BITMAP
46
3C
18
00
FF
03
06
04
0C
18
10
30
60
40
C0
FF
ENDCHAR
STARTCHAR 017E
ENCODING 382
SWIDTH 420 0
DWIDTH 7 0
BBX 6 13 1 0
BITMAP
8C
78
30
00
FC
0C
08
10
30
60
40
C0
FC
ENDCHAR
STARTCHAR 017F
ENCODING 383
SWIDTH 300 0
DWIDTH 5 0
BBX 5 13 1 0
BITMAP
38
68
C0
C0
C0
C0
C0
C0
C0
C0
C0
C0
C0
ENDCHAR
STARTCHAR 0180
ENCODING 384
SWIDTH 600 0
DWIDTH 10 0
BBX 9 13 0 0
BITMAP
6000
6000
FC00
6000
6F00
7180
6180
6080
6080
6080
6080
7180
7F00
ENDCHAR
STARTCHAR 0181
ENCODING 385
SWIDTH 720 0
DWIDTH 12 0
BBX 11 12 0 0
BITMAP
7F80
D0E0
D060
1060
1040
1F80
10C0
1060
1020
1060
10E0
1FC0
ENDCHAR
STARTCHAR 0182
ENCODING 386
SWIDTH 600 0
DWIDTH 10 0
BBX 7 12 2 0
BITMAP
FE
80
80
80
80
F8
8E
82
82
82
86
FC
ENDCHAR
STARTCHAR 0183
ENCODING 387
SWIDTH 600 0
DWIDTH 10 0
BBX 8 13 1 0
BITMAP
FE
FE
C0
C0
DE
E3
C3
C1
C1
C1
C1
E3
FE
ENDCHAR
STARTCHAR 0184
ENCODING 388
SWIDTH 600 0
DWIDTH 10 0
BBX 9 12 1 0
BITMAP
C000
C000
C000
C000
C000
FE00
C700
C180
C180
4180
6300
3E00
ENDCHAR
STARTCHAR 0185
ENCODING 389
SWIDTH 600 0
DWIDTH 10 0
BBX 8 13 1 0
BITMAP
C0
C0
C0
C0
DE
E3
C3
C1
C1
C1
43
63
3E
ENDCHAR
STARTCHAR 0186
ENCODING 390
SWIDTH 600 0
DWIDTH 10 0
BBX 9 12 1 0
BITMAP
FC00
8E00
0300
0300
0100
0180
0180
0100
0300
0300
0600
FC00
ENDCHAR
STARTCHAR 0187
ENCODING 391
SWIDTH 600 0
DWIDTH 10 0
BBX 11 14 1 0
BITMAP
00E0
0080
1F80
3180
6000
C000
C000
C000
C000
C000
C000
6000
7080
1F80
ENDCHAR
STARTCHAR 0188
ENCODING 392
SWIDTH 480 0
DWIDTH 8 0
BBX 8 13 1 0
BITMAP
03
07
04
04
3C
60
C0
C0
80
80
C0
60
3C
ENDCHAR
STARTCHAR 0189
ENCODING 393
SWIDTH 720 0
DWIDTH 12 0
BBX 11 12 0 0
BITMAP
3F00
2380
20C0
2060
2060
FC20
FC20
2060
2060
20C0
2180
3F00
ENDCHAR
STARTCHAR 018A
ENCODING 394
SWIDTH 780 0
DWIDTH 13 0
BBX 12 12 0 0
BITMAP
7F80
D0E0
D030
1030
1010
1010
1010
1010
1030
1030
10E0
1F80
ENDCHAR
STARTCHAR 018B
ENCODING 395
SWIDTH 600 0
DWIDTH 10 0
BBX 8 12 1 0
BITMAP
7F
03
03
03
03
3F
73
C3
83
C3
E3
3F
ENDCHAR
STARTCHAR 018C
ENCODING 396
SWIDTH 600 0
DWIDTH 10 0
BBX 8 13 1 0
BITMAP
7F
7F
03
03
3F
67
C3
C3
83
83
C3
47
7D
ENDCHAR
STARTCHAR 018D
ENCODING 397
SWIDTH 600 0
DWIDTH 10 0
BBX 8 13 1 -4
BITMAP
3E
63
C1
C1
C1
C3
62
3C
0C
06
06
66
38
ENDCHAR
STARTCHAR 018E
ENCODING 398
SWIDTH 540 0
DWIDTH 9 0
BBX 7 12 1 0
BITMAP
FE
06
06
06
06
FE
06
06
06
06
06
FE
ENDCHAR
STARTCHAR 018F
ENCODING 399
SWIDTH 720 0
DWIDTH 12 0
BBX 10 12 1 0
BITMAP
7E00
4380
0080
00C0
0040
FFC0
FFC0
C040
C0C0
40C0
6180
3F00
ENDCHAR
STARTCHAR 0190
ENCODING 400
SWIDTH 540 0
DWIDTH 9 0
BBX 8 12 1 0
BITMAP
3E
63
C0
40
60
3E
70
C0
80
C0
E1
7F
ENDCHAR
STARTCHAR 0191
ENCODING 401
SWIDTH 540 0
DWIDTH 9 0
BBX 9 16 0 -4
BITMAP
1F80
1800
1800
1800
1800
1F80
1800
1800
1800
1800
1800
1800
1800
9800
9000
F000
ENDCHAR
STARTCHAR 0192
ENCODING 402
SWIDTH 360 0
DWIDTH 6 0
BBX 7 17 0 -4
BITMAP
06
1A
18
10
7E
10
10
10
10
10
10
10
10
10
90
90
F0
ENDCHAR
STARTCHAR 0193
ENCODING 403
SWIDTH 720 0
DWIDTH 12 0
BBX 11 14 1 0
BITMAP
0060
00C0
1FC0
3080
6000
C000
C000
C000
C3C0
C0C0
C0C0
60C0
70C0
1FC0
ENDCHAR
STARTCHAR 0194
ENCODING 404
SWIDTH 540 0
DWIDTH 9 0
BBX 9 16 0 -4
BITMAP
C080
4180
4180
6100
2300
3200
3600
1600
1C00
0C00
0C00
1C00
1400
1600
1600
1C00
ENDCHAR
STARTCHAR 0195
ENCODING 405
SWIDTH 900 0
DWIDTH 15 0
BBX 13 13 1 0
BITMAP
C000
C000
C000
C000
DE08
E608
C308
C308
C308
C308
C308
C318
C1F0
ENDCHAR
STARTCHAR 0196
ENCODING 406
SWIDTH 300 0
DWIDTH 5 0
BBX 5 12 1 0
BITMAP
C0
C0
C0
C0
C0
C0
C0
C0
C0
40
40
78
ENDCHAR
STARTCHAR 0197
ENCODING 407
SWIDTH 300 0
DWIDTH 5 0
BBX 4 12 1 0
BITMAP
F0
60
60
60
60
F0
F0
60
60
60
60
F0
ENDCHAR
STARTCHAR 0198
ENCODING 408
SWIDTH 600 0
DWIDTH 10 0
BBX 8 12 2 0
BITMAP
83
86
8C
98
B0
B0
D0
98
8C
86
86
83
ENDCHAR
STARTCHAR 0199
ENCODING 409
SWIDTH 480 0
DWIDTH 8 0
BBX 7 13 1 0
BITMAP
70
70
C0
C0
C6
CC
D8
D0
F0
D8
CC
C6
C2
ENDCHAR
STARTCHAR 019A
ENCODING 410
SWIDTH 240 0
DWIDTH 4 0
BBX 4 13 0 0
BITMAP
60
60
60
60
60
60
F0
60
60
60
60
60
60
ENDCHAR
STARTCHAR 019B
ENCODING 411
SWIDTH 540 0
DWIDTH 9 0
BBX 9 13 0 0
BITMAP
6000
3400
3C00
1800
0800
1C00
1400
3400
2600
6200
6300
4300
C180
ENDCHAR
STARTCHAR 019C
ENCODING 412
SWIDTH 1020 0
DWIDTH 17 0
BBX 15 12 1 0
BITMAP
C106
C106
C106
C106
C106
C106
C106
C106
C106
4306
638E
3CF6
ENDCHAR
STARTCHAR 019D
ENCODING 413
SWIDTH 720 0
DWIDTH 12 0
BBX 11 16 0 -4
BITMAP
3020
3020
3820
2C20
2C20
2620
2220
2320
21A0
20A0
20E0
2060
2000
2000
6000
C000
ENDCHAR
STARTCHAR 019E
ENCODING 414
SWIDTH 600 0
DWIDTH 10 0
BBX 8 13 1 -4
BITMAP
DE
E3
C3
C3
C3
C3
C3
C3
C3
03
03
03
03
ENDCHAR
STARTCHAR 019F
ENCODING 415
SWIDTH 780 0
DWIDTH 13 0
BBX 11 12 1 0
BITMAP
1F00
71C0
60C0
C060
C060
FFE0
FFE0
C060
C060
4040
71C0
1F00
ENDCHAR
STARTCHAR 01A0
ENCODING 416
SWIDTH 780 0
DWIDTH 13 0
BBX 12 13 1 0
BITMAP
0010
1F10
71F0
60C0
C060
C060
C060
C060
C060
C060
4040
71C0
1F00
ENDCHAR
STARTCHAR 01A1
ENCODING 417
SWIDTH 600 0
DWIDTH 10 0
BBX 10 10 1 0
BITMAP
00C0
3C80
6300
C300
C100
8100
8100
C300
4200
3C00
ENDCHAR
STARTCHAR 01A2
ENCODING 418
SWIDTH 1020 0
DWIDTH 17 0
BBX 15 12 1 0
BITMAP
1F3C
71C6
40C2
C042
C042
C042
C042
C042
C042
40C2
7182
3F02
ENDCHAR
STARTCHAR 01A3
ENCODING 419
SWIDTH 840 0
DWIDTH 14 0
BBX 12 13 1 -4
BITMAP
3DE0
4730
C230
C330
8330
C330
C230
4630
3C30
0030
0030
0030
0030
ENDCHAR
STARTCHAR 01A4
ENCODING 420
SWIDTH 660 0
DWIDTH 11 0
BBX 11 12 0 0
BITMAP
7F80
D1C0
D040
1060
1040
10C0
1F80
1000
1000
1000
1000
1000
ENDCHAR
STARTCHAR 01A5
ENCODING 421
SWIDTH 600 0
DWIDTH 10 0
BBX 8 17 1 -4
BITMAP
70
70
C0
C0
DE
E3
C3
C1
C1
C1
C3
E3
DE
C0
C0
C0
C0
ENDCHAR
STARTCHAR 01A6
ENCODING 422
SWIDTH 600 0
DWIDTH 10 0
BBX 8 14 2 -2
BITMAP
80
80
FC
86
82
82
86
FC
F8
8C
84
86
02
03
ENDCHAR
STARTCHAR 01A7
ENCODING 423
SWIDTH 540 0
DWIDTH 9 0
BBX 7 12 1 0
BITMAP
7C
46
02
02
06
1C
70
C0
80
80
C2
7E
ENDCHAR
STARTCHAR 01A8
ENCODING 424
SWIDTH 420 0
DWIDTH 7 0
BBX 6 9 1 0
BITMAP
F8
0C
04
1C
70
C0
80
C0
7C
ENDCHAR
STARTCHAR 01A9
ENCODING 425
SWIDTH 540 0
DWIDTH 9 0
BBX 8 12 1 0
BITMAP
FF
C0
60
20
30
18
18
30
60
40
80
FF
ENDCHAR
STARTCHAR 01AA
ENCODING 426
SWIDTH 300 0
DWIDTH 5 0
BBX 7 17 0 -4
BITMAP
60
F0
90
F0
10
10
10
10
10
10
10
10
10
10
10
18
1E
ENDCHAR
STARTCHAR 01AB
ENCODING 427
SWIDTH 360 0
DWIDTH 6 0
BBX 6 15 0 -4
BITMAP
20
20
FC
20
20
20
20
20
20
20
3C
0C
0C
0C
18
ENDCHAR
STARTCHAR 01AC
ENCODING 428
SWIDTH 540 0
DWIDTH 9 0
BBX 9 12 0 0
BITMAP
7F80
CC00
CC00
0C00
0C00
0C00
0C00
0C00
0C00
0C00
0C00
0C00
ENDCHAR
STARTCHAR 01AD
ENCODING 429
SWIDTH 360 0
DWIDTH 6 0
BBX 6 13 0 0
BITMAP
18
38
20
20
FC
20
20
20
20
20
20
20
3C
ENDCHAR
STARTCHAR 01AE
ENCODING 430
SWIDTH 540 0
DWIDTH 9 0
BBX 9 16 0 -4
BITMAP
FF80
0800
0800
0800
0800
0800
0800
0800
0800
0800
0800
0800
0800
0800
0C00
0600
ENDCHAR
STARTCHAR 01AF
ENCODING 431
SWIDTH 780 0
DWIDTH 13 0
BBX 13 13 1 0
BITMAP
0018
C0D0
C0F0
C0E0
C0C0
C0C0
C0C0
C0C0
C0C0
40C0
4080
6180
3F00
ENDCHAR
STARTCHAR 01B0
ENCODING 432
SWIDTH 660 0
DWIDTH 11 0
BBX 11 10 1 0
BITMAP
0060
C340
C380
C300
C300
C300
C300
C300
4700
7D00
ENDCHAR
STARTCHAR 01B1
ENCODING 433
SWIDTH 780 0
DWIDTH 13 0
BBX 11 12 1 0
BITMAP
F1E0
3180
60C0
4040
C060
C060
C060
C060
C060
4040
71C0
3F80
ENDCHAR
STARTCHAR 01B2
ENCODING 434
SWIDTH 720 0
DWIDTH 12 0
BBX 10 12 1 0
BITMAP
C380
C0C0
C0C0
C0C0
C0C0
C0C0
C0C0
C0C0
40C0
4080
6180
3F00
ENDCHAR
STARTCHAR 01B3
ENCODING 435
SWIDTH 540 0
DWIDTH 9 0
BBX 10 12 0 0
BITMAP
C1C0
4100
6300
2200
3600
1400
1C00
0800
0800
0800
0800
0800
ENDCHAR
STARTCHAR 01B4
ENCODING 436
SWIDTH 540 0
DWIDTH 9 0
BBX 9 13 0 -4
BITMAP
C180
4300
6300
6200
2600
3400
1400
1C00
1800
1800
1800
3000
E000
ENDCHAR
STARTCHAR 01B5
ENCODING 437
SWIDTH 540 0
DWIDTH 9 0
BBX 8 12 1 0
BITMAP
FF
03
06
04
0C
FE
10
30
60
40
C0
FF
ENDCHAR
STARTCHAR 01B6
ENCODING 438
SWIDTH 420 0
DWIDTH 7 0
BBX 6 9 1 0
BITMAP
FC
0C
08
10
FC
60
40
C0
FC
ENDCHAR
STARTCHAR 01B7
ENCODING 439
SWIDTH 540 0
DWIDTH 9 0
BBX 8 12 1 0
BITMAP
FE
06
0C
18
30
78
0E
03
03
03
06
FC
ENDCHAR
STARTCHAR 01B8
ENCODING 440
SWIDTH 540 0
DWIDTH 9 0
BBX 8 12 1 0
BITMAP
FF
40
20
10
08
7C
C0
C0
80
C0
61
3F
ENDCHAR
STARTCHAR 01B9
ENCODING 441
SWIDTH 480 0
DWIDTH 8 0
BBX 7 13 1 -4
BITMAP
FE
C0
60
30
18
38
60
80
80
80
80
E2
3E
ENDCHAR
STARTCHAR 01BA
ENCODING 442
SWIDTH 480 0
DWIDTH 8 0
BBX 7 13 0 -4
BITMAP
FE
06
08
30
3C
06
02
02
06
7C
40
44
7C
ENDCHAR
STARTCHAR 01BB
ENCODING 443
SWIDTH 540 0
DWIDTH 9 0
BBX 8 13 1 0
BITMAP
38
FC
06
06
06
04
FF
18
30
20
40
C0
FF
ENDCHAR
STARTCHAR 01BC
ENCODING 444
SWIDTH 540 0
DWIDTH 9 0
BBX 8 12 1 0
BITMAP
FE
60
60
60
60
7C
06
03
03
03
06
FC
ENDCHAR
STARTCHAR 01BD
ENCODING 445
SWIDTH 480 0
DWIDTH 8 0
BBX 6 9 1 0
BITMAP
FC
40
40
78
1C
04
04
0C
F8
ENDCHAR
STARTCHAR 01BE
ENCODING 446
SWIDTH 420 0
DWIDTH 7 0
BBX 6 11 1 0
BITMAP
20
60
F8
60
60
60
38
0C
04
0C
F8
ENDCHAR
STARTCHAR 01BF
ENCODING 447
SWIDTH 540 0
DWIDTH 9 0
BBX 8 13 1 -4
BITMAP
DE
E3
C3
C3
C3
C3
C6
CC
F8
C0
C0
C0
C0
ENDCHAR
STARTCHAR 01C0
ENCODING 448
SWIDTH 300 0
DWIDTH 5 0
BBX 1 13 2 0
BITMAP
80
80
80
80
80
80
80
80
80
80
80
80
80
ENDCHAR
STARTCHAR 01C1
ENCODING 449
SWIDTH 540 0
DWIDTH 9 0
BBX 5 13 2 0
BITMAP
88
88
88
88
88
88
88
88
88
88
88
88
88
ENDCHAR
STARTCHAR 01C2
ENCODING 450
SWIDTH 480 0
DWIDTH 8 0
BBX 7 13 1 0
BITMAP
10
10
10
10
10
FE
10
FE
FE
10
10
10
10
ENDCHAR
STARTCHAR 01C3
ENCODING 451
SWIDTH 240 0
DWIDTH 4 0
BBX 2 12 1 0
BITMAP
C0
C0
C0
40
40
40
40
40
40
00
C0
C0
ENDCHAR
STARTCHAR 01C4
ENCODING 452
SWIDTH 1260 0
DWIDTH 21 0
BBX 19 16 2 0
BITMAP
0008C0
000780
000300
000000
FC1FE0
8E0060
8300C0
818080
818180
808300
808200
818600
818C00
830800
861800
FC1FE0
ENDCHAR
STARTCHAR 01C5
ENCODING 453
SWIDTH 1200 0
DWIDTH 20 0
BBX 17 13 2 0
BITMAP
001980
FC0F00
8E0600
830000
819F80
818180
808100
808300
818600
818400
830800
861800
FC1F80
ENDCHAR
STARTCHAR 01C6
ENCODING 454
SWIDTH 1080 0
DWIDTH 18 0
BBX 16 13 1 0
BITMAP
0331
031E
030C
0300
3F3F
6703
C302
C306
830C
8308
C318
4730
7D3F
ENDCHAR
STARTCHAR 01C7
ENCODING 455
SWIDTH 780 0
DWIDTH 13 0
BBX 10 15 2 -3
BITMAP
80C0
80C0
80C0
80C0
80C0
80C0
80C0
80C0
80C0
80C0
80C0
FCC0
00C0
0080
0780
ENDCHAR
STARTCHAR 01C8
ENCODING 456
SWIDTH 780 0
DWIDTH 13 0
BBX 10 16 2 -4
BITMAP
80C0
8000
8000
80C0
80C0
80C0
80C0
80C0
80C0
80C0
80C0
FCC0
00C0
00C0
0080
0380
ENDCHAR
STARTCHAR 01C9
ENCODING 457
SWIDTH 480 0
DWIDTH 8 0
BBX 6 17 1 -4
BITMAP
C0
C4
C4
C0
C4
C4
C4
C4
C4
C4
C4
C4
C4
04
04
0C
38
ENDCHAR
STARTCHAR 01CA
ENCODING 458
SWIDTH 1020 0
DWIDTH 17 0
BBX 14 15 2 -3
BITMAP
C08C
C08C
E08C
B08C
B08C
988C
888C
8C8C
868C
828C
838C
818C
000C
0008
0078
ENDCHAR
STARTCHAR 01CB
ENCODING 459
SWIDTH 960 0
DWIDTH 16 0
BBX 14 16 2 -4
BITMAP
C08C
C088
E080
B08C
B08C
988C
888C
8C8C
868C
828C
838C
818C
000C
000C
0008
0038
ENDCHAR
STARTCHAR 01CC
ENCODING 460
SWIDTH 840 0
DWIDTH 14 0
BBX 12 16 1 -4
BITMAP
0010
0010
0000
DE10
E310
C310
C310
C310
C310
C310
C310
C310
0010
0010
0030
00E0
ENDCHAR
STARTCHAR 01CD
ENCODING 461
SWIDTH 600 0
DWIDTH 10 0
BBX 10 16 0 0
BITMAP
3100
1A00
0C00
0000
0C00
0E00
0A00
1A00
1300
1100
3180
3F80
6080
40C0
4040
C040
ENDCHAR
STARTCHAR 01CE
ENCODING 462
SWIDTH 540 0
DWIDTH 9 0
BBX 7 13 1 0
BITMAP
44
28
18
00
7C
46
02
02
7E
C2
86
C6
7A
ENDCHAR
STARTCHAR 01CF
ENCODING 463
SWIDTH 300 0
DWIDTH 5 0
BBX 6 16 0 0
BITMAP
8C
78
30
00
78
30
30
30
30
30
30
30
30
30
30
78
ENDCHAR
STARTCHAR 01D0
ENCODING 464
SWIDTH 240 0
DWIDTH 4 0
BBX 6 13 -1 0
BITMAP
C4
78
30
00
30
30
30
30
30
30
30
30
30
ENDCHAR
STARTCHAR 01D1
ENCODING 465
SWIDTH 780 0
DWIDTH 13 0
BBX 11 16 1 0
BITMAP
1100
0A00
0E00
0000
1F00
71C0
60C0
C060
C060
C060
C060
C060
C060
4040
71C0
1F00
ENDCHAR
STARTCHAR 01D2
ENCODING 466
SWIDTH 600 0
DWIDTH 10 0
BBX 8 13 1 0
BITMAP
66
3C
18
00
3C
66
C3
C1
81
C1
C3
62
3C
ENDCHAR
STARTCHAR 01D3
ENCODING 467
SWIDTH 720 0
DWIDTH 12 0
BBX 10 16 1 0
BITMAP
3100
1E00
0C00
0000
C0C0
C0C0
C0C0
C0C0
C0C0
C0C0
C0C0
C0C0
40C0
4080
6180
3F00
ENDCHAR
STARTCHAR 01D4
ENCODING 468
SWIDTH 600 0
DWIDTH 10 0
BBX 8 13 1 0
BITMAP
62
3C
18
00
C3
C3
C3
C3
C3
C3
C3
47
7D
ENDCHAR
STARTCHAR 01D5
ENCODING 469
SWIDTH 720 0
DWIDTH 12 0
BBX 10 17 1 0
BITMAP
1F00
0000
1200
1200
0000
C0C0
C0C0
C0C0
C0C0
C0C0
C0C0
C0C0
C0C0
40C0
4080
6180
3F00
ENDCHAR
STARTCHAR 01D6
ENCODING 470
SWIDTH 600 0
DWIDTH 10 0
BBX 8 14 1 0
BITMAP
3E
00
24
24
00
C3
C3
C3
C3
C3
C3
C3
47
7D
ENDCHAR
STARTCHAR 01D7
ENCODING 471
SWIDTH 720 0
DWIDTH 12 0
BBX 10 17 1 0
BITMAP
0600
0C00
1200
1200
0000
C0C0
C0C0
C0C0
C0C0
C0C0
C0C0
C0C0
C0C0
40C0
4080
6180
3F00
ENDCHAR
STARTCHAR 01D8
ENCODING 472
SWIDTH 600 0
DWIDTH 10 0
BBX 8 15 1 0
BITMAP
06
0C
18
24
24
00
C3
C3
C3
C3
C3
C3
C3
47
7D
ENDCHAR
STARTCHAR 01D9
ENCODING 473
SWIDTH 720 0
DWIDTH 12 0
BBX 10 18 1 0
BITMAP
3100
1E00
0C00
1200
1200
0000
C0C0
C0C0
C0C0
C0C0
C0C0
C0C0
C0C0
C0C0
40C0
4080
6180
3F00
ENDCHAR
STARTCHAR 01DA
ENCODING 474
SWIDTH 600 0
DWIDTH 10 0
BBX 8 15 1 0
BITMAP
62
3C
18
24
24
00
C3
C3
C3
C3
C3
C3
C3
47
7D
ENDCHAR
STARTCHAR 01DB
ENCODING 475
SWIDTH 720 0
DWIDTH 12 0
BBX 10 17 1 0
BITMAP
1800
0C00
1200
1200
0000
C0C0
C0C0
C0C0
C0C0
C0C0
C0C0
C0C0
C0C0
40C0
4080
6180
3F00
ENDCHAR
STARTCHAR 01DC
ENCODING 476
SWIDTH 600 0
DWIDTH 10 0
BBX 8 15 1 0
BITMAP
20
30
08
24
24
00
C3
C3
C3
C3
C3
C3
C3
47
7D
ENDCHAR
STARTCHAR 01DD
ENCODING 477
SWIDTH 540 0
DWIDTH 9 0
BBX 7 9 1 0
BITMAP
FC
86
02
02
FE
82
C2
C6
7C
ENDCHAR
STARTCHAR 01DE
ENCODING 478
SWIDTH 600 0
DWIDTH 10 0
BBX 10 17 0 0
BITMAP
1F00
0000
1200
1300
0000
0C00
0E00
0A00
1A00
1300
1100
3180
3F80
6080
40C0
4040
C040
ENDCHAR
STARTCHAR 01DF
ENCODING 479
SWIDTH 540 0
DWIDTH 9 0
BBX 7 14 1 0
BITMAP
7C
00
24
64
00
7C
46
02
02
7E
C2
86
C6
7A
ENDCHAR
STARTCHAR 01E0
ENCODING 480
SWIDTH 600 0
DWIDTH 10 0
BBX 10 17 0 0
BITMAP
1F00
1F00
0400
0C00
0000
0C00
0E00
0A00
1A00
1300
1100
3180
3F80
6080
40C0
4040
C040
ENDCHAR
STARTCHAR 01E1
ENCODING 481
SWIDTH 540 0
DWIDTH 9 0
BBX 7 14 1 0
BITMAP
7C
00
10
10
00
7C
46
02
02
7E
C2
86
C6
7A
ENDCHAR
STARTCHAR 01E2
ENCODING 482
SWIDTH 840 0
DWIDTH 14 0
BBX 14 14 0 0
BITMAP
03E0
0000
07FC
0580
0D80
0D80
0980
19F8
1180
3F80
2180
6180
4180
C1FC
ENDCHAR
STARTCHAR 01E3
ENCODING 483
SWIDTH 840 0
DWIDTH 14 0
BBX 13 11 1 0
BITMAP
0F80
0000
7DE0
4730
0610
0618
7FF8
C600
8600
CF00
79F0
ENDCHAR
STARTCHAR 01E4
ENCODING 484
SWIDTH 720 0
DWIDTH 12 0
BBX 11 12 1 0
BITMAP
1F80
3080
6000
C000
C000
C000
C3C0
C0C0
C3E0
60C0
70C0
1FC0
ENDCHAR
STARTCHAR 01E5
ENCODING 485
SWIDTH 600 0
DWIDTH 10 0
BBX 9 13 1 -4
BITMAP
3D00
6700
C300
8300
8300
C300
C300
7F00
3B00
0300
1F80
4600
7C00
ENDCHAR
STARTCHAR 01E6
ENCODING 486
SWIDTH 720 0
DWIDTH 12 0
BBX 10 16 1 0
BITMAP
1180
0B00
0600
0000
1F80
3080
6000
C000
C000
C000
C3C0
C0C0
C0C0
60C0
70C0
1FC0
ENDCHAR
STARTCHAR 01E7
ENCODING 487
SWIDTH 600 0
DWIDTH 10 0
BBX 8 17 1 -4
BITMAP
66
3C
18
00
3D
67
C3
C3
83
83
C3
43
7F
03
03
46
7C
ENDCHAR
STARTCHAR 01E8
ENCODING 488
SWIDTH 600 0
DWIDTH 10 0
BBX 8 16 2 0
BITMAP
44
2C
18
00
83
86
8C
98
B0
B0
F0
98
8C
84
86
83
ENDCHAR
STARTCHAR 01E9
ENCODING 489
SWIDTH 480 0
DWIDTH 8 0
BBX 9 17 -1 0
BITMAP
8400
6800
3000
0000
3000
3000
3000
3000
3180
3300
3600
3400
3C00
3600
3300
3180
3080
ENDCHAR
STARTCHAR 01EA
ENCODING 490
SWIDTH 780 0
DWIDTH 13 0
BBX 11 16 1 -4
BITMAP
1F00
71C0
60C0
C060
C060
C060
C060
C060
C060
4040
71C0
1F00
0400
0C00
0C00
0600
ENDCHAR
STARTCHAR 01EB
ENCODING 491
SWIDTH 600 0
DWIDTH 10 0
BBX 8 13 1 -4
BITMAP
3C
66
C3
C1
81
C1
C3
62
3C
08
10
10
0C
ENDCHAR
STARTCHAR 01EC
ENCODING 492
SWIDTH 780 0
DWIDTH 13 0
BBX 11 18 1 -4
BITMAP
1F00
0000
1F00
71C0
60C0
C060
C060
C060
C060
C060
C060
4040
71C0
1F00
0400
0400
0400
0600
ENDCHAR
STARTCHAR 01ED
ENCODING 493
SWIDTH 600 0
DWIDTH 10 0
BBX 8 15 1 -4
BITMAP
3E
00
3C
66
C3
C1
81
C1
C3
62
3C
08
10
10
0C
ENDCHAR
STARTCHAR 01EE
ENCODING 494
SWIDTH 540 0
DWIDTH 9 0
BBX 8 16 1 0
BITMAP
44
28
18
00
FE
06
0C
18
30
78
0E
03
03
03
06
FC
ENDCHAR
STARTCHAR 01EF
ENCODING 495
SWIDTH 480 0
DWIDTH 8 0
BBX 8 17 0 -4
BITMAP
46
3C
18
00
FE
06
0C
08
10
38
0E
02
03
03
02
86
FC
ENDCHAR
STARTCHAR 01F0
ENCODING 496
SWIDTH 240 0
DWIDTH 4 0
BBX 6 17 -1 -4
BITMAP
C4
78
30
00
30
30
30
30
30
30
30
30
30
30
30
30
E0
ENDCHAR
STARTCHAR 01F1
ENCODING 497
SWIDTH 1260 0
DWIDTH 21 0
BBX 19 12 2 0
BITMAP
FC1FE0
8E0060
8300C0
818080
818180
808300
808200
818600
818C00
830800
861800
FC1FE0
ENDCHAR
STARTCHAR 01F2
ENCODING 498
SWIDTH 1200 0
DWIDTH 20 0
BBX 17 12 2 0
BITMAP
FC0000
8E0000
830000
819F80
818180
808100
808300
818600
818400
830800
861800
FC1F80
ENDCHAR
STARTCHAR 01F3
ENCODING 499
SWIDTH 1080 0
DWIDTH 18 0
BBX 16 13 1 0
BITMAP
0300
0300
0300
0300
3F3F
6703
C302
C306
830C
8308
C318
4730
7D3F
ENDCHAR
STARTCHAR 01F4
ENCODING 500
SWIDTH 720 0
DWIDTH 12 0
BBX 10 16 1 0
BITMAP
0300
0200
0400
0000
1F80
3080
6000
C000
C000
C000
C3C0
C0C0
C0C0
60C0
70C0
1FC0
ENDCHAR
STARTCHAR 01F5
ENCODING 501
SWIDTH 600 0
DWIDTH 10 0
BBX 8 17 1 -4
BITMAP
04
0C
18
00
3D
67
C3
C3
83
83
C3
43
7F
03
03
46
7C
ENDCHAR
STARTCHAR 01F6
ENCODING 502
SWIDTH 900 0
DWIDTH 15 0
BBX 12 12 2 0
BITMAP
8300
8300
8300
8310
8310
FF10
8310
8310
8310
8310
8330
81E0
ENDCHAR
STARTCHAR 01F7
ENCODING 503
SWIDTH 660 0
DWIDTH 11 0
BBX 8 16 2 -4
BITMAP
BE
E7
C3
81
81
83
83
82
86
9C
B0
E0
80
80
80
80
ENDCHAR
STARTCHAR 01F8
ENCODING 504
SWIDTH 720 0
DWIDTH 12 0
BBX 9 16 2 0
BITMAP
3000
1800
0800
0000
C080
C080
E080
B080
B080
9880
8880
8C80
8680
8280
8380
8180
ENDCHAR
STARTCHAR 01F9
ENCODING 505
SWIDTH 600 0
DWIDTH 10 0
BBX 8 13 1 0
BITMAP
30
10
08
00
DE
E3
C3
C3
C3
C3
C3
C3
C3
ENDCHAR
STARTCHAR 01FA
ENCODING 506
SWIDTH 600 0
DWIDTH 10 0
BBX 10 16 0 0
BITMAP
0200
0400
0000
0E00
1200
0E00
0E00
0A00
1A00
1100
3100
3F80
7F80
60C0
40C0
C040
ENDCHAR
STARTCHAR 01FB
ENCODING 507
SWIDTH 540 0
DWIDTH 9 0
BBX 7 16 1 0
BITMAP
0C
10
10
2C
24
18
00
7C
46
02
02
7E
C2
86
C6
7A
ENDCHAR
STARTCHAR 01FC
ENCODING 508
SWIDTH 840 0
DWIDTH 14 0
BBX 14 16 0 0
BITMAP
0060
00C0
0080
0000
07FC
0580
0D80
0D80
0980
19F8
1180
3F80
2180
6180
4180
C1FC
ENDCHAR
STARTCHAR 01FD
ENCODING 509
SWIDTH 840 0
DWIDTH 14 0
BBX 13 13 1 0
BITMAP
0180
0300
0200
0000
7DE0
4730
0610
0618
7FF8
C600
8600
CF00
79F0
ENDCHAR
STARTCHAR 01FE
ENCODING 510
SWIDTH 780 0
DWIDTH 13 0
BBX 11 16 1 -1
BITMAP
0300
0200
0400
0000
1F40
7180
61C0
C160
C260
C660
CC60
C860
D060
7040
71C0
5F00
ENDCHAR
STARTCHAR 01FF
ENCODING 511
SWIDTH 600 0
DWIDTH 10 0
BBX 8 13 1 -1
BITMAP
04
0C
18
00
3F
66
C7
CD
99
D1
E3
62
7C
ENDCHAR
STARTCHAR 0200
ENCODING 512
SWIDTH 600 0
DWIDTH 10 0
BBX 10 16 0 0
BITMAP
2400
3600
1200
0000
0C00
0E00
0A00
1A00
1300
1100
3180
3F80
6080
40C0
4040
C040
ENDCHAR
STARTCHAR 0201
ENCODING 513
SWIDTH 540 0
DWIDTH 9 0
BBX 7 13 1 0
BITMAP
D8
48
24
00
7C
46
02
02
7E
C2
86
C6
7A
ENDCHAR
STARTCHAR 0202
ENCODING 514
SWIDTH 600 0
DWIDTH 10 0
BBX 10 15 0 0
BITMAP
1E00
1100
0000
0C00
0E00
0A00
1A00
1300
1100
3180
3F80
6080
40C0
4040
C040
ENDCHAR
STARTCHAR 0203
ENCODING 515
SWIDTH 540 0
DWIDTH 9 0
BBX 7 12 1 0
BITMAP
3C
44
00
7C
46
02
02
7E
C2
86
C6
7A
ENDCHAR
STARTCHAR 0204
ENCODING 516
SWIDTH 540 0
DWIDTH 9 0
BBX 7 16 1 0
BITMAP
D8
6C
24
00
7E
40
40
40
40
7E
40
40
40
40
40
7E
ENDCHAR
STARTCHAR 0205
ENCODING 517
SWIDTH 540 0
DWIDTH 9 0
BBX 8 13 1 0
BITMAP
D8
48
24
00
3C
46
C2
83
FF
80
C0
60
3E
ENDCHAR
STARTCHAR 0206
ENCODING 518
SWIDTH 540 0
DWIDTH 9 0
BBX 6 15 2 0
BITMAP
78
44
00
FC
80
80
80
80
FC
80
80
80
80
80
FC
ENDCHAR
STARTCHAR 0207
ENCODING 519
SWIDTH 540 0
DWIDTH 9 0
BBX 8 12 1 0
BITMAP
3C
44
00
3C
46
C2
83
FF
80
C0
60
3E
ENDCHAR
STARTCHAR 0208
ENCODING 520
SWIDTH 300 0
DWIDTH 5 0
BBX 6 16 -1 0
BITMAP
D8
48
24
00
3C
18
18
18
18
18
18
18
18
18
18
3C
ENDCHAR
STARTCHAR 0209
ENCODING 521
SWIDTH 240 0
DWIDTH 4 0
BBX 6 13 -2 0
BITMAP
D8
6C
24
00
18
18
18
18
18
18
18
18
18
ENDCHAR
STARTCHAR 020A
ENCODING 522
SWIDTH 300 0
DWIDTH 5 0
BBX 5 15 0 0
BITMAP
78
88
00
78
30
30
30
30
30
30
30
30
30
30
78
ENDCHAR
STARTCHAR 020B
ENCODING 523
SWIDTH 240 0
DWIDTH 4 0
BBX 5 12 0 0
BITMAP
F0
88
00
60
60
60
60
60
60
60
60
60
ENDCHAR
STARTCHAR 020C
ENCODING 524
SWIDTH 780 0
DWIDTH 13 0
BBX 11 16 1 0
BITMAP
3400
1200
0B00
0000
1F00
71C0
60C0
C060
C060
C060
C060
C060
C060
4040
71C0
1F00
ENDCHAR
STARTCHAR 020D
ENCODING 525
SWIDTH 600 0
DWIDTH 10 0
BBX 8 13 1 0
BITMAP
D8
6C
24
00
3C
66
C3
C1
81
C1
C3
62
3C
ENDCHAR
STARTCHAR 020E
ENCODING 526
SWIDTH 780 0
DWIDTH 13 0
BBX 11 15 1 0
BITMAP
1F00
1100
0000
1F00
71C0
60C0
C060
C060
C060
C060
C060
C060
4040
71C0
1F00
ENDCHAR
STARTCHAR 020F
ENCODING 527
SWIDTH 600 0
DWIDTH 10 0
BBX 8 12 1 0
BITMAP
3C
02
00
3C
66
C3
C1
81
C1
C3
62
3C
ENDCHAR
STARTCHAR 0210
ENCODING 528
SWIDTH 600 0
DWIDTH 10 0
BBX 8 16 2 0
BITMAP
B0
D8
48
00
F8
8E
86
82
82
86
F8
88
8C
86
86
83
ENDCHAR
STARTCHAR 0211
ENCODING 529
SWIDTH 360 0
DWIDTH 6 0
BBX 7 13 0 0
BITMAP
D8
68
24
00
6E
70
60
60
60
60
60
60
60
ENDCHAR
STARTCHAR 0212
ENCODING 530
SWIDTH 600 0
DWIDTH 10 0
BBX 8 15 2 0
BITMAP
78
44
00
F8
8E
86
82
82
86
F8
88
8C
86
86
83
ENDCHAR
STARTCHAR 0213
ENCODING 531
SWIDTH 360 0
DWIDTH 6 0
BBX 6 12 1 0
BITMAP
78
84
00
DC
E0
C0
C0
C0
C0
C0
C0
C0
ENDCHAR
STARTCHAR 0214
ENCODING 532
SWIDTH 720 0
DWIDTH 12 0
BBX 10 16 1 0
BITMAP
6C00
3600
1200
0000
C0C0
C0C0
C0C0
C0C0
C0C0
C0C0
C0C0
C0C0
40C0
4080
6180
3F00
ENDCHAR
STARTCHAR 0215
ENCODING 533
SWIDTH 600 0
DWIDTH 10 0
BBX 8 13 1 0
BITMAP
D8
6C
24
00
C3
C3
C3
C3
C3
C3
C3
47
7D
ENDCHAR
STARTCHAR 0216
ENCODING 534
SWIDTH 720 0
DWIDTH 12 0
BBX 10 15 1 0
BITMAP
1E00
1100
0000
C0C0
C0C0
C0C0
C0C0
C0C0
C0C0
C0C0
C0C0
40C0
4080
6180
3F00
ENDCHAR
STARTCHAR 0217
ENCODING 535
SWIDTH 600 0
DWIDTH 10 0
BBX 8 12 1 0
BITMAP
3C
22
00
C3
C3
C3
C3
C3
C3
C3
47
7D
ENDCHAR
STARTCHAR 0218
ENCODING 536
SWIDTH 540 0
DWIDTH 9 0
BBX 7 16 1 -4
BITMAP
7E
C2
C0
C0
C0
70
1C
06
02
02
86
FC
00
10
10
20
ENDCHAR
STARTCHAR 0219
ENCODING 537
SWIDTH 420 0
DWIDTH 7 0
BBX 6 13 1 -4
BITMAP
7C
C4
80
E0
38
0C
04
0C
F8
00
10
30
20
ENDCHAR
STARTCHAR 021A
ENCODING 538
SWIDTH 540 0
DWIDTH 9 0
BBX 9 16 0 -4
BITMAP
FF80
0800
0800
0800
0800
0800
0800
0800
0800
0800
0800
0800
0000
0C00
0800
0800
ENDCHAR
STARTCHAR 021B
ENCODING 539
SWIDTH 360 0
DWIDTH 6 0
BBX 6 15 0 -4
BITMAP
20
20
FC
20
20
20
20
20
20
20
3C
00
18
10
20
ENDCHAR
STARTCHAR 021C
ENCODING 540
SWIDTH 540 0
DWIDTH 9 0
BBX 8 15 1 -3
BITMAP
7C
C6
02
02
06
1C
3E
02
03
03
02
06
1C
F0
80
ENDCHAR
STARTCHAR 021D
ENCODING 541
SWIDTH 480 0
DWIDTH 8 0
BBX 7 13 0 -4
BITMAP
7C
46
02
06
0C
3C
02
02
02
06
0C
78
E0
ENDCHAR
STARTCHAR 021E
ENCODING 542
SWIDTH 720 0
DWIDTH 12 0
BBX 9 16 2 0
BITMAP
6200
3C00
1800
0000
8180
8180
8180
8180
8180
FF80
8180
8180
8180
8180
8180
8180
ENDCHAR
STARTCHAR 021F
ENCODING 543
SWIDTH 600 0
DWIDTH 10 0
BBX 10 17 -1 0
BITMAP
8400
6800
3000
0000
3000
3000
3000
3000
3780
38C0
30C0
30C0
30C0
30C0
30C0
30C0
30C0
ENDCHAR
STARTCHAR 0220
ENCODING 544
SWIDTH 720 0
DWIDTH 12 0
BBX 9 16 2 -4
BITMAP
BE00
E300
C180
8180
8180
8180
8180
8180
8180
8180
8180
8180
0180
0180
0180
0180
ENDCHAR
STARTCHAR 0221
ENCODING 545
SWIDTH 840 0
DWIDTH 14 0
BBX 13 15 1 -2
BITMAP
0300
0300
0300
0300
3F00
6700
C300
C300
8300
8330
C3C8
4788
7DF0
0180
0100
ENDCHAR
STARTCHAR 0222
ENCODING 546
SWIDTH 660 0
DWIDTH 11 0
BBX 9 12 1 0
BITMAP
4180
4180
4180
6300
3E00
7700
C180
C080
C080
C180
6380
3E00
ENDCHAR
STARTCHAR 0223
ENCODING 547
SWIDTH 540 0
DWIDTH 9 0
BBX 8 13 1 0
BITMAP
C3
C3
C3
C2
66
3C
46
C3
81
81
C3
42
3C
ENDCHAR
STARTCHAR 0224
ENCODING 548
SWIDTH 540 0
DWIDTH 9 0
BBX 8 15 1 -3
BITMAP
FF
03
06
04
0C
18
10
30
60
40
C0
FF
01
01
07
ENDCHAR
STARTCHAR 0225
ENCODING 549
SWIDTH 420 0
DWIDTH 7 0
BBX 6 12 1 -3
BITMAP
FC
0C
08
10
30
60
40
C0
FC
04
04
1C
ENDCHAR
STARTCHAR 0226
ENCODING 550
SWIDTH 600 0
DWIDTH 10 0
BBX 10 15 0 0
BITMAP
0C00
0400
0000
0C00
0E00
0A00
1A00
1300
1100
3180
3F80
6080
40C0
4040
C040
ENDCHAR
STARTCHAR 0227
ENCODING 551
SWIDTH 540 0
DWIDTH 9 0
BBX 7 12 1 0
BITMAP
18
10
00
7C
46
02
02
7E
C2
86
C6
7A
ENDCHAR
STARTCHAR 0228
ENCODING 552
SWIDTH 540 0
DWIDTH 9 0
BBX 6 16 2 -4
BITMAP
FC
80
80
80
80
FC
80
80
80
80
80
FC
20
30
18
70
ENDCHAR
STARTCHAR 0229
ENCODING 553
SWIDTH 540 0
DWIDTH 9 0
BBX 8 13 1 -4
BITMAP
3C
46
C2
83
FF
80
C0
60
3E
10
18
04
38
ENDCHAR
STARTCHAR 022A
ENCODING 554
SWIDTH 780 0
DWIDTH 13 0
BBX 11 17 1 0
BITMAP
1F00
0000
1100
1B00
0000
1F00
71C0
60C0
C060
C060
C060
C060
C060
C060
4040
71C0
1F00
ENDCHAR
STARTCHAR 022B
ENCODING 555
SWIDTH 600 0
DWIDTH 10 0
BBX 8 14 1 0
BITMAP
3E
00
24
24
00
3C
66
C3
C1
81
C1
C3
62
3C
ENDCHAR
STARTCHAR 022C
ENCODING 556
SWIDTH 780 0
DWIDTH 13 0
BBX 11 17 1 0
BITMAP
1F00
0000
1D00
1700
0000
1F00
71C0
60C0
C060
C060
C060
C060
C060
C060
4040
71C0
1F00
ENDCHAR
STARTCHAR 022D
ENCODING 557
SWIDTH 600 0
DWIDTH 10 0
BBX 8 14 1 0
BITMAP
3E
00
32
4C
00
3C
66
C3
C1
81
C1
C3
62
3C
ENDCHAR
STARTCHAR 022E
ENCODING 558
SWIDTH 780 0
DWIDTH 13 0
BBX 11 15 1 0
BITMAP
0400
0400
0000
1F00
71C0
60C0
C060
C060
C060
C060
C060
C060
4040
71C0
1F00
ENDCHAR
STARTCHAR 022F
ENCODING 559
SWIDTH 600 0
DWIDTH 10 0
BBX 8 12 1 0
BITMAP
18
00
00
3C
66
C3
C1
81
C1
C3
62
3C
ENDCHAR
STARTCHAR 0230
ENCODING 560
SWIDTH 780 0
DWIDTH 13 0
BBX 11 17 1 0
BITMAP
1F00
1F00
0400
0400
0000
1F00
71C0
60C0
C060
C060
C060
C060
C060
C060
4040
71C0
1F00
ENDCHAR
STARTCHAR 0231
ENCODING 561
SWIDTH 600 0
DWIDTH 10 0
BBX 8 14 1 0
BITMAP
3E
00
18
18
00
3C
66
C3
C1
81
C1
C3
62
3C
ENDCHAR
STARTCHAR 0232
ENCODING 562
SWIDTH 540 0
DWIDTH 9 0
BBX 9 14 0 0
BITMAP
3E00
0000
C080
4180
6100
2300
3600
1400
1C00
0800
0800
0800
0800
0800
ENDCHAR
STARTCHAR 0233
ENCODING 563
SWIDTH 480 0
DWIDTH 8 0
BBX 8 15 0 -4
BITMAP
3E
00
C1
43
63
62
26
34
14
1C
18
18
18
30
E0
ENDCHAR
STARTCHAR 0234
ENCODING 564
SWIDTH 360 0
DWIDTH 6 0
BBX 6 13 0 -1
BITMAP
60
60
60
60
60
60
60
60
60
78
64
64
FC
ENDCHAR
STARTCHAR 0235
ENCODING 565
SWIDTH 720 0
DWIDTH 12 0
BBX 11 9 1 -1
BITMAP
DE00
E300
C300
C300
C300
C3C0
C320
C320
C7E0
ENDCHAR
STARTCHAR 0236
ENCODING 566
SWIDTH 360 0
DWIDTH 6 0
BBX 6 11 0 -1
BITMAP
20
20
FC
20
20
20
20
38
24
64
FC
ENDCHAR
STARTCHAR 0237
ENCODING 567
SWIDTH 240 0
DWIDTH 4 0
BBX 4 13 -1 -4
BITMAP
30
30
30
30
30
30
30
30
30
30
30
30
E0
ENDCHAR
STARTCHAR 0238
ENCODING 568
SWIDTH 960 0
DWIDTH 16 0
BBX 14 13 1 0
BITMAP
0300
0300
0300
0300
3F78
678C
C30C
C304
8304
8304
C30C
478C
3CF8
ENDCHAR
STARTCHAR 0239
ENCODING 569
SWIDTH 960 0
DWIDTH 16 0
BBX 14 13 1 -4
BITMAP
3CF8
678C
C30C
C304
8304
8304
C30C
478C
7FF8
0300
0300
0300
0300
ENDCHAR
STARTCHAR 023A
ENCODING 570
SWIDTH 600 0
DWIDTH 10 0
BBX 10 14 0 -1
BITMAP
0100
0D00
0F00
0A00
1A00
1700
1500
3500
3F80
6880
48C0
5040
D040
1000
ENDCHAR
STARTCHAR 023B
ENCODING 571
SWIDTH 600 0
DWIDTH 10 0
BBX 9 14 1 -1
BITMAP
0100
1F80
3380
6200
C200
C600
C400
C400
C800
C800
6800
7080
1F80
1000
ENDCHAR
STARTCHAR 023C
ENCODING 572
SWIDTH 480 0
DWIDTH 8 0
BBX 7 16 1 -3
BITMAP
02
06
04
04
3C
68
C8
D0
90
90
E0
60
3C
40
40
C0
ENDCHAR
STARTCHAR 023D
ENCODING 573
SWIDTH 480 0
DWIDTH 8 0
BBX 8 12 0 0
BITMAP
20
20
20
20
20
FC
20
20
20
20
20
3F
ENDCHAR
STARTCHAR 023E
ENCODING 574
SWIDTH 540 0
DWIDTH 9 0
BBX 9 14 0 -1
BITMAP
0180
FF80
0B00
0A00
0A00
0C00
0C00
0800
0800
1800
1800
2800
2800
6000
ENDCHAR
STARTCHAR 023F
ENCODING 575
SWIDTH 420 0
DWIDTH 7 0
BBX 6 13 1 -4
BITMAP
7C
C4
80
E0
38
0C
04
0C
F8
20
20
30
1C
ENDCHAR
STARTCHAR 0240
ENCODING 576
SWIDTH 420 0
DWIDTH 7 0
BBX 7 13 1 -4
BITMAP
FC
0C
08
10
30
60
40
C0
E0
20
30
10
1E
ENDCHAR
STARTCHAR 0241
ENCODING 577
SWIDTH 420 0
DWIDTH 7 0
BBX 7 12 0 0
BITMAP
7C
CC
06
06
06
0C
38
30
30
30
30
30
ENDCHAR
STARTCHAR 0242
ENCODING 578
SWIDTH 420 0
DWIDTH 7 0
BBX 6 9 1 0
BITMAP
F0
08
0C
0C
08
18
70
60
60
ENDCHAR
STARTCHAR 0243
ENCODING 579
SWIDTH 600 0
DWIDTH 10 0
BBX 10 12 0 0
BITMAP
3F00
2380
2080
20C0
2080
3F00
2380
20C0
FCC0
20C0
2180
3F00
ENDCHAR
STARTCHAR 0244
ENCODING 580
SWIDTH 720 0
DWIDTH 12 0
BBX 12 12 0 0
BITMAP
6060
6060
6060
6060
6060
FFF0
6060
6060
2060
2040
30C0
1F80
ENDCHAR
STARTCHAR 0245
ENCODING 581
SWIDTH 600 0
DWIDTH 10 0
BBX 10 12 0 0
BITMAP
0C00
0C00
0E00
1200
1200
3300
2100
2100
6180
4080
40C0
C0C0
ENDCHAR
STARTCHAR 0246
ENCODING 582
SWIDTH 540 0
DWIDTH 9 0
BBX 6 14 2 -1
BITMAP
04
FC
88
88
88
90
FC
90
B0
A0
A0
A0
FC
40
ENDCHAR
STARTCHAR 0247
ENCODING 583
SWIDTH 540 0
DWIDTH 9 0
BBX 8 16 1 -3
BITMAP
02
06
04
04
3C
4E
CA
9B
FF
90
E0
60
3E
40
40
40
ENDCHAR
STARTCHAR 0248
ENCODING 584
SWIDTH 240 0
DWIDTH 4 0
BBX 5 15 -1 -3
BITMAP
10
10
10
10
10
78
78
10
10
10
10
10
30
30
E0
ENDCHAR
STARTCHAR 0249
ENCODING 585
SWIDTH 240 0
DWIDTH 4 0
BBX 5 16 -1 -4
BITMAP
30
10
00
30
30
30
30
78
30
30
30
30
30
30
30
E0
ENDCHAR
STARTCHAR 024A
ENCODING 586
SWIDTH 720 0
DWIDTH 12 0
BBX 12 16 1 -4
BITMAP
1E40
71C0
40C0
C040
C040
C040
C040
C040
C040
40C0
61C0
3F40
0040
0040
0060
0070
ENDCHAR
STARTCHAR 024B
ENCODING 587
SWIDTH 600 0
DWIDTH 10 0
BBX 9 13 1 -4
BITMAP
3D00
6700
C300
C300
8300
8300
C300
4700
7F00
0300
0300
0100
0180
ENDCHAR
STARTCHAR 024C
ENCODING 588
SWIDTH 600 0
DWIDTH 10 0
BBX 10 12 0 0
BITMAP
3E00
2380
2180
2080
2080
2180
FE00
2200
2300
2180
2180
20C0
ENDCHAR
STARTCHAR 024D
ENCODING 589
SWIDTH 360 0
DWIDTH 6 0
BBX 7 9 0 0
BITMAP
6E
70
60
60
F8
60
60
60
60
ENDCHAR
STARTCHAR 024E
ENCODING 590
SWIDTH 540 0
DWIDTH 9 0
BBX 9 12 0 0
BITMAP
C080
4180
FF80
FF80
3600
1400
1C00
0800
0800
0800
0800
0800
ENDCHAR
STARTCHAR 024F
ENCODING 591
SWIDTH 480 0
DWIDTH 8 0
BBX 8 13 0 -4
BITMAP
C1
43
63
FF
26
34
14
1C
18
18
18
30
E0
ENDCHAR
STARTCHAR 0250
ENCODING 592
SWIDTH 540 0
DWIDTH 9 0
BBX 8 9 1 0
BITMAP
DE
E2
C3
C2
FE
C0
C0
40
7C
ENDCHAR
STARTCHAR 0251
ENCODING 593
SWIDTH 600 0
DWIDTH 10 0
BBX 9 9 1 0
BITMAP
3D00
6700
C300
C300
8300
8300
C300
4700
7D80
ENDCHAR
STARTCHAR 0252
ENCODING 594
SWIDTH 600 0
DWIDTH 10 0
BBX 9 9 0 0
BITMAP
EF00
7180
6180
6080
6080
6080
6180
7180
6F00
ENDCHAR
STARTCHAR 0253
ENCODING 595
SWIDTH 600 0
DWIDTH 10 0
BBX 8 13 1 0
BITMAP
70
70
C0
C0
DE
E3
C3
C1
C1
C1
C1
E3
FE
ENDCHAR
STARTCHAR 0254
ENCODING 596
SWIDTH 480 0
DWIDTH 8 0
BBX 6 9 1 0
BITMAP
F0
18
0C
04
04
0C
0C
18
F0
ENDCHAR
STARTCHAR 0255
ENCODING 597
SWIDTH 480 0
DWIDTH 8 0
BBX 7 10 1 -1
BITMAP
3E
60
C0
C0
C0
FE
E2
62
BC
80
ENDCHAR
STARTCHAR 0256
ENCODING 598
SWIDTH 600 0
DWIDTH 10 0
BBX 10 17 1 -4
BITMAP
0300
0300
0300
0300
3F00
6700
C300
C300
8300
8300
C300
4700
7F00
0300
0300
0100
01C0
ENDCHAR
STARTCHAR 0257
ENCODING 599
SWIDTH 600 0
DWIDTH 10 0
BBX 9 13 1 0
BITMAP
0180
0180
0300
0300
3F00
6700
C300
C300
8300
8300
C300
4700
7D00
ENDCHAR
STARTCHAR 0258
ENCODING 600
SWIDTH 540 0
DWIDTH 9 0
BBX 7 9 1 0
BITMAP
7C
C6
C2
82
FE
02
02
86
FC
ENDCHAR
STARTCHAR 0259
ENCODING 601
SWIDTH 540 0
DWIDTH 9 0
BBX 7 9 1 0
BITMAP
FC
86
02
02
FE
82
C2
C6
7C
ENDCHAR
STARTCHAR 025A
ENCODING 602
SWIDTH 780 0
DWIDTH 13 0
BBX 12 9 1 0
BITMAP
FC00
8600
0200
0780
3ED0
C270
C200
C600
7C00
ENDCHAR
STARTCHAR 025B
ENCODING 603
SWIDTH 480 0
DWIDTH 8 0
BBX 6 9 1 0
BITMAP
7C
C4
80
C0
78
C0
80
C0
7C
ENDCHAR
STARTCHAR 025C
ENCODING 604
SWIDTH 480 0
DWIDTH 8 0
BBX 6 9 1 0
BITMAP
F8
8C
04
0C
78
04
04
0C
F8
ENDCHAR
STARTCHAR 025D
ENCODING 605
SWIDTH 660 0
DWIDTH 11 0
BBX 11 9 1 0
BITMAP
F800
8F00
0700
0DE0
78C0
0400
0400
0C00
F800
ENDCHAR
STARTCHAR 025E
ENCODING 606
SWIDTH 600 0
DWIDTH 10 0
BBX 8 9 1 0
BITMAP
3E
63
C1
C3
8E
C3
C1
63
3E
ENDCHAR
STARTCHAR 025F
ENCODING 607
SWIDTH 240 0
DWIDTH 4 0
BBX 5 13 -1 -4
BITMAP
30
30
30
30
78
30
30
30
30
30
30
30
E0
ENDCHAR
STARTCHAR 0260
ENCODING 608
SWIDTH 600 0
DWIDTH 10 0
BBX 9 17 1 -4
BITMAP
0180
0180
0300
0300
3F00
6700
C300
8300
8300
8300
C300
4300
7F00
0300
0300
4600
7C00
ENDCHAR
STARTCHAR 0261
ENCODING 609
SWIDTH 600 0
DWIDTH 10 0
BBX 8 13 1 -4
BITMAP
3D
67
C3
C3
83
83
C3
43
7F
03
03
46
7C
ENDCHAR
STARTCHAR 0262
ENCODING 610
SWIDTH 540 0
DWIDTH 9 0
BBX 7 9 1 0
BITMAP
3E
62
C0
C0
8E
82
C2
62
3E
ENDCHAR
STARTCHAR 0263
ENCODING 611
SWIDTH 480 0
DWIDTH 8 0
BBX 8 13 0 -4
BITMAP
C1
43
62
26
24
34
1C
18
18
14
34
34
18
ENDCHAR
STARTCHAR 0264
ENCODING 612
SWIDTH 480 0
DWIDTH 8 0
BBX 9 9 0 0
BITMAP
C180
6200
2600
1C00
1800
1C00
3400
3400
1C00
ENDCHAR
STARTCHAR 0265
ENCODING 613
SWIDTH 600 0
DWIDTH 10 0
BBX 8 13 1 -4
BITMAP
C3
C3
C3
C3
C3
C3
C3
47
7F
03
03
03
03
ENDCHAR
STARTCHAR 0266
ENCODING 614
SWIDTH 600 0
DWIDTH 10 0
BBX 8 13 1 0
BITMAP
70
70
C0
C0
DE
E3
C3
C3
C3
C3
C3
C3
C3
ENDCHAR
STARTCHAR 0267
ENCODING 615
SWIDTH 600 0
DWIDTH 10 0
BBX 8 17 1 -4
BITMAP
70
70
C0
C0
DE
E3
C3
C3
C3
C3
C3
C3
C3
03
03
03
06
ENDCHAR
STARTCHAR 0268
ENCODING 616
SWIDTH 240 0
DWIDTH 4 0
BBX 4 12 0 0
BITMAP
60
20
00
60
60
60
60
F0
60
60
60
60
ENDCHAR
STARTCHAR 0269
ENCODING 617
SWIDTH 300 0
DWIDTH 5 0
BBX 4 9 1 0
BITMAP
C0
C0
C0
C0
C0
C0
C0
C0
70
ENDCHAR
STARTCHAR 026A
ENCODING 618
SWIDTH 300 0
DWIDTH 5 0
BBX 4 9 1 0
BITMAP
F0
40
40
40
40
40
40
40
F0
ENDCHAR
STARTCHAR 026B
ENCODING 619
SWIDTH 360 0
DWIDTH 6 0
BBX 6 13 0 0
BITMAP
30
30
30
30
30
34
FC
B8
30
30
30
30
30
ENDCHAR
STARTCHAR 026C
ENCODING 620
SWIDTH 300 0
DWIDTH 5 0
BBX 6 13 0 0
BITMAP
30
30
30
30
30
F0
B0
FC
30
30
30
30
30
ENDCHAR
STARTCHAR 026D
ENCODING 621
SWIDTH 240 0
DWIDTH 4 0
BBX 4 17 1 -4
BITMAP
C0
C0
C0
C0
C0
C0
C0
C0
C0
C0
C0
C0
C0
C0
C0
40
70
ENDCHAR
STARTCHAR 026E
ENCODING 622
SWIDTH 600 0
DWIDTH 10 0
BBX 9 17 1 -4
BITMAP
C000
C000
C000
C000
FF80
C180
C300
C600
CC00
CE00
C380
C080
C080
0080
0080
2380
3E00
ENDCHAR
STARTCHAR 026F
ENCODING 623
SWIDTH 900 0
DWIDTH 15 0
BBX 13 9 1 0
BITMAP
C208
C208
C208
C208
C208
C208
C318
4718
7DE8
ENDCHAR
STARTCHAR 0270
ENCODING 624
SWIDTH 900 0
DWIDTH 15 0
BBX 13 13 1 -4
BITMAP
C208
C208
C208
C208
C208
C208
C318
4718
7DE8
0008
0008
0008
0008
ENDCHAR
STARTCHAR 0271
ENCODING 625
SWIDTH 900 0
DWIDTH 15 0
BBX 13 13 1 -4
BITMAP
DEF0
E798
C308
C308
C308
C308
C308
C308
C308
0008
0008
0008
0038
ENDCHAR
STARTCHAR 0272
ENCODING 626
SWIDTH 600 0
DWIDTH 10 0
BBX 9 13 0 -4
BITMAP
6F00
7180
6180
6180
6180
6180
6180
6180
6180
6000
6000
6000
C000
ENDCHAR
STARTCHAR 0273
ENCODING 627
SWIDTH 600 0
DWIDTH 10 0
BBX 10 13 1 -4
BITMAP
DE00
E300
C300
C300
C300
C300
C300
C300
C300
0300
0100
0100
01C0
ENDCHAR
STARTCHAR 0274
ENCODING 628
SWIDTH 600 0
DWIDTH 10 0
BBX 8 9 1 0
BITMAP
C1
E1
F1
D1
D9
CD
C5
C7
C3
ENDCHAR
STARTCHAR 0275
ENCODING 629
SWIDTH 600 0
DWIDTH 10 0
BBX 8 9 1 0
BITMAP
3C
62
C3
81
FF
81
C3
42
3C
ENDCHAR
STARTCHAR 0276
ENCODING 630
SWIDTH 840 0
DWIDTH 14 0
BBX 13 9 1 0
BITMAP
3DF8
6700
C300
C100
81F0
C100
C300
6300
3DF8
ENDCHAR
STARTCHAR 0277
ENCODING 631
SWIDTH 780 0
DWIDTH 13 0
BBX 11 9 1 0
BITMAP
1F00
60C0
4060
C060
8420
8420
C460
CE60
7BC0
ENDCHAR
STARTCHAR 0278
ENCODING 632
SWIDTH 720 0
DWIDTH 12 0
BBX 10 17 1 -4
BITMAP
0C00
0C00
0C00
0C00
3F00
6D80
CCC0
CC40
8C40
CC40
CCC0
6D80
3F00
0C00
0C00
0C00
0C00
ENDCHAR
STARTCHAR 0279
ENCODING 633
SWIDTH 360 0
DWIDTH 6 0
BBX 5 9 0 0
BITMAP
08
08
08
08
08
08
08
18
E8
ENDCHAR
STARTCHAR 027A
ENCODING 634
SWIDTH 360 0
DWIDTH 6 0
BBX 5 13 0 0
BITMAP
08
08
08
08
08
08
08
08
08
08
08
18
E8
ENDCHAR
STARTCHAR 027B
ENCODING 635
SWIDTH 360 0
DWIDTH 6 0
BBX 7 13 0 -4
BITMAP
08
08
08
08
08
08
08
18
E8
08
08
0C
06
ENDCHAR
STARTCHAR 027C
ENCODING 636
SWIDTH 360 0
DWIDTH 6 0
BBX 6 13 1 -4
BITMAP
DC
E0
C0
C0
C0
C0
C0
C0
C0
C0
C0
C0
C0
ENDCHAR
STARTCHAR 027D
ENCODING 637
SWIDTH 360 0
DWIDTH 6 0
BBX 6 13 1 -4
BITMAP
DC
E0
C0
C0
C0
C0
C0
C0
C0
C0
C0
40
70
ENDCHAR
STARTCHAR 027E
ENCODING 638
SWIDTH 300 0
DWIDTH 5 0
BBX 4 9 1 0
BITMAP
70
C0
C0
C0
C0
C0
C0
C0
C0
ENDCHAR
STARTCHAR 027F
ENCODING 639
SWIDTH 300 0
DWIDTH 5 0
BBX 4 13 0 -4
BITMAP
F0
10
10
10
10
10
10
10
10
10
10
10
10
ENDCHAR
STARTCHAR 0280
ENCODING 640
SWIDTH 540 0
DWIDTH 9 0
BBX 8 9 1 0
BITMAP
FC
C6
C3
C2
FE
CC
C4
C6
C3
ENDCHAR
STARTCHAR 0281
ENCODING 641
SWIDTH 540 0
DWIDTH 9 0
BBX 8 9 1 0
BITMAP
C3
C6
C4
CC
FE
C2
C3
C2
FC
ENDCHAR
STARTCHAR 0282
ENCODING 642
SWIDTH 420 0
DWIDTH 7 0
BBX 6 12 1 -3
BITMAP
7C
C4
80
E0
38
0C
04
0C
F8
80
C0
F0
ENDCHAR
STARTCHAR 0283
ENCODING 643
SWIDTH 240 0
DWIDTH 4 0
BBX 5 17 0 -4
BITMAP
18
38
60
60
60
60
60
60
60
60
60
60
60
60
60
60
C0
ENDCHAR
STARTCHAR 0284
ENCODING 644
SWIDTH 240 0
DWIDTH 4 0
BBX 5 17 0 -4
BITMAP
18
38
60
60
60
60
60
60
F0
60
60
60
60
60
60
60
C0
ENDCHAR
STARTCHAR 0285
ENCODING 645
SWIDTH 240 0
DWIDTH 4 0
BBX 5 13 0 -4
BITMAP
C0
60
60
60
60
60
60
60
60
60
60
20
38
ENDCHAR
STARTCHAR 0286
ENCODING 646
SWIDTH 240 0
DWIDTH 4 0
BBX 7 17 -2 -4
BITMAP
06
0E
18
18
18
18
18
18
18
18
18
18
18
7C
D8
D8
70
ENDCHAR
STARTCHAR 0287
ENCODING 647
SWIDTH 360 0
DWIDTH 6 0
BBX 6 11 0 -2
BITMAP
F0
10
10
10
10
10
10
10
FC
10
10
ENDCHAR
STARTCHAR 0288
ENCODING 648
SWIDTH 360 0
DWIDTH 6 0
BBX 6 15 0 -4
BITMAP
20
20
FC
20
20
20
20
20
20
20
20
20
20
20
3C
ENDCHAR
STARTCHAR 0289
ENCODING 649
SWIDTH 600 0
DWIDTH 10 0
BBX 10 9 0 0
BITMAP
6180
6180
6180
6180
FFC0
6180
6180
2380
3E80
ENDCHAR
STARTCHAR 028A
ENCODING 650
SWIDTH 600 0
DWIDTH 10 0
BBX 10 9 0 0
BITMAP
F3C0
3300
2180
6180
4080
4080
6180
2180
1F00
ENDCHAR
STARTCHAR 028B
ENCODING 651
SWIDTH 600 0
DWIDTH 10 0
BBX 8 9 1 0
BITMAP
CE
C3
C3
C3
C3
C3
C3
62
3E
ENDCHAR
STARTCHAR 028C
ENCODING 652
SWIDTH 480 0
DWIDTH 8 0
BBX 8 9 0 0
BITMAP
18
1C
34
34
26
62
43
43
C1
ENDCHAR
STARTCHAR 028D
ENCODING 653
SWIDTH 780 0
DWIDTH 13 0
BBX 13 9 0 0
BITMAP
1860
38E0
28A0
28A0
6DB0
6530
4510
4718
C218
ENDCHAR
STARTCHAR 028E
ENCODING 654
SWIDTH 480 0
DWIDTH 8 0
BBX 8 13 0 0
BITMAP
07
04
0C
08
18
18
3C
34
26
62
42
43
C1
ENDCHAR
STARTCHAR 028F
ENCODING 655
SWIDTH 420 0
DWIDTH 7 0
BBX 8 9 0 0
BITMAP
C3
46
24
3C
18
18
18
18
18
ENDCHAR
STARTCHAR 0290
ENCODING 656
SWIDTH 420 0
DWIDTH 7 0
BBX 8 13 1 -4
BITMAP
FC
0C
08
10
30
60
40
C0
FC
04
04
04
07
ENDCHAR
STARTCHAR 0291
ENCODING 657
SWIDTH 540 0
DWIDTH 9 0
BBX 8 10 1 -1
BITMAP
FC
0C
08
10
30
66
4B
D3
FE
20
ENDCHAR
STARTCHAR 0292
ENCODING 658
SWIDTH 480 0
DWIDTH 8 0
BBX 8 13 0 -4
BITMAP
FE
06
0C
08
10
38
0E
02
03
03
02
86
FC
ENDCHAR
STARTCHAR 0293
ENCODING 659
SWIDTH 480 0
DWIDTH 8 0
BBX 8 13 0 -4
BITMAP
FE
06
0C
08
10
38
0E
02
03
FF
86
C7
79
ENDCHAR
STARTCHAR 0294
ENCODING 660
SWIDTH 420 0
DWIDTH 7 0
BBX 7 13 0 0
BITMAP
38
EC
06
06
06
0C
18
30
30
30
30
30
30
ENDCHAR
STARTCHAR 0295
ENCODING 661
SWIDTH 420 0
DWIDTH 7 0
BBX 7 13 0 0
BITMAP
3C
7E
40
C0
40
60
30
18
08
08
08
08
08
ENDCHAR
STARTCHAR 0296
ENCODING 662
SWIDTH 420 0
DWIDTH 7 0
BBX 6 13 1 0
BITMAP
60
60
60
60
60
60
70
18
08
0C
0C
08
F8
ENDCHAR
STARTCHAR 0297
ENCODING 663
SWIDTH 420 0
DWIDTH 7 0
BBX 6 13 1 -4
BITMAP
3C
60
40
C0
C0
80
80
80
C0
C0
C0
60
3C
ENDCHAR
STARTCHAR 0298
ENCODING 664
SWIDTH 780 0
DWIDTH 13 0
BBX 11 12 1 0
BITMAP
1F00
71C0
60C0
C060
C060
C460
C660
C060
C060
4040
71C0
1F00
ENDCHAR
STARTCHAR 0299
ENCODING 665
SWIDTH 540 0
DWIDTH 9 0
BBX 8 9 1 0
BITMAP
FE
C2
C3
C6
FE
C3
C3
C3
FE
ENDCHAR
STARTCHAR 029A
ENCODING 666
SWIDTH 600 0
DWIDTH 10 0
BBX 8 9 1 0
BITMAP
7C
C6
83
C3
71
C3
83
C6
7C
ENDCHAR
STARTCHAR 029B
ENCODING 667
SWIDTH 540 0
DWIDTH 9 0
BBX 9 13 1 0
BITMAP
0180
0380
0200
0200
3E00
6200
C000
C000
8E00
8200
C200
6200
3E00
ENDCHAR
STARTCHAR 029C
ENCODING 668
SWIDTH 600 0
DWIDTH 10 0
BBX 8 9 1 0
BITMAP
C1
C1
C1
C1
FF
C1
C1
C1
C1
ENDCHAR
STARTCHAR 029D
ENCODING 669
SWIDTH 240 0
DWIDTH 4 0
BBX 6 16 -2 -4
BITMAP
18
08
00
18
18
18
18
18
18
18
18
18
7C
D8
D8
70
ENDCHAR
STARTCHAR 029E
ENCODING 670
SWIDTH 480 0
DWIDTH 8 0
BBX 7 13 0 -4
BITMAP
C2
62
32
12
1E
0A
12
32
62
02
02
02
02
ENDCHAR
STARTCHAR 029F
ENCODING 671
SWIDTH 420 0
DWIDTH 7 0
BBX 6 9 1 0
BITMAP
C0
C0
C0
C0
C0
C0
C0
C0
FC
ENDCHAR
STARTCHAR 02A0
ENCODING 672
SWIDTH 600 0
DWIDTH 10 0
BBX 10 17 1 -4
BITMAP
01C0
0140
0300
0300
3F00
6700
C300
C300
8300
8300
C300
4700
7F00
0300
0300
0300
0300
ENDCHAR
STARTCHAR 02A1
ENCODING 673
SWIDTH 420 0
DWIDTH 7 0
BBX 7 13 0 0
BITMAP
38
EC
06
06
06
0C
18
30
30
7C
30
30
30
ENDCHAR
STARTCHAR 02A2
ENCODING 674
SWIDTH 420 0
DWIDTH 7 0
BBX 7 13 0 0
BITMAP
3C
7E
40
C0
40
60
30
18
18
3C
18
18
18
ENDCHAR
STARTCHAR 02A3
ENCODING 675
SWIDTH 960 0
DWIDTH 16 0
BBX 14 13 1 0
BITMAP
0300
0300
0300
0300
3FFC
670C
C308
C318
8330
8320
C340
47C0
7DFC
ENDCHAR
STARTCHAR 02A4
ENCODING 676
SWIDTH 960 0
DWIDTH 16 0
BBX 15 17 1 -4
BITMAP
0300
0300
0300
0300
3FFC
670C
C308
C310
8320
8370
C31C
4706
7D06
0006
0006
010C
01F8
ENDCHAR
STARTCHAR 02A5
ENCODING 677
SWIDTH 1020 0
DWIDTH 17 0
BBX 16 14 1 -1
BITMAP
0300
0300
0300
0300
3FFC
670C
C308
C318
8330
8326
C34B
47D3
7DFE
0020
ENDCHAR
STARTCHAR 02A6
ENCODING 678
SWIDTH 720 0
DWIDTH 12 0
BBX 12 11 0 0
BITMAP
2000
2000
FFF0
2200
2200
2300
21E0
2030
2030
2030
3FE0
ENDCHAR
STARTCHAR 02A7
ENCODING 679
SWIDTH 480 0
DWIDTH 8 0
BBX 9 17 0 -4
BITMAP
0180
0300
2200
2200
FE00
2200
2200
2200
2200
2200
2200
2200
3E00
0200
0200
0600
0C00
ENDCHAR
STARTCHAR 02A8
ENCODING 680
SWIDTH 840 0
DWIDTH 14 0
BBX 14 11 0 0
BITMAP
2000
2000
FCF8
2188
2100
2100
2100
2178
218C
238C
3CF8
ENDCHAR
STARTCHAR 02A9
ENCODING 681
SWIDTH 840 0
DWIDTH 14 0
BBX 13 17 0 -4
BITMAP
1C00
3400
2000
2000
FEF0
2718
2618
2608
2608
2608
2608
2608
2608
0008
0008
0018
0070
ENDCHAR
STARTCHAR 02AA
ENCODING 682
SWIDTH 660 0
DWIDTH 11 0
BBX 9 13 1 0
BITMAP
C000
C000
C000
C000
CF80
D880
D000
DC00
C700
C180
C080
E180
FF00
ENDCHAR
STARTCHAR 02AB
ENCODING 683
SWIDTH 600 0
DWIDTH 10 0
BBX 8 13 1 0
BITMAP
C0
C0
C0
C0
FF
C3
C2
C6
CC
C8
D8
F0
FF
ENDCHAR
STARTCHAR 02AC
ENCODING 684
SWIDTH 480 0
DWIDTH 8 0
BBX 8 12 0 0
BITMAP
89
D9
55
56
66
22
89
99
59
57
66
66
ENDCHAR
STARTCHAR 02AD
ENCODING 685
SWIDTH 540 0
DWIDTH 9 0
BBX 7 12 1 0
BITMAP
FE
C2
C2
C2
00
00
00
00
FE
C2
C2
C2
ENDCHAR
STARTCHAR 02AE
ENCODING 686
SWIDTH 600 0
DWIDTH 10 0
BBX 9 13 0 -4
BITMAP
C080
6080
6080
6080
6080
6080
2180
3180
3E80
0080
0080
0080
0080
ENDCHAR
STARTCHAR 02AF
ENCODING 687
SWIDTH 600 0
DWIDTH 10 0
BBX 11 13 0 -4
BITMAP
C080
6080
6080
6080
6080
6080
2180
3180
3E80
0080
0080
0080
00E0
ENDCHAR
STARTCHAR 02B0
ENCODING 688
SWIDTH 360 0
DWIDTH 6 0
BBX 5 7 1 5
BITMAP
80
80
F8
88
88
88
88
ENDCHAR
STARTCHAR 02B1
ENCODING 689
SWIDTH 360 0
DWIDTH 6 0
BBX 5 7 1 5
BITMAP
80
80
F8
88
88
88
88
ENDCHAR
STARTCHAR 02B2
ENCODING 690
SWIDTH 120 0
DWIDTH 2 0
BBX 3 10 -1 2
BITMAP
20
00
20
20
20
20
20
20
20
C0
ENDCHAR
STARTCHAR 02B3
ENCODING 691
SWIDTH 240 0
DWIDTH 4 0
BBX 3 5 1 5
BITMAP
E0
80
80
80
80
ENDCHAR
STARTCHAR 02B4
ENCODING 692
SWIDTH 240 0
DWIDTH 4 0
BBX 4 5 0 5
BITMAP
10
10
10
30
D0
ENDCHAR
STARTCHAR 02B5
ENCODING 693
SWIDTH 240 0
DWIDTH 4 0
BBX 5 8 0 2
BITMAP
10
10
10
30
D0
10
10
18
ENDCHAR
STARTCHAR 02B6
ENCODING 694
SWIDTH 360 0
DWIDTH 6 0
BBX 5 5 1 5
BITMAP
90
90
F0
88
F0
ENDCHAR
STARTCHAR 02B7
ENCODING 695
SWIDTH 480 0
DWIDTH 8 0
BBX 8 5 0 5
BITMAP
89
59
55
66
26
ENDCHAR
STARTCHAR 02B8
ENCODING 696
SWIDTH 300 0
DWIDTH 5 0
BBX 5 8 0 2
BITMAP
88
48
50
30
30
20
20
C0
ENDCHAR
STARTCHAR 02B9
ENCODING 697
SWIDTH 120 0
DWIDTH 2 0
BBX 3 4 0 8
BITMAP
60
40
40
C0
ENDCHAR
STARTCHAR 02BA
ENCODING 698
SWIDTH 300 0
DWIDTH 5 0
BBX 6 4 0 8
BITMAP
6C
48
48
D8
ENDCHAR
STARTCHAR 02BB
ENCODING 699
SWIDTH 120 0
DWIDTH 2 0
BBX 3 4 0 8
BITMAP
60
40
40
C0
ENDCHAR
STARTCHAR 02BC
ENCODING 700
SWIDTH 120 0
DWIDTH 2 0
BBX 3 4 0 8
BITMAP
60
40
40
C0
ENDCHAR
STARTCHAR 02BD
ENCODING 701
SWIDTH 120 0
DWIDTH 2 0
BBX 3 4 0 8
BITMAP
C0
40
40
60
ENDCHAR
STARTCHAR 02BE
ENCODING 702
SWIDTH 120 0
DWIDTH 2 0
BBX 2 3 0 10
BITMAP
C0
40
40
ENDCHAR
STARTCHAR 02BF
ENCODING 703
SWIDTH 120 0
DWIDTH 2 0
BBX 2 3 0 10
BITMAP
40
80
40
ENDCHAR
STARTCHAR 02C0
ENCODING 704
SWIDTH 240 0
DWIDTH 4 0
BBX 4 5 0 8
BITMAP
60
90
10
30
40
ENDCHAR
STARTCHAR 02C1
ENCODING 705
SWIDTH 240 0
DWIDTH 4 0
BBX 4 5 0 8
BITMAP
70
C0
80
40
20
ENDCHAR
STARTCHAR 02C2
ENCODING 706
SWIDTH 240 0
DWIDTH 4 0
BBX 3 4 1 9
BITMAP
20
C0
80
60
ENDCHAR
STARTCHAR 02C3
ENCODING 707
SWIDTH 240 0
DWIDTH 4 0
BBX 4 4 0 9
BITMAP
C0
30
30
C0
ENDCHAR
STARTCHAR 02C4
ENCODING 708
SWIDTH 240 0
DWIDTH 4 0
BBX 4 4 0 9
BITMAP
20
60
50
80
ENDCHAR
STARTCHAR 02C5
ENCODING 709
SWIDTH 240 0
DWIDTH 4 0
BBX 4 4 0 9
BITMAP
90
50
60
20
ENDCHAR
STARTCHAR 02C6
ENCODING 710
SWIDTH 360 0
DWIDTH 6 0
BBX 5 3 1 10
BITMAP
20
50
88
ENDCHAR
STARTCHAR 02C7
ENCODING 711
SWIDTH 360 0
DWIDTH 6 0
BBX 5 3 1 10
BITMAP
88
50
60
ENDCHAR
STARTCHAR 02C8
ENCODING 712
SWIDTH 120 0
DWIDTH 2 0
BBX 1 5 1 8
BITMAP
80
80
80
80
80
ENDCHAR
STARTCHAR 02C9
ENCODING 713
SWIDTH 360 0
DWIDTH 6 0
BBX 5 1 1 10
BITMAP
F8
ENDCHAR
STARTCHAR 02CA
ENCODING 714
SWIDTH 240 0
DWIDTH 4 0
BBX 3 3 1 10
BITMAP
60
40
80
ENDCHAR
STARTCHAR 02CB
ENCODING 715
SWIDTH 240 0
DWIDTH 4 0
BBX 3 3 1 10
BITMAP
C0
40
20
ENDCHAR
STARTCHAR 02CC
ENCODING 716
SWIDTH 120 0
DWIDTH 2 0
BBX 1 4 1 -3
BITMAP
80
80
80
80
ENDCHAR
STARTCHAR 02CD
ENCODING 717
SWIDTH 360 0
DWIDTH 6 0
BBX 5 1 1 -2
BITMAP
F8
ENDCHAR
STARTCHAR 02CE
ENCODING 718
SWIDTH 240 0
DWIDTH 4 0
BBX 3 2 1 -3
BITMAP
C0
60
ENDCHAR
STARTCHAR 02CF
ENCODING 719
SWIDTH 240 0
DWIDTH 4 0
BBX 3 2 1 -3
BITMAP
60
C0
ENDCHAR
STARTCHAR 02D0
ENCODING 720
SWIDTH 300 0
DWIDTH 5 0
BBX 3 9 1 0
BITMAP
E0
40
00
00
00
00
00
40
60
ENDCHAR
STARTCHAR 02D1
ENCODING 721
SWIDTH 300 0
DWIDTH 5 0
BBX 3 2 1 7
BITMAP
E0
40
ENDCHAR
STARTCHAR 02D2
ENCODING 722
SWIDTH 180 0
DWIDTH 3 0
BBX 1 4 1 3
BITMAP
80
80
80
80
ENDCHAR
STARTCHAR 02D3
ENCODING 723
SWIDTH 180 0
DWIDTH 3 0
BBX 1 4 1 3
BITMAP
80
80
80
80
ENDCHAR
STARTCHAR 02D4
ENCODING 724
SWIDTH 240 0
DWIDTH 4 0
BBX 4 3 0 4
BITMAP
20
20
F0
ENDCHAR
STARTCHAR 02D5
ENCODING 725
SWIDTH 240 0
DWIDTH 4 0
BBX 4 3 0 4
BITMAP
F0
20
20
ENDCHAR
STARTCHAR 02D6
ENCODING 726
SWIDTH 240 0
DWIDTH 4 0
BBX 4 4 0 3
BITMAP
20
F0
20
20
ENDCHAR
STARTCHAR 02D7
ENCODING 727
SWIDTH 240 0
DWIDTH 4 0
BBX 4 1 0 5
BITMAP
F0
ENDCHAR
STARTCHAR 02D8
ENCODING 728
SWIDTH 360 0
DWIDTH 6 0
BBX 5 2 1 10
BITMAP
98
70
ENDCHAR
STARTCHAR 02D9
ENCODING 729
SWIDTH 180 0
DWIDTH 3 0
BBX 1 2 1 10
BITMAP
80
80
ENDCHAR
STARTCHAR 02DA
ENCODING 730
SWIDTH 300 0
DWIDTH 5 0
BBX 3 4 1 10
BITMAP
40
A0
A0
E0
ENDCHAR
STARTCHAR 02DB
ENCODING 731
SWIDTH 240 0
DWIDTH 4 0
BBX 2 4 1 -4
BITMAP
C0
80
80
C0
ENDCHAR
STARTCHAR 02DC
ENCODING 732
SWIDTH 420 0
DWIDTH 7 0
BBX 6 2 1 10
BITMAP
E4
98
ENDCHAR
STARTCHAR 02DD
ENCODING 733
SWIDTH 420 0
DWIDTH 7 0
BBX 6 3 1 10
BITMAP
6C
D8
90
ENDCHAR
STARTCHAR 02DE
ENCODING 734
SWIDTH 240 0
DWIDTH 4 0
BBX 6 3 -2 3
BITMAP
E0
30
1C
ENDCHAR
STARTCHAR 02DF
ENCODING 735
SWIDTH 240 0
DWIDTH 4 0
BBX 3 3 1 10
BITMAP
A0
C0
E0
ENDCHAR
STARTCHAR 02E0
ENCODING 736
SWIDTH 300 0
DWIDTH 5 0
BBX 5 8 0 2
BITMAP
88
48
50
30
20
30
50
20
ENDCHAR
STARTCHAR 02E1
ENCODING 737
SWIDTH 120 0
DWIDTH 2 0
BBX 1 7 1 5
BITMAP
80
80
80
80
80
80
80
ENDCHAR
STARTCHAR 02E2
ENCODING 738
SWIDTH 300 0
DWIDTH 5 0
BBX 4 5 1 5
BITMAP
E0
80
60
10
F0
ENDCHAR
STARTCHAR 02E3
ENCODING 739
SWIDTH 300 0
DWIDTH 5 0
BBX 4 5 1 5
BITMAP
90
60
40
60
90
ENDCHAR
STARTCHAR 02E4
ENCODING 740
SWIDTH 240 0
DWIDTH 4 0
BBX 4 7 0 5
BITMAP
70
80
40
60
20
20
20
ENDCHAR
STARTCHAR 02E5
ENCODING 741
SWIDTH 360 0
DWIDTH 6 0
BBX 5 11 1 0
BITMAP
F8
08
08
08
08
08
08
08
08
08
08
ENDCHAR
STARTCHAR 02E6
ENCODING 742
SWIDTH 360 0
DWIDTH 6 0
BBX 5 11 1 0
BITMAP
08
08
F8
08
08
08
08
08
08
08
08
ENDCHAR
STARTCHAR 02E7
ENCODING 743
SWIDTH 360 0
DWIDTH 6 0
BBX 5 11 1 0
BITMAP
08
08
08
08
F8
F8
08
08
08
08
08
ENDCHAR
STARTCHAR 02E8
ENCODING 744
SWIDTH 360 0
DWIDTH 6 0
BBX 5 11 1 0
BITMAP
08
08
08
08
08
08
08
F8
08
08
08
ENDCHAR
STARTCHAR 02E9
ENCODING 745
SWIDTH 360 0
DWIDTH 6 0
BBX 5 11 1 0
BITMAP
08
08
08
08
08
08
08
08
08
08
F8
ENDCHAR
STARTCHAR 02EA
ENCODING 746
SWIDTH 360 0
DWIDTH 6 0
BBX 5 6 1 3
BITMAP
80
80
80
80
80
F8
ENDCHAR
STARTCHAR 02EB
ENCODING 747
SWIDTH 360 0
DWIDTH 6 0
BBX 5 6 1 3
BITMAP
80
80
80
F8
80
80
ENDCHAR
STARTCHAR 02EC
ENCODING 748
SWIDTH 360 0
DWIDTH 6 0
BBX 5 2 1 -3
BITMAP
D8
70
ENDCHAR
STARTCHAR 02ED
ENCODING 749
SWIDTH 480 0
DWIDTH 8 0
BBX 7 3 1 10
BITMAP
FE
00
FE
ENDCHAR
STARTCHAR 02EE
ENCODING 750
SWIDTH 300 0
DWIDTH 5 0
BBX 6 4 0 8
BITMAP
6C
48
48
D8
ENDCHAR
STARTCHAR 02EF
ENCODING 751
SWIDTH 360 0
DWIDTH 6 0
BBX 5 4 1 -4
BITMAP
88
D0
70
20
ENDCHAR
STARTCHAR 02F0
ENCODING 752
SWIDTH 360 0
DWIDTH 6 0
BBX 5 4 1 -4
BITMAP
20
70
50
88
ENDCHAR
STARTCHAR 02F1
ENCODING 753
SWIDTH 300 0
DWIDTH 5 0
BBX 4 4 1 -4
BITMAP
30
C0
E0
10
ENDCHAR
STARTCHAR 02F2
ENCODING 754
SWIDTH 300 0
DWIDTH 5 0
BBX 4 4 1 -4
BITMAP
C0
30
60
80
ENDCHAR
STARTCHAR 02F3
ENCODING 755
SWIDTH 300 0
DWIDTH 5 0
BBX 4 4 1 -5
BITMAP
E0
90
B0
40
ENDCHAR
STARTCHAR 02F4
ENCODING 756
SWIDTH 240 0
DWIDTH 4 0
BBX 3 2 1 5
BITMAP
C0
60
ENDCHAR
STARTCHAR 02F5
ENCODING 757
SWIDTH 420 0
DWIDTH 7 0
BBX 5 2 1 5
BITMAP
D8
48
ENDCHAR
STARTCHAR 02F6
ENCODING 758
SWIDTH 420 0
DWIDTH 7 0
BBX 5 2 1 5
BITMAP
48
90
ENDCHAR
STARTCHAR 02F7
ENCODING 759
SWIDTH 420 0
DWIDTH 7 0
BBX 6 2 1 -3
BITMAP
E4
B8
ENDCHAR
STARTCHAR 02F8
ENCODING 760
SWIDTH 240 0
DWIDTH 4 0
BBX 2 10 1 3
BITMAP
40
C0
40
00
00
00
00
00
C0
40
ENDCHAR
STARTCHAR 02F9
ENCODING 761
SWIDTH 240 0
DWIDTH 4 0
BBX 3 3 1 8
BITMAP
E0
80
80
ENDCHAR
STARTCHAR 02FA
ENCODING 762
SWIDTH 240 0
DWIDTH 4 0
BBX 3 3 1 8
BITMAP
E0
20
20
ENDCHAR
STARTCHAR 02FB
ENCODING 763
SWIDTH 240 0
DWIDTH 4 0
BBX 3 4 1 0
BITMAP
80
80
80
E0
ENDCHAR
STARTCHAR 02FC
ENCODING 764
SWIDTH 240 0
DWIDTH 4 0
BBX 3 4 1 0
BITMAP
20
20
20
E0
ENDCHAR
STARTCHAR 02FD
ENCODING 765
SWIDTH 480 0
DWIDTH 8 0
BBX 7 2 1 -3
BITMAP
82
FE
ENDCHAR
STARTCHAR 02FE
ENCODING 766
SWIDTH 480 0
DWIDTH 8 0
BBX 7 2 1 -3
BITMAP
80
FE
ENDCHAR
STARTCHAR 02FF
ENCODING 767
SWIDTH 480 0
DWIDTH 8 0
BBX 7 5 1 -4
BITMAP
30
40
FE
60
10
ENDCHAR
STARTCHAR 0300
ENCODING 768
SWIDTH 0 0
DWIDTH 0 0
BBX 3 3 -8 10
BITMAP
C0
40
20
ENDCHAR
STARTCHAR 0301
ENCODING 769
SWIDTH 0 0
DWIDTH 0 0
BBX 3 3 -5 10
BITMAP
60
C0
80
ENDCHAR
STARTCHAR 0302
ENCODING 770
SWIDTH 0 0
DWIDTH 0 0
BBX 6 3 -3 10
BITMAP
30
78
CC
ENDCHAR
STARTCHAR 0303
ENCODING 771
SWIDTH 0 0
DWIDTH 0 0
BBX 6 2 -8 10
BITMAP
E4
98
ENDCHAR
STARTCHAR 0304
ENCODING 772
SWIDTH 0 0
DWIDTH 0 0
BBX 4 1 -2 10
BITMAP
F0
ENDCHAR
STARTCHAR 0305
ENCODING 773
SWIDTH 0 0
DWIDTH 0 0
BBX 6 1 -3 13
BITMAP
FC
ENDCHAR
STARTCHAR 0306
ENCODING 774
SWIDTH 0 0
DWIDTH 0 0
BBX 4 2 -2 10
BITMAP
90
F0
ENDCHAR
STARTCHAR 0307
ENCODING 775
SWIDTH 0 0
DWIDTH 0 0
BBX 2 1 -1 10
BITMAP
C0
ENDCHAR
STARTCHAR 0308
ENCODING 776
SWIDTH 0 0
DWIDTH 0 0
BBX 4 1 -2 11
BITMAP
90
ENDCHAR
STARTCHAR 0309
ENCODING 777
SWIDTH 0 0
DWIDTH 0 0
BBX 3 4 -6 10
BITMAP
C0
20
60
80
ENDCHAR
STARTCHAR 030A
ENCODING 778
SWIDTH 0 0
DWIDTH 0 0
BBX 4 4 -2 10
BITMAP
60
90
90
60
ENDCHAR
STARTCHAR 030B
ENCODING 779
SWIDTH 0 0
DWIDTH 0 0
BBX 6 3 -2 10
BITMAP
6C
48
90
ENDCHAR
STARTCHAR 030C
ENCODING 780
SWIDTH 0 0
DWIDTH 0 0
BBX 6 3 -3 10
BITMAP
CC
78
30
ENDCHAR
STARTCHAR 030D
ENCODING 781
SWIDTH 0 0
DWIDTH 0 0
BBX 2 3 -1 10
BITMAP
C0
C0
C0
ENDCHAR
STARTCHAR 030E
ENCODING 782
SWIDTH 0 0
DWIDTH 0 0
BBX 4 3 -2 10
BITMAP
90
90
90
ENDCHAR
STARTCHAR 030F
ENCODING 783
SWIDTH 0 0
DWIDTH 0 0
BBX 6 3 -9 10
BITMAP
D8
6C
24
ENDCHAR
STARTCHAR 0310
ENCODING 784
SWIDTH 0 0
DWIDTH 0 0
BBX 4 4 -2 10
BITMAP
60
60
90
F0
ENDCHAR
STARTCHAR 0311
ENCODING 785
SWIDTH 0 0
DWIDTH 0 0
BBX 6 2 -3 10
BITMAP
78
84
ENDCHAR
STARTCHAR 0312
ENCODING 786
SWIDTH 0 0
DWIDTH 0 0
BBX 2 4 -1 8
BITMAP
40
40
C0
80
ENDCHAR
STARTCHAR 0313
ENCODING 787
SWIDTH 0 0
DWIDTH 0 0
BBX 2 4 -1 8
BITMAP
40
C0
C0
80
ENDCHAR
STARTCHAR 0314
ENCODING 788
SWIDTH 0 0
DWIDTH 0 0
BBX 2 4 -1 8
BITMAP
80
C0
C0
40
ENDCHAR
STARTCHAR 0315
ENCODING 789
SWIDTH 0 0
DWIDTH 0 0
BBX 2 4 -1 8
BITMAP
40
C0
C0
80
ENDCHAR
STARTCHAR 0316
ENCODING 790
SWIDTH 0 0
DWIDTH 0 0
BBX 2 2 -1 -3
BITMAP
C0
40
ENDCHAR
STARTCHAR 0317
ENCODING 791
SWIDTH 0 0
DWIDTH 0 0
BBX 2 2 -1 -3
BITMAP
C0
80
ENDCHAR
STARTCHAR 0318
ENCODING 792
SWIDTH 0 0
DWIDTH 0 0
BBX 2 4 -1 -4
BITMAP
40
40
C0
40
ENDCHAR
STARTCHAR 0319
ENCODING 793
SWIDTH 0 0
DWIDTH 0 0
BBX 2 4 -1 -4
BITMAP
80
80
C0
80
ENDCHAR
STARTCHAR 031A
ENCODING 794
SWIDTH 0 0
DWIDTH 0 0
BBX 4 4 -1 12
BITMAP
F0
10
10
10
ENDCHAR
STARTCHAR 031B
ENCODING 795
SWIDTH 0 0
DWIDTH 0 0
BBX 4 4 -2 9
BITMAP
30
30
60
80
ENDCHAR
STARTCHAR 031C
ENCODING 796
SWIDTH 0 0
DWIDTH 0 0
BBX 2 4 -1 -4
BITMAP
40
80
80
40
ENDCHAR
STARTCHAR 031D
ENCODING 797
SWIDTH 0 0
DWIDTH 0 0
BBX 4 2 -2 -3
BITMAP
60
F0
ENDCHAR
STARTCHAR 031E
ENCODING 798
SWIDTH 0 0
DWIDTH 0 0
BBX 4 2 -2 -3
BITMAP
F0
60
ENDCHAR
STARTCHAR 031F
ENCODING 799
SWIDTH 0 0
DWIDTH 0 0
BBX 4 4 -2 -4
BITMAP
60
60
F0
60
ENDCHAR
STARTCHAR 0320
ENCODING 800
SWIDTH 0 0
DWIDTH 0 0
BBX 4 1 -2 -3
BITMAP
F0
ENDCHAR
STARTCHAR 0321
ENCODING 801
SWIDTH 0 0
DWIDTH 0 0
BBX 3 5 -3 -4
BITMAP
20
20
20
60
C0
ENDCHAR
STARTCHAR 0322
ENCODING 802
SWIDTH 0 0
DWIDTH 0 0
BBX 3 5 0 -4
BITMAP
80
80
80
C0
60
ENDCHAR
STARTCHAR 0323
ENCODING 803
SWIDTH 0 0
DWIDTH 0 0
BBX 2 2 -6 -3
BITMAP
C0
C0
ENDCHAR
STARTCHAR 0324
ENCODING 804
SWIDTH 0 0
DWIDTH 0 0
BBX 4 2 -2 -3
BITMAP
90
90
ENDCHAR
STARTCHAR 0325
ENCODING 805
SWIDTH 0 0
DWIDTH 0 0
BBX 4 4 -2 -4
BITMAP
60
90
90
60
ENDCHAR
STARTCHAR 0326
ENCODING 806
SWIDTH 0 0
DWIDTH 0 0
BBX 2 3 -1 -4
BITMAP
40
C0
80
ENDCHAR
STARTCHAR 0327
ENCODING 807
SWIDTH 0 0
DWIDTH 0 0
BBX 4 4 -2 -4
BITMAP
40
60
30
E0
ENDCHAR
STARTCHAR 0328
ENCODING 808
SWIDTH 0 0
DWIDTH 0 0
BBX 2 4 -1 -4
BITMAP
80
80
80
C0
ENDCHAR
STARTCHAR 0329
ENCODING 809
SWIDTH 0 0
DWIDTH 0 0
BBX 2 2 -1 -3
BITMAP
C0
C0
ENDCHAR
STARTCHAR 032A
ENCODING 810
SWIDTH 0 0
DWIDTH 0 0
BBX 6 3 -3 -4
BITMAP
FC
84
84
ENDCHAR
STARTCHAR 032B
ENCODING 811
SWIDTH 0 0
DWIDTH 0 0
BBX 6 2 -3 -3
BITMAP
84
FC
ENDCHAR
STARTCHAR 032C
ENCODING 812
SWIDTH 0 0
DWIDTH 0 0
BBX 4 2 -2 -3
BITMAP
90
60
ENDCHAR
STARTCHAR 032D
ENCODING 813
SWIDTH 0 0
DWIDTH 0 0
BBX 4 2 -2 -3
BITMAP
60
90
ENDCHAR
STARTCHAR 032E
ENCODING 814
SWIDTH 0 0
DWIDTH 0 0
BBX 4 2 -2 -3
BITMAP
90
F0
ENDCHAR
STARTCHAR 032F
ENCODING 815
SWIDTH 0 0
DWIDTH 0 0
BBX 4 2 -2 -3
BITMAP
F0
90
ENDCHAR
STARTCHAR 0330
ENCODING 816
SWIDTH 0 0
DWIDTH 0 0
BBX 6 2 -3 -3
BITMAP
64
98
ENDCHAR
STARTCHAR 0331
ENCODING 817
SWIDTH 0 0
DWIDTH 0 0
BBX 4 1 -2 -2
BITMAP
F0
ENDCHAR
STARTCHAR 0332
ENCODING 818
SWIDTH 0 0
DWIDTH 0 0
BBX 8 2 -4 -3
BITMAP
FF
FF
ENDCHAR
STARTCHAR 0333
ENCODING 819
SWIDTH 0 0
DWIDTH 0 0
BBX 6 4 -3 -4
BITMAP
FC
FC
00
FC
ENDCHAR
STARTCHAR 0334
ENCODING 820
SWIDTH 0 0
DWIDTH 0 0
BBX 6 3 -3 3
BITMAP
44
FC
88
ENDCHAR
STARTCHAR 0335
ENCODING 821
SWIDTH 0 0
DWIDTH 0 0
BBX 6 1 -3 4
BITMAP
FC
ENDCHAR
STARTCHAR 0336
ENCODING 822
SWIDTH 0 0
DWIDTH 0 0
BBX 12 1 -6 4
BITMAP
FFF0
ENDCHAR
STARTCHAR 0337
ENCODING 823
SWIDTH 0 0
DWIDTH 0 0
BBX 4 3 -2 4
BITMAP
30
E0
80
ENDCHAR
STARTCHAR 0338
ENCODING 824
SWIDTH 0 0
DWIDTH 0 0
BBX 6 14 -3 -1
BITMAP
04
04
08
08
18
10
10
30
20
60
40
40
C0
80
ENDCHAR
STARTCHAR 0339
ENCODING 825
SWIDTH 0 0
DWIDTH 0 0
BBX 2 4 -1 -4
BITMAP
80
40
40
80
ENDCHAR
STARTCHAR 033A
ENCODING 826
SWIDTH 0 0
DWIDTH 0 0
BBX 6 3 -3 -4
BITMAP
84
84
FC
ENDCHAR
STARTCHAR 033B
ENCODING 827
SWIDTH 0 0
DWIDTH 0 0
BBX 6 4 -3 -4
BITMAP
FC
84
84
FC
ENDCHAR
STARTCHAR 033C
ENCODING 828
SWIDTH 0 0
DWIDTH 0 0
BBX 6 2 -3 -3
BITMAP
FC
84
ENDCHAR
STARTCHAR 033D
ENCODING 829
SWIDTH 0 0
DWIDTH 0 0
BBX 2 2 -1 11
BITMAP
C0
C0
ENDCHAR
STARTCHAR 033E
ENCODING 830
SWIDTH 0 0
DWIDTH 0 0
BBX 2 4 -1 10
BITMAP
C0
80
40
C0
ENDCHAR
STARTCHAR 033F
ENCODING 831
SWIDTH 0 0
DWIDTH 0 0
BBX 6 3 -3 13
BITMAP
FC
00
FC
ENDCHAR
STARTCHAR 0340
ENCODING 832
SWIDTH 0 0
DWIDTH 0 0
BBX 4 3 -3 10
BITMAP
C0
60
30
ENDCHAR
STARTCHAR 0341
ENCODING 833
SWIDTH 0 0
DWIDTH 0 0
BBX 4 3 -1 10
BITMAP
30
60
C0
ENDCHAR
STARTCHAR 0342
ENCODING 834
SWIDTH 0 0
DWIDTH 0 0
BBX 6 2 -3 10
BITMAP
F4
98
ENDCHAR
STARTCHAR 0343
ENCODING 835
SWIDTH 0 0
DWIDTH 0 0
BBX 2 3 -1 10
BITMAP
C0
40
80
ENDCHAR
STARTCHAR 0344
ENCODING 836
SWIDTH 0 0
DWIDTH 0 0
BBX 6 3 -3 10
BITMAP
18
D4
30
ENDCHAR
STARTCHAR 0345
ENCODING 837
SWIDTH 0 0
DWIDTH 0 0
BBX 3 3 -1 -4
BITMAP
C0
C0
60
ENDCHAR
STARTCHAR 0346
ENCODING 838
SWIDTH 0 0
DWIDTH 0 0
BBX 8 3 -4 10
BITMAP
FF
81
81
ENDCHAR
STARTCHAR 0347
ENCODING 839
SWIDTH 0 0
DWIDTH 0 0
BBX 6 4 -3 -4
BITMAP
FC
FC
00
FC
ENDCHAR
STARTCHAR 0348
ENCODING 840
SWIDTH 0 0
DWIDTH 0 0
BBX 4 2 -2 -3
BITMAP
90
90
ENDCHAR
STARTCHAR 0349
ENCODING 841
SWIDTH 0 0
DWIDTH 0 0
BBX 4 3 -2 -4
BITMAP
F0
30
30
ENDCHAR
STARTCHAR 034A
ENCODING 842
SWIDTH 0 0
DWIDTH 0 0
BBX 6 3 -3 9
BITMAP
10
F4
B8
ENDCHAR
STARTCHAR 034B
ENCODING 843
SWIDTH 0 0
DWIDTH 0 0
BBX 6 5 -3 10
BITMAP
30
44
FC
88
30
ENDCHAR
STARTCHAR 034C
ENCODING 844
SWIDTH 0 0
DWIDTH 0 0
BBX 6 4 -3 10
BITMAP
FC
88
64
98
ENDCHAR
STARTCHAR 034D
ENCODING 845
SWIDTH 0 0
DWIDTH 0 0
BBX 4 2 -2 -4
BITMAP
90
F0
ENDCHAR
STARTCHAR 034E
ENCODING 846
SWIDTH 0 0
DWIDTH 0 0
BBX 2 3 -1 -3
BITMAP
C0
C0
C0
ENDCHAR
STARTCHAR 034F
ENCODING 847
SWIDTH 0 0
DWIDTH 0 0
BBX 12 12 -6 0
BITMAP
E670
8010
8910
1080
2040
8010
8010
2040
1080
8910
8010
E670
ENDCHAR
STARTCHAR 0350
ENCODING 848
SWIDTH 0 0
DWIDTH 0 0
BBX 2 3 -1 10
BITMAP
80
40
80
ENDCHAR
STARTCHAR 0351
ENCODING 849
SWIDTH 0 0
DWIDTH 0 0
BBX 2 3 -1 10
BITMAP
C0
80
40
ENDCHAR
STARTCHAR 0352
ENCODING 850
SWIDTH 0 0
DWIDTH 0 0
BBX 4 4 -2 10
BITMAP
F0
90
60
60
ENDCHAR
STARTCHAR 0353
ENCODING 851
SWIDTH 0 0
DWIDTH 0 0
BBX 2 2 -1 -4
BITMAP
C0
C0
ENDCHAR
STARTCHAR 0354
ENCODING 852
SWIDTH 0 0
DWIDTH 0 0
BBX 2 3 -1 -4
BITMAP
C0
80
40
ENDCHAR
STARTCHAR 0355
ENCODING 853
SWIDTH 0 0
DWIDTH 0 0
BBX 2 3 -1 -4
BITMAP
C0
40
80
ENDCHAR
STARTCHAR 0356
ENCODING 854
SWIDTH 0 0
DWIDTH 0 0
BBX 6 3 -3 -4
BITMAP
C8
74
94
ENDCHAR
STARTCHAR 0357
ENCODING 855
SWIDTH 0 0
DWIDTH 0 0
BBX 2 3 -1 10
BITMAP
40
40
C0
ENDCHAR
STARTCHAR 0358
ENCODING 856
SWIDTH 0 0
DWIDTH 0 0
BBX 2 1 2 10
BITMAP
C0
ENDCHAR
STARTCHAR 0359
ENCODING 857
SWIDTH 0 0
DWIDTH 0 0
BBX 2 3 -1 -4
BITMAP
80
C0
C0
ENDCHAR
STARTCHAR 035A
ENCODING 858
SWIDTH 0 0
DWIDTH 0 0
BBX 6 4 -3 -4
BITMAP
48
B4
A4
FC
ENDCHAR
STARTCHAR 035B
ENCODING 859
SWIDTH 0 0
DWIDTH 0 0
BBX 2 3 -1 10
BITMAP
80
C0
40
ENDCHAR
STARTCHAR 035C
ENCODING 860
SWIDTH 0 0
DWIDTH 0 0
BBX 12 3 -6 -4
BITMAP
C010
70E0
1F80
ENDCHAR
STARTCHAR 035D
ENCODING 861
SWIDTH 0 0
DWIDTH 0 0
BBX 12 3 -6 10
BITMAP
8010
6060
3FC0
ENDCHAR
STARTCHAR 035E
ENCODING 862
SWIDTH 0 0
DWIDTH 0 0
BBX 10 1 -5 10
BITMAP
FFC0
ENDCHAR
STARTCHAR 035F
ENCODING 863
SWIDTH 0 0
DWIDTH 0 0
BBX 10 1 -5 -2
BITMAP
FFC0
ENDCHAR
STARTCHAR 0360
ENCODING 864
SWIDTH 0 0
DWIDTH 0 0
BBX 12 2 -6 10
BITMAP
FE10
81E0
ENDCHAR
STARTCHAR 0361
ENCODING 865
SWIDTH 0 0
DWIDTH 0 0
BBX 12 3 -6 11
BITMAP
3FC0
6060
8010
ENDCHAR
STARTCHAR 0362
ENCODING 866
SWIDTH 0 0
DWIDTH 0 0
BBX 12 2 -6 -4
BITMAP
0010
FFF0
ENDCHAR
STARTCHAR 0363
ENCODING 867
SWIDTH 0 0
DWIDTH 0 0
BBX 4 4 -2 10
BITMAP
60
10
F0
70
ENDCHAR
STARTCHAR 0364
ENCODING 868
SWIDTH 0 0
DWIDTH 0 0
BBX 4 4 -2 10
BITMAP
60
90
E0
70
ENDCHAR
STARTCHAR 0365
ENCODING 869
SWIDTH 0 0
DWIDTH 0 0
BBX 1 4 0 11
BITMAP
80
80
80
80
ENDCHAR
STARTCHAR 0366
ENCODING 870
SWIDTH 0 0
DWIDTH 0 0
BBX 4 4 -2 10
BITMAP
70
90
90
60
ENDCHAR
STARTCHAR 0367
ENCODING 871
SWIDTH 0 0
DWIDTH 0 0
BBX 4 4 -2 10
BITMAP
90
90
90
70
ENDCHAR
STARTCHAR 0368
ENCODING 872
SWIDTH 0 0
DWIDTH 0 0
BBX 3 4 -1 10
BITMAP
E0
80
80
60
ENDCHAR
STARTCHAR 0369
ENCODING 873
SWIDTH 0 0
DWIDTH 0 0
BBX 4 5 -2 10
BITMAP
10
70
90
90
70
ENDCHAR
STARTCHAR 036A
ENCODING 874
SWIDTH 0 0
DWIDTH 0 0
BBX 4 5 -2 10
BITMAP
80
F0
90
90
90
ENDCHAR
STARTCHAR 036B
ENCODING 875
SWIDTH 0 0
DWIDTH 0 0
BBX 6 4 -3 10
BITMAP
EC
94
94
94
ENDCHAR
STARTCHAR 036C
ENCODING 876
SWIDTH 0 0
DWIDTH 0 0
BBX 3 4 -1 10
BITMAP
E0
80
80
80
ENDCHAR
STARTCHAR 036D
ENCODING 877
SWIDTH 0 0
DWIDTH 0 0
BBX 2 4 -1 11
BITMAP
C0
80
80
40
ENDCHAR
STARTCHAR 036E
ENCODING 878
SWIDTH 0 0
DWIDTH 0 0
BBX 4 4 -2 10
BITMAP
90
60
60
20
ENDCHAR
STARTCHAR 036F
ENCODING 879
SWIDTH 0 0
DWIDTH 0 0
BBX 4 4 -2 10
BITMAP
10
60
60
90
ENDCHAR
STARTCHAR 0370
ENCODING 880
SWIDTH 420 0
DWIDTH 7 0
BBX 5 12 2 0
BITMAP
80
80
80
80
80
F8
80
80
80
80
80
80
ENDCHAR
STARTCHAR 0371
ENCODING 881
SWIDTH 360 0
DWIDTH 6 0
BBX 5 9 1 0
BITMAP
C0
C0
C0
C0
F8
C0
C0
C0
C0
ENDCHAR
STARTCHAR 0372
ENCODING 882
SWIDTH 600 0
DWIDTH 10 0
BBX 9 12 1 0
BITMAP
FF80
8880
8880
8880
8880
0800
0800
0800
0800
0800
0800
0800
ENDCHAR
STARTCHAR 0373
ENCODING 883
SWIDTH 600 0
DWIDTH 10 0
BBX 8 13 1 0
BITMAP
FF
FF
C9
C9
08
08
08
08
08
08
08
08
08
ENDCHAR
STARTCHAR 0374
ENCODING 884
SWIDTH 120 0
DWIDTH 2 0
BBX 2 3 1 10
BITMAP
C0
C0
80
ENDCHAR
STARTCHAR 0375
ENCODING 885
SWIDTH 120 0
DWIDTH 2 0
BBX 2 4 0 -3
BITMAP
40
40
C0
80
ENDCHAR
STARTCHAR 0376
ENCODING 886
SWIDTH 720 0
DWIDTH 12 0
BBX 9 12 2 0
BITMAP
8180
8180
8380
8680
8480
8C80
9880
9080
B080
E080
C080
C080
ENDCHAR
STARTCHAR 0377
ENCODING 887
SWIDTH 600 0
DWIDTH 10 0
BBX 8 9 1 0
BITMAP
C3
C3
C5
CD
C9
D1
F1
E1
E1
ENDCHAR
STARTCHAR 037A
ENCODING 890
SWIDTH 240 0
DWIDTH 4 0
BBX 3 3 1 -4
BITMAP
C0
C0
60
ENDCHAR
STARTCHAR 037B
ENCODING 891
SWIDTH 480 0
DWIDTH 8 0
BBX 6 9 1 0
BITMAP
F0
18
0C
04
04
0C
0C
18
F0
ENDCHAR
STARTCHAR 037C
ENCODING 892
SWIDTH 480 0
DWIDTH 8 0
BBX 6 9 1 0
BITMAP
3C
60
C0
C0
98
80
C0
60
3C
ENDCHAR
STARTCHAR 037D
ENCODING 893
SWIDTH 480 0
DWIDTH 8 0
BBX 6 9 1 0
BITMAP
F0
18
0C
04
64
0C
0C
18
F0
ENDCHAR
STARTCHAR 037E
ENCODING 894
SWIDTH 240 0
DWIDTH 4 0
BBX 2 11 1 -2
BITMAP
C0
C0
00
00
00
00
00
C0
C0
80
80
ENDCHAR
STARTCHAR 037F
ENCODING 895
SWIDTH 240 0
DWIDTH 4 0
BBX 4 15 -1 -3
BITMAP
10
10
10
10
10
10
10
10
10
10
10
10
30
30
E0
ENDCHAR
STARTCHAR 0384
ENCODING 900
SWIDTH 180 0
DWIDTH 3 0
BBX 2 3 1 10
BITMAP
C0
80
80
ENDCHAR
STARTCHAR 0385
ENCODING 901
SWIDTH 600 0
DWIDTH 10 0
BBX 6 3 2 10
BITMAP
18
D4
30
ENDCHAR
STARTCHAR 0386
ENCODING 902
SWIDTH 660 0
DWIDTH 11 0
BBX 12 12 0 0
BITMAP
6200
4700
8500
0D00
0D80
0880
18C0
1FC0
1040
3060
2020
6030
ENDCHAR
STARTCHAR 0387
ENCODING 903
SWIDTH 240 0
DWIDTH 4 0
BBX 2 2 1 7
BITMAP
C0
C0
ENDCHAR
STARTCHAR 0388
ENCODING 904
SWIDTH 720 0
DWIDTH 12 0
BBX 11 12 0 0
BITMAP
6FE0
4C00
8C00
0C00
0C00
0FE0
0C00
0C00
0C00
0C00
0C00
0FE0
ENDCHAR
STARTCHAR 0389
ENCODING 905
SWIDTH 900 0
DWIDTH 15 0
BBX 13 12 0 0
BITMAP
6C08
4C08
8C08
0C08
0C08
0FF8
0C08
0C08
0C08
0C08
0C08
0C08
ENDCHAR
STARTCHAR 038A
ENCODING 906
SWIDTH 480 0
DWIDTH 8 0
BBX 8 12 0 0
BITMAP
6F
46
86
06
06
06
06
06
06
06
06
0F
ENDCHAR
STARTCHAR 038C
ENCODING 908
SWIDTH 840 0
DWIDTH 14 0
BBX 14 12 0 0
BITMAP
63E0
4E30
8818
180C
180C
180C
180C
180C
180C
0818
0E30
03E0
ENDCHAR
STARTCHAR 038E
ENCODING 910
SWIDTH 780 0
DWIDTH 13 0
BBX 13 12 0 0
BITMAP
6818
4C10
8430
0620
0360
0340
01C0
0080
0080
0080
0080
0080
ENDCHAR
STARTCHAR 038F
ENCODING 911
SWIDTH 840 0
DWIDTH 14 0
BBX 14 12 0 0
BITMAP
67E0
4C30
9818
1808
1008
1008
1008
1008
1818
0810
0620
3E7C
ENDCHAR
STARTCHAR 0390
ENCODING 912
SWIDTH 300 0
DWIDTH 5 0
BBX 6 13 0 0
BITMAP
30
BC
20
00
60
60
60
60
60
60
60
60
38
ENDCHAR
STARTCHAR 0391
ENCODING 913
SWIDTH 600 0
DWIDTH 10 0
BBX 10 12 0 0
BITMAP
0C00
0E00
0A00
1A00
1300
1100
3180
3F80
6080
40C0
4040
C040
ENDCHAR
STARTCHAR 0392
ENCODING 914
SWIDTH 600 0
DWIDTH 10 0
BBX 8 12 2 0
BITMAP
FC
8E
82
83
82
FC
8E
83
83
83
86
FC
ENDCHAR
STARTCHAR 0393
ENCODING 915
SWIDTH 480 0
DWIDTH 8 0
BBX 6 12 2 0
BITMAP
FC
80
80
80
80
80
80
80
80
80
80
80
ENDCHAR
STARTCHAR 0394
ENCODING 916
SWIDTH 600 0
DWIDTH 10 0
BBX 10 12 0 0
BITMAP
0C00
0E00
0A00
1A00
1300
3100
3180
2080
6080
40C0
C040
FFC0
ENDCHAR
STARTCHAR 0395
ENCODING 917
SWIDTH 540 0
DWIDTH 9 0
BBX 6 12 2 0
BITMAP
FC
80
80
80
80
FC
80
80
80
80
80
FC
ENDCHAR
STARTCHAR 0396
ENCODING 918
SWIDTH 540 0
DWIDTH 9 0
BBX 8 12 1 0
BITMAP
FF
03
06
04
0C
18
10
30
60
40
C0
FF
ENDCHAR
STARTCHAR 0397
ENCODING 919
SWIDTH 720 0
DWIDTH 12 0
BBX 9 12 2 0
BITMAP
8180
8180
8180
8180
8180
FF80
8180
8180
8180
8180
8180
8180
ENDCHAR
STARTCHAR 0398
ENCODING 920
SWIDTH 780 0
DWIDTH 13 0
BBX 11 12 1 0
BITMAP
1F00
71C0
60C0
C060
C060
DF60
DF60
C060
C060
4040
71C0
1F00
ENDCHAR
STARTCHAR 0399
ENCODING 921
SWIDTH 300 0
DWIDTH 5 0
BBX 4 12 1 0
BITMAP
F0
60
60
60
60
60
60
60
60
60
60
F0
ENDCHAR
STARTCHAR 039A
ENCODING 922
SWIDTH 600 0
DWIDTH 10 0
BBX 8 12 2 0
BITMAP
83
86
8C
98
B0
B0
F0
98
8C
84
86
83
ENDCHAR
STARTCHAR 039B
ENCODING 923
SWIDTH 600 0
DWIDTH 10 0
BBX 10 12 0 0
BITMAP
0C00
0C00
0E00
1200
1200
3300
2100
2100
6180
4080
40C0
C0C0
ENDCHAR
STARTCHAR 039C
ENCODING 924
SWIDTH 900 0
DWIDTH 15 0
BBX 12 12 2 0
BITMAP
C070
C070
E0F0
A0B0
A0B0
B1B0
9130
9B30
8A30
8A30
8E30
8430
ENDCHAR
STARTCHAR 039D
ENCODING 925
SWIDTH 720 0
DWIDTH 12 0
BBX 9 12 2 0
BITMAP
C080
C080
E080
B080
B080
9880
8880
8C80
8680
8280
8380
8180
ENDCHAR
STARTCHAR 039E
ENCODING 926
SWIDTH 600 0
DWIDTH 10 0
BBX 8 12 1 0
BITMAP
FF
00
00
00
00
7E
00
00
00
00
00
FF
ENDCHAR
STARTCHAR 039F
ENCODING 927
SWIDTH 780 0
DWIDTH 13 0
BBX 11 12 1 0
BITMAP
1F00
71C0
60C0
C060
C060
C060
C060
C060
C060
4040
71C0
1F00
ENDCHAR
STARTCHAR 03A0
ENCODING 928
SWIDTH 720 0
DWIDTH 12 0
BBX 9 12 2 0
BITMAP
FF80
8180
8180
8180
8180
8180
8180
8180
8180
8180
8180
8180
ENDCHAR
STARTCHAR 03A1
ENCODING 929
SWIDTH 600 0
DWIDTH 10 0
BBX 7 12 2 0
BITMAP
F8
8E
86
82
82
86
FC
80
80
80
80
80
ENDCHAR
STARTCHAR 03A3
ENCODING 931
SWIDTH 540 0
DWIDTH 9 0
BBX 8 12 1 0
BITMAP
FF
C0
60
20
30
18
18
30
60
40
80
FF
ENDCHAR
STARTCHAR 03A4
ENCODING 932
SWIDTH 540 0
DWIDTH 9 0
BBX 9 12 0 0
BITMAP
FF80
0800
0800
0800
0800
0800
0800
0800
0800
0800
0800
0800
ENDCHAR
STARTCHAR 03A5
ENCODING 933
SWIDTH 540 0
DWIDTH 9 0
BBX 9 12 0 0
BITMAP
C080
4180
6100
2300
3600
1400
1C00
0800
0800
0800
0800
0800
ENDCHAR
STARTCHAR 03A6
ENCODING 934
SWIDTH 840 0
DWIDTH 14 0
BBX 12 12 1 0
BITMAP
0600
1F80
7FE0
C630
C630
8610
8610
C630
6660
3FC0
0600
0600
ENDCHAR
STARTCHAR 03A7
ENCODING 935
SWIDTH 540 0
DWIDTH 9 0
BBX 9 12 0 0
BITMAP
4080
6180
2300
1200
1E00
0C00
0C00
1600
3200
2300
6180
C080
ENDCHAR
STARTCHAR 03A8
ENCODING 936
SWIDTH 780 0
DWIDTH 13 0
BBX 11 12 1 0
BITMAP
C620
C620
C620
C620
4620
4660
6660
37C0
1F80
0600
0600
0600
ENDCHAR
STARTCHAR 03A9
ENCODING 937
SWIDTH 660 0
DWIDTH 11 0
BBX 12 12 0 0
BITMAP
1F80
30C0
6060
4020
4020
4020
4020
4020
6060
2040
1180
F9F0
ENDCHAR
STARTCHAR 03AA
ENCODING 938
SWIDTH 300 0
DWIDTH 5 0
BBX 4 15 1 0
BITMAP
90
00
00
F0
60
60
60
60
60
60
60
60
60
60
F0
ENDCHAR
STARTCHAR 03AB
ENCODING 939
SWIDTH 540 0
DWIDTH 9 0
BBX 9 15 0 0
BITMAP
3200
0000
0000
C080
4180
6100
2300
3600
1400
1C00
0800
0800
0800
0800
0800
ENDCHAR
STARTCHAR 03AC
ENCODING 940
SWIDTH 600 0
DWIDTH 10 0
BBX 9 13 1 0
BITMAP
0C00
0800
0800
0000
3D00
6700
C300
C300
8300
8300
C300
4700
7D80
ENDCHAR
STARTCHAR 03AD
ENCODING 941
SWIDTH 420 0
DWIDTH 7 0
BBX 6 13 1 0
BITMAP
08
18
10
00
7C
C4
C0
C0
78
C0
80
C0
7C
ENDCHAR
STARTCHAR 03AE
ENCODING 942
SWIDTH 600 0
DWIDTH 10 0
BBX 8 17 1 -4
BITMAP
18
18
10
00
DE
E3
C3
C3
C3
C3
C3
C3
C3
03
03
03
03
ENDCHAR
STARTCHAR 03AF
ENCODING 943
SWIDTH 300 0
DWIDTH 5 0
BBX 4 13 1 0
BITMAP
20
60
40
00
C0
C0
C0
C0
C0
C0
C0
C0
70
ENDCHAR
STARTCHAR 03B0
ENCODING 944
SWIDTH 540 0
DWIDTH 9 0
BBX 8 13 1 0
BITMAP
0C
6A
10
00
C2
C3
C3
C3
C3
C3
C3
46
7C
ENDCHAR
STARTCHAR 03B1
ENCODING 945
SWIDTH 600 0
DWIDTH 10 0
BBX 9 9 1 0
BITMAP
3D00
6700
C300
C300
8300
8300
C300
4700
7D80
ENDCHAR
STARTCHAR 03B2
ENCODING 946
SWIDTH 600 0
DWIDTH 10 0
BBX 8 17 1 -4
BITMAP
1C
76
43
C3
C3
C6
DC
C3
C1
C1
C1
C3
FE
C0
C0
C0
C0
ENDCHAR
STARTCHAR 03B3
ENCODING 947
SWIDTH 480 0
DWIDTH 8 0
BBX 8 13 0 -4
BITMAP
C1
41
41
63
22
22
36
1C
18
18
18
18
18
ENDCHAR
STARTCHAR 03B4
ENCODING 948
SWIDTH 540 0
DWIDTH 9 0
BBX 8 13 1 0
BITMAP
1C
36
60
60
30
3C
46
C3
83
83
C3
C6
7C
ENDCHAR
STARTCHAR 03B5
ENCODING 949
SWIDTH 420 0
DWIDTH 7 0
BBX 6 9 1 0
BITMAP
7C
C4
C0
C0
78
C0
80
C0
7C
ENDCHAR
STARTCHAR 03B6
ENCODING 950
SWIDTH 420 0
DWIDTH 7 0
BBX 7 16 1 -3
BITMAP
FE
04
0C
18
10
20
60
40
C0
80
C0
E0
3C
06
06
04
ENDCHAR
STARTCHAR 03B7
ENCODING 951
SWIDTH 600 0
DWIDTH 10 0
BBX 8 13 1 -4
BITMAP
DE
E3
C3
C3
C3
C3
C3
C3
C3
03
03
03
03
ENDCHAR
STARTCHAR 03B8
ENCODING 952
SWIDTH 540 0
DWIDTH 9 0
BBX 8 13 1 0
BITMAP
38
7E
42
C3
C3
83
FF
81
83
C3
C2
66
3C
ENDCHAR
STARTCHAR 03B9
ENCODING 953
SWIDTH 300 0
DWIDTH 5 0
BBX 4 9 1 0
BITMAP
C0
C0
C0
C0
C0
C0
C0
C0
70
ENDCHAR
STARTCHAR 03BA
ENCODING 954
SWIDTH 480 0
DWIDTH 8 0
BBX 7 9 1 0
BITMAP
C6
CC
C8
D8
F0
D8
CC
C6
C2
ENDCHAR
STARTCHAR 03BB
ENCODING 955
SWIDTH 480 0
DWIDTH 8 0
BBX 9 13 0 0
BITMAP
E000
7000
1000
1800
1800
1800
1C00
3400
2600
6600
6200
4300
C180
ENDCHAR
STARTCHAR 03BC
ENCODING 956
SWIDTH 600 0
DWIDTH 10 0
BBX 9 13 1 -4
BITMAP
C300
C300
C300
C300
C300
C300
C300
C700
FD80
C000
C000
C000
C000
ENDCHAR
STARTCHAR 03BD
ENCODING 957
SWIDTH 480 0
DWIDTH 8 0
BBX 8 9 0 0
BITMAP
C1
41
41
63
22
22
36
1C
18
ENDCHAR
STARTCHAR 03BE
ENCODING 958
SWIDTH 480 0
DWIDTH 8 0
BBX 7 16 1 -3
BITMAP
FE
30
40
40
40
60
3C
40
C0
80
C0
E0
3C
06
06
04
ENDCHAR
STARTCHAR 03BF
ENCODING 959
SWIDTH 600 0
DWIDTH 10 0
BBX 8 9 1 0
BITMAP
3C
66
C3
C1
81
C1
C3
62
3C
ENDCHAR
STARTCHAR 03C0
ENCODING 960
SWIDTH 600 0
DWIDTH 10 0
BBX 11 9 0 0
BITMAP
FFE0
3180
3180
3180
3180
3180
3180
3180
30C0
ENDCHAR
STARTCHAR 03C1
ENCODING 961
SWIDTH 600 0
DWIDTH 10 0
BBX 8 13 1 -4
BITMAP
3C
66
C3
C3
C1
C1
C3
C2
FC
C0
C0
C0
C0
ENDCHAR
STARTCHAR 03C2
ENCODING 962
SWIDTH 480 0
DWIDTH 8 0
BBX 7 12 1 -3
BITMAP
3C
60
C0
80
80
C0
C0
60
3C
06
06
04
ENDCHAR
STARTCHAR 03C3
ENCODING 963
SWIDTH 600 0
DWIDTH 10 0
BBX 9 9 1 0
BITMAP
3F80
6600
C300
C300
8100
8300
C300
4600
3C00
ENDCHAR
STARTCHAR 03C4
ENCODING 964
SWIDTH 480 0
DWIDTH 8 0
BBX 8 9 0 0
BITMAP
FF
10
10
10
10
10
10
10
1E
ENDCHAR
STARTCHAR 03C5
ENCODING 965
SWIDTH 540 0
DWIDTH 9 0
BBX 8 9 1 0
BITMAP
C2
C3
C3
C3
C3
C3
C3
46
7C
ENDCHAR
STARTCHAR 03C6
ENCODING 966
SWIDTH 720 0
DWIDTH 12 0
BBX 10 17 1 -4
BITMAP
0C00
0C00
0C00
0C00
3F00
6D80
CCC0
CC40
8C40
CC40
CCC0
6D80
3F00
0C00
0C00
0C00
0C00
ENDCHAR
STARTCHAR 03C7
ENCODING 967
SWIDTH 540 0
DWIDTH 9 0
BBX 10 13 0 -4
BITMAP
E0C0
2180
3100
1300
1A00
0E00
0C00
0C00
1E00
1200
2300
6100
41C0
ENDCHAR
STARTCHAR 03C8
ENCODING 968
SWIDTH 720 0
DWIDTH 12 0
BBX 10 17 1 -4
BITMAP
0C00
0C00
0C00
0C00
CCC0
CC40
CC40
CC40
CC40
CC40
4CC0
6D80
3F00
0C00
0C00
0C00
0C00
ENDCHAR
STARTCHAR 03C9
ENCODING 969
SWIDTH 780 0
DWIDTH 13 0
BBX 11 9 1 0
BITMAP
6040
4060
C020
C420
C420
C420
C420
4E60
7BC0
ENDCHAR
STARTCHAR 03CA
ENCODING 970
SWIDTH 300 0
DWIDTH 5 0
BBX 5 12 0 0
BITMAP
98
00
00
60
60
60
60
60
60
60
60
38
ENDCHAR
STARTCHAR 03CB
ENCODING 971
SWIDTH 540 0
DWIDTH 9 0
BBX 8 12 1 0
BITMAP
64
00
00
C2
C3
C3
C3
C3
C3
C3
46
7C
ENDCHAR
STARTCHAR 03CC
ENCODING 972
SWIDTH 600 0
DWIDTH 10 0
BBX 8 13 1 0
BITMAP
0C
0C
08
00
3C
66
C3
C1
81
C1
C3
62
3C
ENDCHAR
STARTCHAR 03CD
ENCODING 973
SWIDTH 540 0
DWIDTH 9 0
BBX 8 13 1 0
BITMAP
0C
08
18
00
C2
C3
C3
C3
C3
C3
C3
46
7C
ENDCHAR
STARTCHAR 03CE
ENCODING 974
SWIDTH 780 0
DWIDTH 13 0
BBX 11 13 1 0
BITMAP
0300
0200
0600
0000
6040
4060
C020
C420
C420
C420
C420
4E60
7BC0
ENDCHAR
STARTCHAR 03CF
ENCODING 975
SWIDTH 600 0
DWIDTH 10 0
BBX 8 16 2 -4
BITMAP
83
86
8C
98
B0
B0
F0
98
8C
84
86
83
03
03
86
FC
ENDCHAR
STARTCHAR 03D0
ENCODING 976
SWIDTH 600 0
DWIDTH 10 0
BBX 9 13 1 0
BITMAP
0E00
3B00
6100
7F00
4C00
C800
FF00
C100
C180
4180
4180
6300
3E00
ENDCHAR
STARTCHAR 03D1
ENCODING 977
SWIDTH 600 0
DWIDTH 10 0
BBX 10 13 0 0
BITMAP
1C00
3700
2100
2180
3980
0FC0
E080
2080
2080
2180
6180
2300
3E00
ENDCHAR
STARTCHAR 03D2
ENCODING 978
SWIDTH 540 0
DWIDTH 9 0
BBX 10 12 0 0
BITMAP
C0C0
4180
6100
2300
3600
1400
1C00
0800
0800
0800
0800
0800
ENDCHAR
STARTCHAR 03D3
ENCODING 979
SWIDTH 780 0
DWIDTH 13 0
BBX 13 12 0 0
BITMAP
6818
4C10
8430
0620
0260
03C0
0180
0180
0180
0180
0180
0180
ENDCHAR
STARTCHAR 03D4
ENCODING 980
SWIDTH 540 0
DWIDTH 9 0
BBX 10 15 0 0
BITMAP
3200
0000
0000
C0C0
4180
6100
2300
3600
1400
1C00
0800
0800
0800
0800
0800
ENDCHAR
STARTCHAR 03D5
ENCODING 981
SWIDTH 720 0
DWIDTH 12 0
BBX 10 17 1 -4
BITMAP
0C00
0C00
0C00
0C00
3F00
6D80
CCC0
CC40
8C40
CC40
CCC0
6D80
3F00
0C00
0C00
0C00
0C00
ENDCHAR
STARTCHAR 03D6
ENCODING 982
SWIDTH 840 0
DWIDTH 14 0
BBX 14 9 0 0
BITMAP
FFFC
3010
2010
2318
2318
2318
2318
3330
1EE0
ENDCHAR
STARTCHAR 03D7
ENCODING 983
SWIDTH 480 0
DWIDTH 8 0
BBX 8 12 1 -3
BITMAP
C6
CC
C8
D8
F0
D8
CC
C6
C2
03
06
FC
ENDCHAR
STARTCHAR 03D8
ENCODING 984
SWIDTH 720 0
DWIDTH 12 0
BBX 11 12 1 0
BITMAP
1F00
71C0
40C0
C060
C060
C060
C040
40C0
7380
1F00
0400
0400
ENDCHAR
STARTCHAR 03D9
ENCODING 985
SWIDTH 600 0
DWIDTH 10 0
BBX 8 13 1 -4
BITMAP
3C
62
C3
C1
81
C1
C3
62
3C
18
18
18
18
ENDCHAR
STARTCHAR 03DA
ENCODING 986
SWIDTH 600 0
DWIDTH 10 0
BBX 9 12 1 0
BITMAP
1F80
7180
C000
C000
C000
C000
C000
6000
3C00
0400
0400
0400
ENDCHAR
STARTCHAR 03DB
ENCODING 987
SWIDTH 480 0
DWIDTH 8 0
BBX 6 12 1 -3
BITMAP
3C
60
C0
80
80
C0
C0
60
3C
04
04
7C
ENDCHAR
STARTCHAR 03DC
ENCODING 988
SWIDTH 480 0
DWIDTH 8 0
BBX 6 12 2 0
BITMAP
FC
80
80
80
80
80
FC
8C
8C
80
80
80
ENDCHAR
STARTCHAR 03DD
ENCODING 989
SWIDTH 480 0
DWIDTH 8 0
BBX 6 13 2 -4
BITMAP
FC
80
80
80
80
FC
8C
8C
8C
80
80
80
80
ENDCHAR
STARTCHAR 03DE
ENCODING 990
SWIDTH 480 0
DWIDTH 8 0
BBX 8 12 0 0
BITMAP
E0
20
20
60
60
7F
02
06
06
04
04
07
ENDCHAR
STARTCHAR 03DF
ENCODING 991
SWIDTH 540 0
DWIDTH 9 0
BBX 7 17 1 -4
BITMAP
E0
E0
20
20
60
40
40
FE
F2
06
04
04
0C
08
08
08
0E
ENDCHAR
STARTCHAR 03E0
ENCODING 992
SWIDTH 540 0
DWIDTH 9 0
BBX 9 12 0 0
BITMAP
7C00
C600
0F00
1900
2100
0780
0D80
0980
0180
0180
0100
0300
ENDCHAR
STARTCHAR 03E1
ENCODING 993
SWIDTH 480 0
DWIDTH 8 0
BBX 9 17 -1 -4
BITMAP
8000
E000
3800
0C00
0600
1E00
3300
0100
0700
1D80
0180
0180
0180
0100
0100
0300
0300
ENDCHAR
STARTCHAR 03F0
ENCODING 1008
SWIDTH 660 0
DWIDTH 11 0
BBX 11 9 0 0
BITMAP
E0C0
3180
1180
1280
1780
1D80
3980
3080
20E0
ENDCHAR
STARTCHAR 03F1
ENCODING 1009
SWIDTH 600 0
DWIDTH 10 0
BBX 8 13 1 -4
BITMAP
3C
66
C3
C3
C1
C3
C3
E6
FC
C0
60
3E
06
ENDCHAR
STARTCHAR 03F2
ENCODING 1010
SWIDTH 480 0
DWIDTH 8 0
BBX 6 9 1 0
BITMAP
3C
60
C0
C0
80
80
C0
60
3C
ENDCHAR
STARTCHAR 03F3
ENCODING 1011
SWIDTH 240 0
DWIDTH 4 0
BBX 4 16 -1 -4
BITMAP
30
10
00
30
30
30
30
30
30
30
30
30
30
30
30
E0
ENDCHAR
STARTCHAR 03F4
ENCODING 1012
SWIDTH 780 0
DWIDTH 13 0
BBX 11 12 1 0
BITMAP
1F00
71C0
60C0
C060
C060
FFE0
FFE0
C060
C060
4040
71C0
1F00
ENDCHAR
STARTCHAR 03F5
ENCODING 1013
SWIDTH 480 0
DWIDTH 8 0
BBX 7 9 1 0
BITMAP
3E
60
C0
80
FC
80
C0
62
3E
ENDCHAR
STARTCHAR 03F6
ENCODING 1014
SWIDTH 480 0
DWIDTH 8 0
BBX 7 9 0 0
BITMAP
7C
06
06
02
7E
02
06
86
F8
ENDCHAR
STARTCHAR 03F7
ENCODING 1015
SWIDTH 600 0
DWIDTH 10 0
BBX 7 12 2 0
BITMAP
80
80
F8
9E
86
82
82
86
FC
80
80
80
ENDCHAR
STARTCHAR 03F8
ENCODING 1016
SWIDTH 600 0
DWIDTH 10 0
BBX 8 17 1 -4
BITMAP
C0
C0
C0
C0
DE
E3
C1
C1
C1
C1
C1
E3
DE
C0
C0
C0
C0
ENDCHAR
STARTCHAR 03F9
ENCODING 1017
SWIDTH 600 0
DWIDTH 10 0
BBX 9 12 1 0
BITMAP
1F80
3180
6000
C000
C000
C000
C000
C000
C000
6000
7080
1F80
ENDCHAR
STARTCHAR 03FA
ENCODING 1018
SWIDTH 900 0
DWIDTH 15 0
BBX 12 12 2 0
BITMAP
C070
E070
A0F0
B1B0
9130
9B30
8E30
8430
8030
8030
8030
8030
ENDCHAR
STARTCHAR 03FB
ENCODING 1019
SWIDTH 720 0
DWIDTH 12 0
BBX 10 13 1 -4
BITMAP
C0C0
E1C0
F3C0
D2C0
CEC0
CCC0
C0C0
C0C0
C0C0
C000
C000
C000
C000
ENDCHAR
STARTCHAR 03FC
ENCODING 1020
SWIDTH 600 0
DWIDTH 10 0
BBX 9 13 0 -4
BITMAP
1E00
3300
6180
6180
6080
6080
6180
6100
7E00
6000
FC00
FC00
6000
ENDCHAR
STARTCHAR 03FD
ENCODING 1021
SWIDTH 600 0
DWIDTH 10 0
BBX 9 12 1 0
BITMAP
FC00
8E00
0300
0300
0100
0180
0180
0100
0300
0300
0600
FC00
ENDCHAR
STARTCHAR 03FE
ENCODING 1022
SWIDTH 600 0
DWIDTH 10 0
BBX 9 12 1 0
BITMAP
1F80
3180
6000
C000
C000
C400
C600
C000
C000
6000
7080
1F80
ENDCHAR
STARTCHAR 03FF
ENCODING 1023
SWIDTH 600 0
DWIDTH 10 0
BBX 9 12 1 0
BITMAP
FC00
8E00
0300
0300
0100
3180
3180
0100
0300
0300
0600
FC00
ENDCHAR
STARTCHAR 0400
ENCODING 1024
SWIDTH 540 0
DWIDTH 9 0
BBX 6 16 2 0
BITMAP
60
20
10
00
FC
80
80
80
80
FC
80
80
80
80
80
FC
ENDCHAR
STARTCHAR 0401
ENCODING 1025
SWIDTH 540 0
DWIDTH 9 0
BBX 6 15 2 0
BITMAP
48
40
00
FC
80
80
80
80
FC
80
80
80
80
80
FC
ENDCHAR
STARTCHAR 0402
ENCODING 1026
SWIDTH 720 0
DWIDTH 12 0
BBX 11 12 0 0
BITMAP
FF00
1000
1000
1000
1000
1FC0
1060
1020
1020
1020
1060
11C0
ENDCHAR
STARTCHAR 0403
ENCODING 1027
SWIDTH 480 0
DWIDTH 8 0
BBX 6 16 2 0
BITMAP
08
18
30
00
FC
80
80
80
80
80
80
80
80
80
80
80
ENDCHAR
STARTCHAR 0404
ENCODING 1028
SWIDTH 600 0
DWIDTH 10 0
BBX 9 12 1 0
BITMAP
1F80
3080
6000
C000
C000
FE00
C000
C000
C000
6000
7080
1F80
ENDCHAR
STARTCHAR 0405
ENCODING 1029
SWIDTH 540 0
DWIDTH 9 0
BBX 7 12 1 0
BITMAP
7E
C2
C0
C0
C0
70
1C
06
02
02
86
FC
ENDCHAR
STARTCHAR 0406
ENCODING 1030
SWIDTH 300 0
DWIDTH 5 0
BBX 4 12 1 0
BITMAP
F0
60
60
60
60
60
60
60
60
60
60
F0
ENDCHAR
STARTCHAR 0407
ENCODING 1031
SWIDTH 300 0
DWIDTH 5 0
BBX 4 15 1 0
BITMAP
90
00
00
F0
60
60
60
60
60
60
60
60
60
60
F0
ENDCHAR
STARTCHAR 0408
ENCODING 1032
SWIDTH 240 0
DWIDTH 4 0
BBX 4 15 -1 -3
BITMAP
10
10
10
10
10
10
10
10
10
10
10
10
30
30
E0
ENDCHAR
STARTCHAR 0409
ENCODING 1033
SWIDTH 900 0
DWIDTH 15 0
BBX 15 12 0 0
BITMAP
0F80
0880
1880
1880
1880
10F8
109C
1086
3086
3086
208C
E0F8
ENDCHAR
STARTCHAR 040A
ENCODING 1034
SWIDTH 900 0
DWIDTH 15 0
BBX 13 12 2 0
BITMAP
8300
8300
8300
8300
8300
FFE0
8338
8308
8308
8308
8338
83F0
ENDCHAR
STARTCHAR 040B
ENCODING 1035
SWIDTH 720 0
DWIDTH 12 0
BBX 11 12 0 0
BITMAP
FF80
1000
1000
1000
1000
1FC0
1060
1020
1020
1020
1020
1020
ENDCHAR
STARTCHAR 040C
ENCODING 1036
SWIDTH 600 0
DWIDTH 10 0
BBX 8 16 2 0
BITMAP
0C
18
10
00
83
86
8C
98
B0
E0
A0
B0
98
8C
86
83
ENDCHAR
STARTCHAR 040D
ENCODING 1037
SWIDTH 720 0
DWIDTH 12 0
BBX 9 16 2 0
BITMAP
3000
1800
0C00
0000
8180
8180
8380
8680
8480
8C80
9880
9080
B080
E080
C080
C080
ENDCHAR
STARTCHAR 040E
ENCODING 1038
SWIDTH 600 0
DWIDTH 10 0
BBX 10 16 0 0
BITMAP
3100
3100
1E00
0000
C040
60C0
6080
3180
3100
1B00
1B00
0E00
0600
0C00
0C00
7800
ENDCHAR
STARTCHAR 040F
ENCODING 1039
SWIDTH 720 0
DWIDTH 12 0
BBX 9 15 2 -3
BITMAP
8180
8180
8180
8180
8180
8180
8180
8180
8180
8180
8180
FF80
1800
1800
1800
ENDCHAR
STARTCHAR 0410
ENCODING 1040
SWIDTH 600 0
DWIDTH 10 0
BBX 10 12 0 0
BITMAP
0C00
0E00
0A00
1A00
1300
1100
3180
3F80
6080
40C0
4040
C040
ENDCHAR
STARTCHAR 0411
ENCODING 1041
SWIDTH 600 0
DWIDTH 10 0
BBX 7 12 2 0
BITMAP
FE
80
80
80
80
F8
8E
82
82
82
86
FC
ENDCHAR
STARTCHAR 0412
ENCODING 1042
SWIDTH 600 0
DWIDTH 10 0
BBX 8 12 2 0
BITMAP
FC
8E
82
83
82
FC
8E
83
83
83
86
FC
ENDCHAR
STARTCHAR 0413
ENCODING 1043
SWIDTH 480 0
DWIDTH 8 0
BBX 6 12 2 0
BITMAP
FC
80
80
80
80
80
80
80
80
80
80
80
ENDCHAR
STARTCHAR 0414
ENCODING 1044
SWIDTH 660 0
DWIDTH 11 0
BBX 11 15 0 -3
BITMAP
0FC0
08C0
08C0
08C0
18C0
18C0
10C0
30C0
30C0
20C0
60C0
FFE0
C020
C020
C020
ENDCHAR
STARTCHAR 0415
ENCODING 1045
SWIDTH 540 0
DWIDTH 9 0
BBX 6 12 2 0
BITMAP
FC
80
80
80
80
FC
80
80
80
80
80
FC
ENDCHAR
STARTCHAR 0416
ENCODING 1046
SWIDTH 840 0
DWIDTH 14 0
BBX 14 12 0 0
BITMAP
430C
6318
3330
1B20
0B60
0FC0
0FC0
0B60
1320
3310
6318
C30C
ENDCHAR
STARTCHAR 0417
ENCODING 1047
SWIDTH 540 0
DWIDTH 9 0
BBX 8 12 1 0
BITMAP
7C
C6
03
03
06
7C
1E
03
03
03
86
FC
ENDCHAR
STARTCHAR 0418
ENCODING 1048
SWIDTH 720 0
DWIDTH 12 0
BBX 9 12 2 0
BITMAP
8180
8180
8380
8680
8480
8C80
9880
9080
B080
E080
C080
C080
ENDCHAR
STARTCHAR 0419
ENCODING 1049
SWIDTH 720 0
DWIDTH 12 0
BBX 9 16 2 0
BITMAP
2300
2200
1E00
0000
8180
8180
8380
8680
8480
8C80
9880
9080
B080
E080
C080
C080
ENDCHAR
STARTCHAR 041A
ENCODING 1050
SWIDTH 600 0
DWIDTH 10 0
BBX 8 12 2 0
BITMAP
83
86
8C
98
B0
E0
A0
B0
98
8C
86
83
ENDCHAR
STARTCHAR 041B
ENCODING 1051
SWIDTH 660 0
DWIDTH 11 0
BBX 10 12 0 0
BITMAP
0FC0
1840
1840
1840
1840
1040
1040
1040
3040
3040
2040
E040
ENDCHAR
STARTCHAR 041C
ENCODING 1052
SWIDTH 900 0
DWIDTH 15 0
BBX 12 12 2 0
BITMAP
C070
C070
E0F0
A0B0
A0B0
B1B0
9130
9B30
8A30
8A30
8E30
8430
ENDCHAR
STARTCHAR 041D
ENCODING 1053
SWIDTH 720 0
DWIDTH 12 0
BBX 9 12 2 0
BITMAP
8180
8180
8180
8180
8180
FF80
8180
8180
8180
8180
8180
8180
ENDCHAR
STARTCHAR 041E
ENCODING 1054
SWIDTH 780 0
DWIDTH 13 0
BBX 11 12 1 0
BITMAP
1F00
71C0
60C0
C060
C060
C060
C060
C060
C060
4040
71C0
1F00
ENDCHAR
STARTCHAR 041F
ENCODING 1055
SWIDTH 720 0
DWIDTH 12 0
BBX 9 12 2 0
BITMAP
FF80
8180
8180
8180
8180
8180
8180
8180
8180
8180
8180
8180
ENDCHAR
STARTCHAR 0420
ENCODING 1056
SWIDTH 600 0
DWIDTH 10 0
BBX 7 12 2 0
BITMAP
F8
8E
86
82
82
86
FC
80
80
80
80
80
ENDCHAR
STARTCHAR 0421
ENCODING 1057
SWIDTH 600 0
DWIDTH 10 0
BBX 9 12 1 0
BITMAP
1F80
3180
6000
C000
C000
C000
C000
C000
C000
6000
7080
1F80
ENDCHAR
STARTCHAR 0422
ENCODING 1058
SWIDTH 540 0
DWIDTH 9 0
BBX 9 12 0 0
BITMAP
FF80
0800
0800
0800
0800
0800
0800
0800
0800
0800
0800
0800
ENDCHAR
STARTCHAR 0423
ENCODING 1059
SWIDTH 600 0
DWIDTH 10 0
BBX 10 12 0 0
BITMAP
C040
60C0
6080
3180
3100
1B00
1B00
0E00
0600
0C00
0C00
7800
ENDCHAR
STARTCHAR 0424
ENCODING 1060
SWIDTH 780 0
DWIDTH 13 0
BBX 12 12 1 0
BITMAP
0400
0F00
7FC0
C460
C420
8430
8420
C420
6460
3FC0
0400
0400
ENDCHAR
STARTCHAR 0425
ENCODING 1061
SWIDTH 540 0
DWIDTH 9 0
BBX 9 12 0 0
BITMAP
4080
6180
2300
1200
1E00
0C00
0C00
1600
3200
2300
6180
C080
ENDCHAR
STARTCHAR 0426
ENCODING 1062
SWIDTH 720 0
DWIDTH 12 0
BBX 10 15 2 -3
BITMAP
8180
8180
8180
8180
8180
8180
8180
8180
8180
8180
8180
FFC0
0040
0040
0040
ENDCHAR
STARTCHAR 0427
ENCODING 1063
SWIDTH 660 0
DWIDTH 11 0
BBX 9 12 1 0
BITMAP
C080
C080
C080
C080
C080
C080
6780
3C80
0080
0080
0080
0080
ENDCHAR
STARTCHAR 0428
ENCODING 1064
SWIDTH 1020 0
DWIDTH 17 0
BBX 14 12 2 0
BITMAP
820C
820C
820C
820C
820C
820C
820C
820C
820C
820C
820C
FFFC
ENDCHAR
STARTCHAR 0429
ENCODING 1065
SWIDTH 1020 0
DWIDTH 17 0
BBX 15 15 2 -3
BITMAP
8208
8208
8208
8208
8208
8208
8208
8208
8208
8208
8208
FFFE
0006
0006
0006
ENDCHAR
STARTCHAR 042A
ENCODING 1066
SWIDTH 660 0
DWIDTH 11 0
BBX 11 12 0 0
BITMAP
F000
1000
1000
1000
1000
1F80
11C0
1060
1060
1060
10C0
1F80
ENDCHAR
STARTCHAR 042B
ENCODING 1067
SWIDTH 840 0
DWIDTH 14 0
BBX 11 12 2 0
BITMAP
8060
8060
8060
8060
8060
F860
8E60
8260
8260
8260
8660
FC60
ENDCHAR
STARTCHAR 042C
ENCODING 1068
SWIDTH 600 0
DWIDTH 10 0
BBX 8 12 2 0
BITMAP
80
80
80
80
80
FC
8E
83
83
83
86
FC
ENDCHAR
STARTCHAR 042D
ENCODING 1069
SWIDTH 600 0
DWIDTH 10 0
BBX 9 12 1 0
BITMAP
FC00
8E00
0300
0100
0100
7F80
0100
0100
0100
0300
0600
FC00
ENDCHAR
STARTCHAR 042E
ENCODING 1070
SWIDTH 1020 0
DWIDTH 17 0
BBX 14 12 2 0
BITMAP
81F0
8718
840C
8C04
8C04
FC04
8C04
8C04
8C04
840C
8618
83F0
ENDCHAR
STARTCHAR 042F
ENCODING 1071
SWIDTH 600 0
DWIDTH 10 0
BBX 8 12 1 0
BITMAP
3F
61
C1
C1
C1
61
3F
31
21
61
C1
81
ENDCHAR
STARTCHAR 0430
ENCODING 1072
SWIDTH 540 0
DWIDTH 9 0
BBX 7 9 1 0
BITMAP
7C
46
02
02
7E
C2
86
C6
7A
ENDCHAR
STARTCHAR 0431
ENCODING 1073
SWIDTH 540 0
DWIDTH 9 0
BBX 8 13 1 0
BITMAP
03
3F
60
40
C0
FE
E3
C3
81
C1
C3
62
3C
ENDCHAR
STARTCHAR 0432
ENCODING 1074
SWIDTH 540 0
DWIDTH 9 0
BBX 8 9 1 0
BITMAP
FE
C2
C3
C6
FE
C3
C3
C3
FE
ENDCHAR
STARTCHAR 0433
ENCODING 1075
SWIDTH 420 0
DWIDTH 7 0
BBX 6 9 1 0
BITMAP
FC
C0
C0
C0
C0
C0
C0
C0
C0
ENDCHAR
STARTCHAR 0434
ENCODING 1076
SWIDTH 540 0
DWIDTH 9 0
BBX 9 12 0 -3
BITMAP
1F00
1900
1900
1100
1100
3100
2100
6100
FF80
C080
C080
C080
ENDCHAR
STARTCHAR 0435
ENCODING 1077
SWIDTH 540 0
DWIDTH 9 0
BBX 8 9 1 0
BITMAP
3C
46
C2
83
FF
80
C0
60
3E
ENDCHAR
STARTCHAR 0436
ENCODING 1078
SWIDTH 720 0
DWIDTH 12 0
BBX 12 9 0 0
BITMAP
4230
2260
3240
1A80
0F80
1A80
3240
6220
C230
ENDCHAR
STARTCHAR 0437
ENCODING 1079
SWIDTH 480 0
DWIDTH 8 0
BBX 6 9 1 0
BITMAP
F8
8C
04
0C
78
04
04
0C
F8
ENDCHAR
STARTCHAR 0438
ENCODING 1080
SWIDTH 600 0
DWIDTH 10 0
BBX 8 9 1 0
BITMAP
C3
C3
C5
CD
C9
D1
F1
E1
E1
ENDCHAR
STARTCHAR 0439
ENCODING 1081
SWIDTH 600 0
DWIDTH 10 0
BBX 8 13 1 0
BITMAP
63
22
1C
00
C3
C3
C5
CD
C9
D1
F1
E1
E1
ENDCHAR
STARTCHAR 043A
ENCODING 1082
SWIDTH 480 0
DWIDTH 8 0
BBX 7 9 1 0
BITMAP
C6
CC
C8
D0
F0
D8
C8
C4
C6
ENDCHAR
STARTCHAR 043B
ENCODING 1083
SWIDTH 540 0
DWIDTH 9 0
BBX 8 9 0 0
BITMAP
1F
11
11
31
31
31
21
61
C1
ENDCHAR
STARTCHAR 043C
ENCODING 1084
SWIDTH 720 0
DWIDTH 12 0
BBX 10 9 1 0
BITMAP
E0C0
E1C0
E140
F140
D340
DA40
CE40
CC40
CC40
ENDCHAR
STARTCHAR 043D
ENCODING 1085
SWIDTH 600 0
DWIDTH 10 0
BBX 8 9 1 0
BITMAP
C1
C1
C1
C1
FF
C1
C1
C1
C1
ENDCHAR
STARTCHAR 043E
ENCODING 1086
SWIDTH 600 0
DWIDTH 10 0
BBX 8 9 1 0
BITMAP
3C
66
C3
C1
81
C1
C3
62
3C
ENDCHAR
STARTCHAR 043F
ENCODING 1087
SWIDTH 600 0
DWIDTH 10 0
BBX 8 9 1 0
BITMAP
FF
C3
C3
C3
C3
C3
C3
C3
C3
ENDCHAR
STARTCHAR 0440
ENCODING 1088
SWIDTH 600 0
DWIDTH 10 0
BBX 8 13 1 -4
BITMAP
DE
E3
C3
C1
C1
C1
C3
E3
DE
C0
C0
C0
C0
ENDCHAR
STARTCHAR 0441
ENCODING 1089
SWIDTH 480 0
DWIDTH 8 0
BBX 6 9 1 0
BITMAP
3C
60
C0
C0
80
80
C0
60
3C
ENDCHAR
STARTCHAR 0442
ENCODING 1090
SWIDTH 420 0
DWIDTH 7 0
BBX 8 9 0 0
BITMAP
FF
18
18
18
18
18
18
18
18
ENDCHAR
STARTCHAR 0443
ENCODING 1091
SWIDTH 480 0
DWIDTH 8 0
BBX 8 13 0 -4
BITMAP
C1
43
63
62
26
34
14
1C
18
18
18
30
E0
ENDCHAR
STARTCHAR 0444
ENCODING 1092
SWIDTH 720 0
DWIDTH 12 0
BBX 10 17 1 -4
BITMAP
0C00
0C00
0C00
0C00
3F00
6D80
CCC0
CC40
8C40
CC40
CCC0
6D80
3F00
0C00
0C00
0C00
0C00
ENDCHAR
STARTCHAR 0445
ENCODING 1093
SWIDTH 480 0
DWIDTH 8 0
BBX 7 9 1 0
BITMAP
86
C4
6C
38
30
38
6C
C4
82
ENDCHAR
STARTCHAR 0446
ENCODING 1094
SWIDTH 600 0
DWIDTH 10 0
BBX 9 12 1 -3
BITMAP
C300
C300
C300
C300
C300
C300
C300
C300
FF80
0080
0080
0080
ENDCHAR
STARTCHAR 0447
ENCODING 1095
SWIDTH 600 0
DWIDTH 10 0
BBX 8 9 1 0
BITMAP
C3
C3
C3
C3
C7
7B
03
03
03
ENDCHAR
STARTCHAR 0448
ENCODING 1096
SWIDTH 840 0
DWIDTH 14 0
BBX 13 9 1 0
BITMAP
C218
C218
C218
C218
C218
C218
C218
C218
FFF8
ENDCHAR
STARTCHAR 0449
ENCODING 1097
SWIDTH 900 0
DWIDTH 15 0
BBX 14 12 1 -3
BITMAP
C218
C218
C218
C218
C218
C218
C218
C218
FFFC
000C
000C
000C
ENDCHAR
STARTCHAR 044A
ENCODING 1098
SWIDTH 660 0
DWIDTH 11 0
BBX 11 9 0 0
BITMAP
F800
1800
1800
1800
1FC0
1860
1860
1840
1FC0
ENDCHAR
STARTCHAR 044B
ENCODING 1099
SWIDTH 720 0
DWIDTH 12 0
BBX 11 9 1 0
BITMAP
C060
C060
C060
C060
FE60
C360
C360
C260
FC60
ENDCHAR
STARTCHAR 044C
ENCODING 1100
SWIDTH 540 0
DWIDTH 9 0
BBX 8 9 1 0
BITMAP
C0
C0
C0
C0
FE
C3
C1
C3
FE
ENDCHAR
STARTCHAR 044D
ENCODING 1101
SWIDTH 480 0
DWIDTH 8 0
BBX 7 9 0 0
BITMAP
7C
06
06
02
7E
02
06
86
F8
ENDCHAR
STARTCHAR 044E
ENCODING 1102
SWIDTH 780 0
DWIDTH 13 0
BBX 12 9 1 0
BITMAP
C3C0
C660
CC30
CC30
FC30
CC30
CC30
C620
C3C0
ENDCHAR
STARTCHAR 044F
ENCODING 1103
SWIDTH 540 0
DWIDTH 9 0
BBX 7 9 1 0
BITMAP
7E
C6
86
86
FE
26
66
C6
86
ENDCHAR
STARTCHAR 0450
ENCODING 1104
SWIDTH 540 0
DWIDTH 9 0
BBX 8 13 1 0
BITMAP
20
30
18
00
3C
46
C2
83
FF
80
C0
60
3E
ENDCHAR
STARTCHAR 0451
ENCODING 1105
SWIDTH 540 0
DWIDTH 9 0
BBX 8 12 1 0
BITMAP
64
00
00
3C
46
C2
83
FF
80
C0
60
3E
ENDCHAR
STARTCHAR 0452
ENCODING 1106
SWIDTH 600 0
DWIDTH 10 0
BBX 9 17 0 -4
BITMAP
6000
6000
FC00
6000
6E00
7B80
6180
6180
6180
6180
6180
6180
6180
0180
0180
0180
0300
ENDCHAR
STARTCHAR 0453
ENCODING 1107
SWIDTH 420 0
DWIDTH 7 0
BBX 6 13 1 0
BITMAP
08
18
30
00
FC
C0
C0
C0
C0
C0
C0
C0
C0
ENDCHAR
STARTCHAR 0454
ENCODING 1108
SWIDTH 480 0
DWIDTH 8 0
BBX 7 9 1 0
BITMAP
3E
60
C0
80
FC
80
C0
62
3E
ENDCHAR
STARTCHAR 0455
ENCODING 1109
SWIDTH 420 0
DWIDTH 7 0
BBX 6 9 1 0
BITMAP
7C
C4
80
E0
38
0C
04
0C
F8
ENDCHAR
STARTCHAR 0456
ENCODING 1110
SWIDTH 240 0
DWIDTH 4 0
BBX 2 12 1 0
BITMAP
C0
40
00
C0
C0
C0
C0
C0
C0
C0
C0
C0
ENDCHAR
STARTCHAR 0457
ENCODING 1111
SWIDTH 240 0
DWIDTH 4 0
BBX 4 12 0 0
BITMAP
90
00
00
60
60
60
60
60
60
60
60
60
ENDCHAR
STARTCHAR 0458
ENCODING 1112
SWIDTH 240 0
DWIDTH 4 0
BBX 4 16 -1 -4
BITMAP
30
10
00
30
30
30
30
30
30
30
30
30
30
30
30
E0
ENDCHAR
STARTCHAR 0459
ENCODING 1113
SWIDTH 840 0
DWIDTH 14 0
BBX 13 9 0 0
BITMAP
1F00
1300
1300
3300
33F0
3318
2308
6318
C3F0
ENDCHAR
STARTCHAR 045A
ENCODING 1114
SWIDTH 840 0
DWIDTH 14 0
BBX 13 9 1 0
BITMAP
C200
C200
C200
C200
FFF0
C218
C218
C218
C3F0
ENDCHAR
STARTCHAR 045B
ENCODING 1115
SWIDTH 600 0
DWIDTH 10 0
BBX 9 13 0 0
BITMAP
6000
6000
FC00
6000
6E00
7B80
6180
6180
6180
6180
6180
6180
6180
ENDCHAR
STARTCHAR 045C
ENCODING 1116
SWIDTH 480 0
DWIDTH 8 0
BBX 7 13 1 0
BITMAP
0C
18
10
00
C6
CC
C8
D0
F0
D8
C8
C4
C6
ENDCHAR
STARTCHAR 045D
ENCODING 1117
SWIDTH 600 0
DWIDTH 10 0
BBX 8 13 1 0
BITMAP
30
18
0C
00
C3
C3
C5
CD
C9
D1
F1
E1
E1
ENDCHAR
STARTCHAR 045E
ENCODING 1118
SWIDTH 480 0
DWIDTH 8 0
BBX 8 17 0 -4
BITMAP
62
62
3C
00
C1
43
63
62
26
34
14
1C
18
18
18
30
E0
ENDCHAR
STARTCHAR 045F
ENCODING 1119
SWIDTH 600 0
DWIDTH 10 0
BBX 8 12 1 -3
BITMAP
C1
C1
C1
C1
C1
C1
C1
C1
FF
08
08
08
ENDCHAR
STARTCHAR 0460
ENCODING 1120
SWIDTH 900 0
DWIDTH 15 0
BBX 15 12 0 0
BITMAP
C106
4106
4106
4186
6184
6384
2284
22CC
3648
1468
1C78
0C30
ENDCHAR
STARTCHAR 0461
ENCODING 1121
SWIDTH 780 0
DWIDTH 13 0
BBX 13 9 0 0
BITMAP
C218
C218
4210
4310
6710
6530
2D20
38E0
18C0
ENDCHAR
STARTCHAR 0462
ENCODING 1122
SWIDTH 660 0
DWIDTH 11 0
BBX 10 12 0 0
BITMAP
1000
1000
FF00
1000
1000
1F00
11C0
1040
1040
1040
10C0
1F80
ENDCHAR
STARTCHAR 0463
ENCODING 1123
SWIDTH 600 0
DWIDTH 10 0
BBX 10 11 0 0
BITMAP
3000
3000
FC00
3000
3000
3000
3F80
30C0
30C0
3080
3F00
ENDCHAR
STARTCHAR 0464
ENCODING 1124
SWIDTH 900 0
DWIDTH 15 0
BBX 13 12 2 0
BITMAP
81F0
8718
8600
8C00
8C00
FFE0
8800
8C00
8C00
8400
8700
83F0
ENDCHAR
STARTCHAR 0465
ENCODING 1125
SWIDTH 720 0
DWIDTH 12 0
BBX 11 9 1 0
BITMAP
C3E0
C600
CC00
CC00
FFC0
CC00
CC00
C620
C3E0
ENDCHAR
STARTCHAR 0466
ENCODING 1126
SWIDTH 660 0
DWIDTH 11 0
BBX 11 12 0 0
BITMAP
0600
0E00
0A00
0B00
1900
1F80
3F80
24C0
64C0
6440
4460
C420
ENDCHAR
STARTCHAR 0467
ENCODING 1127
SWIDTH 540 0
DWIDTH 9 0
BBX 9 9 0 0
BITMAP
0C00
1C00
1600
3200
3F00
2B00
6900
4980
C880
ENDCHAR
STARTCHAR 0468
ENCODING 1128
SWIDTH 900 0
DWIDTH 15 0
BBX 13 12 2 0
BITMAP
8180
8380
83C0
82C0
8640
FFE0
8D20
8D30
8930
9910
9118
B108
ENDCHAR
STARTCHAR 0469
ENCODING 1129
SWIDTH 780 0
DWIDTH 13 0
BBX 12 9 1 0
BITMAP
C300
C380
C680
C4C0
FFC0
C940
C960
D920
D130
ENDCHAR
STARTCHAR 046A
ENCODING 1130
SWIDTH 720 0
DWIDTH 12 0
BBX 12 12 0 0
BITMAP
7FE0
2060
30C0
1980
0D00
1F80
36C0
2660
6660
6620
4630
C630
ENDCHAR
STARTCHAR 046B
ENCODING 1131
SWIDTH 600 0
DWIDTH 10 0
BBX 10 9 0 0
BITMAP
7F80
2180
1300
0A00
3F80
6480
64C0
44C0
C440
ENDCHAR
STARTCHAR 046C
ENCODING 1132
SWIDTH 960 0
DWIDTH 16 0
BBX 14 12 2 0
BITMAP
8FF8
8818
8410
8220
8340
FFE0
86B0
8898
8888
988C
988C
9084
ENDCHAR
STARTCHAR 046D
ENCODING 1133
SWIDTH 840 0
DWIDTH 14 0
BBX 13 9 1 0
BITMAP
CFF0
CC20
C660
C3C0
FFE0
CDB0
C990
D990
D198
ENDCHAR
STARTCHAR 046E
ENCODING 1134
SWIDTH 540 0
DWIDTH 9 0
BBX 8 18 1 -4
BITMAP
6E
38
7C
C6
03
03
06
7C
1E
03
03
03
06
FC
80
80
FF
01
ENDCHAR
STARTCHAR 046F
ENCODING 1135
SWIDTH 480 0
DWIDTH 8 0
BBX 7 14 0 -3
BITMAP
66
38
7C
46
02
06
3C
02
02
06
7C
C0
C0
7E
ENDCHAR
STARTCHAR 0470
ENCODING 1136
SWIDTH 780 0
DWIDTH 13 0
BBX 11 12 1 0
BITMAP
C620
C620
C620
C620
4620
4660
6660
37C0
1F80
0600
0600
0600
ENDCHAR
STARTCHAR 0471
ENCODING 1137
SWIDTH 720 0
DWIDTH 12 0
BBX 10 17 1 -4
BITMAP
0C00
0C00
0C00
0C00
CCC0
CC40
CC40
CC40
CC40
CC40
4CC0
6D80
3F00
0C00
0C00
0C00
0C00
ENDCHAR
STARTCHAR 0472
ENCODING 1138
SWIDTH 780 0
DWIDTH 13 0
BBX 11 12 1 0
BITMAP
1F00
71C0
60C0
C060
C060
FFE0
FFE0
C060
C060
4040
71C0
1F00
ENDCHAR
STARTCHAR 0473
ENCODING 1139
SWIDTH 600 0
DWIDTH 10 0
BBX 8 9 1 0
BITMAP
3C
62
C3
81
FF
81
C3
42
3C
ENDCHAR
STARTCHAR 0474
ENCODING 1140
SWIDTH 600 0
DWIDTH 10 0
BBX 11 12 0 0
BITMAP
C060
40C0
4080
6180
2100
2100
3300
1200
1A00
1E00
0C00
0C00
ENDCHAR
STARTCHAR 0475
ENCODING 1141
SWIDTH 480 0
DWIDTH 8 0
BBX 9 9 0 0
BITMAP
C180
4300
4200
6200
2600
2400
3400
1C00
1800
ENDCHAR
STARTCHAR 0476
ENCODING 1142
SWIDTH 600 0
DWIDTH 10 0
BBX 11 16 0 0
BITMAP
2C00
3600
1200
0000
C060
40C0
4080
6180
2100
2100
3300
1200
1A00
1E00
0C00
0C00
ENDCHAR
STARTCHAR 0477
ENCODING 1143
SWIDTH 480 0
DWIDTH 8 0
BBX 9 13 0 0
BITMAP
4800
6C00
2400
0000
C180
4300
4200
6200
2600
2400
3400
1C00
1800
ENDCHAR
STARTCHAR 0478
ENCODING 1144
SWIDTH 1200 0
DWIDTH 20 0
BBX 19 16 1 -4
BITMAP
1F0000
718000
408000
C0D820
C0D860
C04840
C04C40
C0C4C0
C0C480
408780
618300
3F0300
000300
000200
000600
001C00
ENDCHAR
STARTCHAR 0479
ENCODING 1145
SWIDTH 1080 0
DWIDTH 18 0
BBX 17 13 1 -4
BITMAP
3C4080
666180
C32100
C13300
811300
C11200
C31E00
620C00
3C0C00
000C00
000800
001800
007000
ENDCHAR
STARTCHAR 047A
ENCODING 1146
SWIDTH 780 0
DWIDTH 13 0
BBX 12 14 1 -1
BITMAP
0600
1F80
36C0
6060
C020
C030
C030
C030
C030
C020
6060
36C0
1F80
0600
ENDCHAR
STARTCHAR 047B
ENCODING 1147
SWIDTH 600 0
DWIDTH 10 0
BBX 9 11 1 -1
BITMAP
0800
3E00
6B00
C180
C180
8080
C180
C180
6B00
3E00
0800
ENDCHAR
STARTCHAR 047C
ENCODING 1148
SWIDTH 1020 0
DWIDTH 17 0
BBX 15 17 1 0
BITMAP
0780
0460
0100
0100
0000
3C78
600C
4004
C006
C006
C002
C002
C106
C106
4104
638C
3EF8
ENDCHAR
STARTCHAR 047D
ENCODING 1149
SWIDTH 900 0
DWIDTH 15 0
BBX 13 15 1 0
BITMAP
0600
0BC0
0200
0200
0600
0000
38F0
4010
C018
C008
8208
C208
C218
6710
3DF0
ENDCHAR
STARTCHAR 047E
ENCODING 1150
SWIDTH 900 0
DWIDTH 15 0
BBX 15 15 0 0
BITMAP
0FE0
0520
0000
C106
4106
4106
4186
6184
6384
2284
22CC
3648
1468
1C78
0C30
ENDCHAR
STARTCHAR 047F
ENCODING 1151
SWIDTH 780 0
DWIDTH 13 0
BBX 13 12 0 0
BITMAP
1FC0
0200
0000
C218
C218
4210
4310
6710
6530
2D20
38E0
18C0
ENDCHAR
STARTCHAR 0480
ENCODING 1152
SWIDTH 600 0
DWIDTH 10 0
BBX 9 16 1 -4
BITMAP
1F80
3080
6000
C000
C000
C000
C000
C000
C000
6000
7000
1E00
0200
0200
0200
0200
ENDCHAR
STARTCHAR 0481
ENCODING 1153
SWIDTH 480 0
DWIDTH 8 0
BBX 7 13 1 -4
BITMAP
3E
60
C0
C0
80
80
C0
60
3C
0C
0C
0C
0C
ENDCHAR
STARTCHAR 0482
ENCODING 1154
SWIDTH 600 0
DWIDTH 10 0
BBX 8 10 1 0
BITMAP
02
36
1C
0E
09
D0
30
38
64
40
ENDCHAR
STARTCHAR 0483
ENCODING 1155
SWIDTH 0 0
DWIDTH 0 0
BBX 6 2 -8 9
BITMAP
04
FC
ENDCHAR
STARTCHAR 0484
ENCODING 1156
SWIDTH 0 0
DWIDTH 0 0
BBX 6 2 -8 10
BITMAP
3C
C4
ENDCHAR
STARTCHAR 0485
ENCODING 1157
SWIDTH 0 0
DWIDTH 0 0
BBX 2 3 -6 10
BITMAP
C0
80
40
ENDCHAR
STARTCHAR 0486
ENCODING 1158
SWIDTH 0 0
DWIDTH 0 0
BBX 2 3 -6 10
BITMAP
C0
40
80
ENDCHAR
STARTCHAR 0487
ENCODING 1159
SWIDTH 0 0
DWIDTH 0 0
BBX 6 2 -3 13
BITMAP
60
9C
ENDCHAR
STARTCHAR 0488
ENCODING 1160
SWIDTH 0 0
DWIDTH 0 0
BBX 18 17 -9 -4
BITMAP
01C000
012000
000000
380700
400080
000000
000000
000000
E001C0
000000
000000
000000
100200
680500
000000
00C000
012000
ENDCHAR
STARTCHAR 0489
ENCODING 1161
SWIDTH 0 0
DWIDTH 0 0
BBX 18 19 -9 -5
BITMAP
004000
004000
00C000
108100
180600
080400
000000
000000
000000
E001C0
000000
000000
000000
000400
1C0600
304200
00C200
008000
008000
ENDCHAR
STARTCHAR 048A
ENCODING 1162
SWIDTH 780 0
DWIDTH 13 0
BBX 11 18 2 -3
BITMAP
6200
3E00
0000
8180
8180
8380
8680
8480
8C80
9880
9080
B080
E080
C080
C0E0
0040
0040
00C0
ENDCHAR
STARTCHAR 048B
ENCODING 1163
SWIDTH 600 0
DWIDTH 10 0
BBX 10 16 1 -3
BITMAP
6300
2200
1C00
0000
C300
C300
C500
CD00
C900
D100
F100
E100
E1C0
0080
0080
0180
ENDCHAR
STARTCHAR 048C
ENCODING 1164
SWIDTH 600 0
DWIDTH 10 0
BBX 9 12 0 0
BITMAP
2000
2000
FC00
2000
2000
3E00
2380
2080
2080
2080
2380
3F00
ENDCHAR
STARTCHAR 048D
ENCODING 1165
SWIDTH 540 0
DWIDTH 9 0
BBX 9 13 0 0
BITMAP
6000
6000
F800
6000
6000
6000
6000
6000
7F00
6180
6080
6180
7F00
ENDCHAR
STARTCHAR 048E
ENCODING 1166
SWIDTH 600 0
DWIDTH 10 0
BBX 7 12 2 0
BITMAP
F8
8E
82
82
92
9E
FC
84
80
80
80
80
ENDCHAR
STARTCHAR 048F
ENCODING 1167
SWIDTH 600 0
DWIDTH 10 0
BBX 8 13 1 -4
BITMAP
DE
E3
C1
C1
C1
C1
C9
E7
DE
C3
C0
C0
C0
ENDCHAR
STARTCHAR 0490
ENCODING 1168
SWIDTH 480 0
DWIDTH 8 0
BBX 6 14 2 0
BITMAP
04
04
FC
80
80
80
80
80
80
80
80
80
80
80
ENDCHAR
STARTCHAR 0491
ENCODING 1169
SWIDTH 420 0
DWIDTH 7 0
BBX 6 12 1 0
BITMAP
0C
0C
0C
FC
C0
C0
C0
C0
C0
C0
C0
C0
ENDCHAR
STARTCHAR 0492
ENCODING 1170
SWIDTH 480 0
DWIDTH 8 0
BBX 8 12 0 0
BITMAP
3F
20
20
20
20
FE
FE
20
20
20
20
20
ENDCHAR
STARTCHAR 0493
ENCODING 1171
SWIDTH 420 0
DWIDTH 7 0
BBX 7 9 0 0
BITMAP
7E
60
60
60
FC
60
60
60
60
ENDCHAR
STARTCHAR 0494
ENCODING 1172
SWIDTH 600 0
DWIDTH 10 0
BBX 8 16 2 -4
BITMAP
FE
80
80
80
80
B0
FC
86
83
81
81
81
01
03
06
3C
ENDCHAR
STARTCHAR 0495
ENCODING 1173
SWIDTH 480 0
DWIDTH 8 0
BBX 7 13 1 -4
BITMAP
FC
C0
C0
C0
FC
C6
C2
C2
C2
02
02
06
3C
ENDCHAR
STARTCHAR 0496
ENCODING 1174
SWIDTH 900 0
DWIDTH 15 0
BBX 15 15 0 -3
BITMAP
430C
6318
3330
1B20
0B60
0FC0
0FC0
0B60
1320
3310
6318
C30E
0006
0006
0006
ENDCHAR
STARTCHAR 0497
ENCODING 1175
SWIDTH 780 0
DWIDTH 13 0
BBX 13 12 0 -3
BITMAP
4230
2260
3240
1A80
0F80
1A80
3240
6220
C238
0008
0008
0008
ENDCHAR
STARTCHAR 0498
ENCODING 1176
SWIDTH 540 0
DWIDTH 9 0
BBX 8 16 1 -4
BITMAP
7C
C6
03
03
06
7C
1E
03
03
03
86
FC
10
08
18
30
ENDCHAR
STARTCHAR 0499
ENCODING 1177
SWIDTH 480 0
DWIDTH 8 0
BBX 6 13 1 -4
BITMAP
F8
8C
04
0C
78
04
04
0C
F8
20
10
10
20
ENDCHAR
STARTCHAR 049A
ENCODING 1178
SWIDTH 660 0
DWIDTH 11 0
BBX 9 15 2 -3
BITMAP
8300
8600
8C00
9800
B000
E000
A000
B000
9800
8C00
8600
8380
0180
0180
0180
ENDCHAR
STARTCHAR 049B
ENCODING 1179
SWIDTH 540 0
DWIDTH 9 0
BBX 8 12 1 -3
BITMAP
C6
CC
C8
D0
F0
D8
C8
C4
C7
01
01
01
ENDCHAR
STARTCHAR 049C
ENCODING 1180
SWIDTH 600 0
DWIDTH 10 0
BBX 8 12 2 0
BITMAP
83
86
AC
B8
B0
E0
A0
B0
B8
AC
86
83
ENDCHAR
STARTCHAR 049D
ENCODING 1181
SWIDTH 480 0
DWIDTH 8 0
BBX 7 9 1 0
BITMAP
C6
DC
D8
D0
F0
D8
D8
D4
C6
ENDCHAR
STARTCHAR 049E
ENCODING 1182
SWIDTH 600 0
DWIDTH 10 0
BBX 10 12 0 0
BITMAP
20C0
2180
FB00
2600
2C00
3800
2800
2C00
2600
2300
2180
20C0
ENDCHAR
STARTCHAR 049F
ENCODING 1183
SWIDTH 480 0
DWIDTH 8 0
BBX 8 13 0 0
BITMAP
60
60
FC
60
63
66
64
68
78
6C
64
62
63
ENDCHAR
STARTCHAR 04A0
ENCODING 1184
SWIDTH 660 0
DWIDTH 11 0
BBX 11 12 0 0
BITMAP
F060
10C0
1180
1300
1200
1400
1E00
1300
1100
1080
10C0
1060
ENDCHAR
STARTCHAR 04A1
ENCODING 1185
SWIDTH 600 0
DWIDTH 10 0
BBX 10 9 0 0
BITMAP
F8C0
1980
1B00
1E00
1C00
1A00
1B00
1980
18C0
ENDCHAR
STARTCHAR 04A2
ENCODING 1186
SWIDTH 720 0
DWIDTH 12 0
BBX 10 15 2 -3
BITMAP
8180
8180
8180
8180
8180
FF80
8180
8180
8180
8180
8180
81C0
0040
0040
0040
ENDCHAR
STARTCHAR 04A3
ENCODING 1187
SWIDTH 600 0
DWIDTH 10 0
BBX 10 12 1 -3
BITMAP
C100
C100
C100
C100
FF00
C100
C100
C100
C1C0
00C0
00C0
00C0
ENDCHAR
STARTCHAR 04A4
ENCODING 1188
SWIDTH 780 0
DWIDTH 13 0
BBX 11 12 2 0
BITMAP
81E0
8180
8180
8180
8180
FF80
8180
8180
8180
8180
8180
8180
ENDCHAR
STARTCHAR 04A5
ENCODING 1189
SWIDTH 720 0
DWIDTH 12 0
BBX 11 9 1 0
BITMAP
C1E0
C100
C100
C100
FF00
C100
C100
C100
C100
ENDCHAR
STARTCHAR 04A6
ENCODING 1190
SWIDTH 1020 0
DWIDTH 17 0
BBX 15 16 2 -4
BITMAP
FF00
8100
8100
8100
8100
8140
81F8
810C
8106
8106
8106
8106
0006
0006
000C
00F8
ENDCHAR
STARTCHAR 04A7
ENCODING 1191
SWIDTH 840 0
DWIDTH 14 0
BBX 13 13 1 -4
BITMAP
FF00
C300
C300
C300
C3E0
C330
C318
C318
C318
0018
0018
0030
00E0
ENDCHAR
STARTCHAR 04A8
ENCODING 1192
SWIDTH 720 0
DWIDTH 12 0
BBX 11 13 1 -1
BITMAP
1E00
7000
4180
C3C0
C660
C460
C460
C460
C660
4640
73C0
1FE0
0060
ENDCHAR
STARTCHAR 04A9
ENCODING 1193
SWIDTH 600 0
DWIDTH 10 0
BBX 9 9 1 0
BITMAP
3800
4000
C700
8D80
8980
8980
CD80
4700
3F80
ENDCHAR
STARTCHAR 04AA
ENCODING 1194
SWIDTH 600 0
DWIDTH 10 0
BBX 9 16 1 -4
BITMAP
1F80
3180
6000
C000
C000
C000
C000
C000
C000
6000
7080
1F80
0400
0400
0400
0C00
ENDCHAR
STARTCHAR 04AB
ENCODING 1195
SWIDTH 480 0
DWIDTH 8 0
BBX 6 13 1 -4
BITMAP
3C
60
C0
C0
80
80
C0
60
3C
10
08
08
10
ENDCHAR
STARTCHAR 04AC
ENCODING 1196
SWIDTH 540 0
DWIDTH 9 0
BBX 9 15 0 -3
BITMAP
FF80
0800
0800
0800
0800
0800
0800
0800
0800
0800
0800
0E00
0600
0600
0600
ENDCHAR
STARTCHAR 04AD
ENCODING 1197
SWIDTH 420 0
DWIDTH 7 0
BBX 8 12 0 -3
BITMAP
FF
18
18
18
18
18
18
18
1C
04
04
04
ENDCHAR
STARTCHAR 04AE
ENCODING 1198
SWIDTH 540 0
DWIDTH 9 0
BBX 9 12 0 0
BITMAP
C080
4180
6100
2300
3600
1400
1C00
0800
0800
0800
0800
0800
ENDCHAR
STARTCHAR 04AF
ENCODING 1199
SWIDTH 480 0
DWIDTH 8 0
BBX 8 13 0 -4
BITMAP
C1
43
43
62
26
34
14
1C
18
18
18
18
18
ENDCHAR
STARTCHAR 04B0
ENCODING 1200
SWIDTH 540 0
DWIDTH 9 0
BBX 9 12 0 0
BITMAP
C080
4180
6100
2300
3600
1400
1C00
0800
7F00
0800
0800
0800
ENDCHAR
STARTCHAR 04B1
ENCODING 1201
SWIDTH 480 0
DWIDTH 8 0
BBX 8 13 0 -4
BITMAP
C1
43
43
62
26
34
14
1C
18
7E
18
18
18
ENDCHAR
STARTCHAR 04B2
ENCODING 1202
SWIDTH 600 0
DWIDTH 10 0
BBX 10 15 0 -3
BITMAP
4080
6180
2300
1200
1E00
0C00
0C00
1600
3200
2300
6180
C0C0
0040
0040
0040
ENDCHAR
STARTCHAR 04B3
ENCODING 1203
SWIDTH 540 0
DWIDTH 9 0
BBX 8 12 1 -3
BITMAP
86
C4
6C
38
30
38
6C
C4
83
01
01
01
ENDCHAR
STARTCHAR 04B4
ENCODING 1204
SWIDTH 840 0
DWIDTH 14 0
BBX 14 15 0 -3
BITMAP
FF98
0818
0818
0818
0818
0818
0818
0818
0818
0818
0818
0FFC
0004
0004
0004
ENDCHAR
STARTCHAR 04B5
ENCODING 1205
SWIDTH 720 0
DWIDTH 12 0
BBX 12 12 0 -3
BITMAP
FE40
1040
1040
1040
1040
1040
1040
1040
1FF0
0030
0030
0030
ENDCHAR
STARTCHAR 04B6
ENCODING 1206
SWIDTH 660 0
DWIDTH 11 0
BBX 10 15 1 -3
BITMAP
C080
C080
C080
C080
C080
C080
6780
3C80
0080
0080
0080
00C0
0040
0040
0040
ENDCHAR
STARTCHAR 04B7
ENCODING 1207
SWIDTH 600 0
DWIDTH 10 0
BBX 9 12 1 -3
BITMAP
C300
C300
C300
C300
C700
7B00
0300
0300
0380
0080
0080
0080
ENDCHAR
STARTCHAR 04B8
ENCODING 1208
SWIDTH 660 0
DWIDTH 11 0
BBX 9 12 1 0
BITMAP
C180
C180
C180
C180
C980
C980
6F80
3D80
0980
0980
0180
0180
ENDCHAR
STARTCHAR 04B9
ENCODING 1209
SWIDTH 600 0
DWIDTH 10 0
BBX 8 9 1 0
BITMAP
C3
C3
D3
D3
D7
7B
13
13
03
ENDCHAR
STARTCHAR 04BA
ENCODING 1210
SWIDTH 660 0
DWIDTH 11 0
BBX 8 12 2 0
BITMAP
80
80
80
80
9C
FF
81
81
81
81
81
81
ENDCHAR
STARTCHAR 04BB
ENCODING 1211
SWIDTH 600 0
DWIDTH 10 0
BBX 8 13 1 0
BITMAP
C0
C0
C0
C0
DE
E3
C3
C3
C3
C3
C3
C3
C3
ENDCHAR
STARTCHAR 04BC
ENCODING 1212
SWIDTH 840 0
DWIDTH 14 0
BBX 13 12 0 0
BITMAP
03E0
0E30
0818
1818
D808
7FF8
3FF8
1800
1800
0800
0E10
03F0
ENDCHAR
STARTCHAR 04BD
ENCODING 1213
SWIDTH 660 0
DWIDTH 11 0
BBX 10 9 0 0
BITMAP
0F80
18C0
D040
D040
7FC0
1000
1000
1840
0FC0
ENDCHAR
STARTCHAR 04BE
ENCODING 1214
SWIDTH 840 0
DWIDTH 14 0
BBX 13 15 0 -3
BITMAP
03E0
0E30
0818
1818
D808
7FF8
3FF8
1800
1800
0800
0E10
03F0
0080
0080
0080
ENDCHAR
STARTCHAR 04BF
ENCODING 1215
SWIDTH 660 0
DWIDTH 11 0
BBX 10 12 0 -3
BITMAP
0F80
18C0
D040
D040
7FC0
1000
1000
1840
0FC0
0200
0200
0200
ENDCHAR
STARTCHAR 04C0
ENCODING 1216
SWIDTH 300 0
DWIDTH 5 0
BBX 4 12 1 0
BITMAP
F0
60
60
60
60
60
60
60
60
60
60
F0
ENDCHAR
STARTCHAR 04C1
ENCODING 1217
SWIDTH 840 0
DWIDTH 14 0
BBX 14 16 0 0
BITMAP
0840
0CC0
0780
0000
430C
6318
3330
1B20
0B60
0FC0
0FC0
0B60
1320
3310
6318
C30C
ENDCHAR
STARTCHAR 04C2
ENCODING 1218
SWIDTH 720 0
DWIDTH 12 0
BBX 12 13 0 0
BITMAP
1880
1880
0F00
0000
4230
2260
3240
1A80
0F80
1A80
3240
6220
C230
ENDCHAR
STARTCHAR 04C3
ENCODING 1219
SWIDTH 660 0
DWIDTH 11 0
BBX 9 16 2 -4
BITMAP
8300
8600
8C00
9800
B000
A000
FE00
8300
8100
8180
8180
8180
0180
0100
0300
3E00
ENDCHAR
STARTCHAR 04C4
ENCODING 1220
SWIDTH 540 0
DWIDTH 9 0
BBX 8 13 1 -4
BITMAP
C6
CC
C8
D0
FC
C6
C2
C3
C3
03
03
26
3C
ENDCHAR
STARTCHAR 04C5
ENCODING 1221
SWIDTH 660 0
DWIDTH 11 0
BBX 12 15 0 -3
BITMAP
0FC0
1840
1840
1840
1840
1040
1040
1040
3040
3040
2040
E070
0020
0020
0060
ENDCHAR
STARTCHAR 04C6
ENCODING 1222
SWIDTH 540 0
DWIDTH 9 0
BBX 10 12 0 -3
BITMAP
1F00
1100
1100
3100
3100
3100
2100
6100
C1C0
0080
0080
0180
ENDCHAR
STARTCHAR 04C7
ENCODING 1223
SWIDTH 720 0
DWIDTH 12 0
BBX 9 16 2 -4
BITMAP
8180
8180
8180
8180
8180
FF80
8180
8180
8180
8180
8180
8180
0180
0100
0300
3E00
ENDCHAR
STARTCHAR 04C8
ENCODING 1224
SWIDTH 600 0
DWIDTH 10 0
BBX 8 13 1 -4
BITMAP
C1
C1
C1
C1
FF
C1
C1
C1
C1
01
03
03
1E
ENDCHAR
STARTCHAR 04C9
ENCODING 1225
SWIDTH 720 0
DWIDTH 12 0
BBX 10 15 2 -3
BITMAP
8180
8180
8180
8180
8180
FF80
8180
8180
8180
8180
8180
81C0
0040
00C0
0080
ENDCHAR
STARTCHAR 04CA
ENCODING 1226
SWIDTH 660 0
DWIDTH 11 0
BBX 10 12 1 -3
BITMAP
C100
C100
C100
C100
FF00
C100
C100
C100
C1C0
0080
0080
0180
ENDCHAR
STARTCHAR 04CB
ENCODING 1227
SWIDTH 660 0
DWIDTH 11 0
BBX 9 15 1 -3
BITMAP
C080
C080
C080
C080
C080
C080
6780
3C80
0080
0080
0080
0380
0300
0300
0300
ENDCHAR
STARTCHAR 04CC
ENCODING 1228
SWIDTH 600 0
DWIDTH 10 0
BBX 8 12 1 -3
BITMAP
C3
C3
C3
C3
C7
7B
03
03
07
04
04
04
ENDCHAR
STARTCHAR 04CD
ENCODING 1229
SWIDTH 900 0
DWIDTH 15 0
BBX 13 15 2 -3
BITMAP
C070
C070
E0F0
A0B0
A0B0
B1B0
9130
9B30
8A30
8A30
8E30
8438
0018
0010
0030
ENDCHAR
STARTCHAR 04CE
ENCODING 1230
SWIDTH 720 0
DWIDTH 12 0
BBX 11 12 1 -3
BITMAP
E0C0
E1C0
E140
F140
D340
DA40
CE40
CC40
CC60
0020
0060
0060
ENDCHAR
STARTCHAR 04CF
ENCODING 1231
SWIDTH 300 0
DWIDTH 5 0
BBX 4 12 1 0
BITMAP
F0
60
60
60
60
60
60
60
60
60
60
F0
ENDCHAR
STARTCHAR 04D0
ENCODING 1232
SWIDTH 600 0
DWIDTH 10 0
BBX 10 16 0 0
BITMAP
3100
3100
1E00
0000
0C00
0E00
0A00
1A00
1300
1100
3180
3F80
6080
40C0
4040
C040
ENDCHAR
STARTCHAR 04D1
ENCODING 1233
SWIDTH 540 0
DWIDTH 9 0
BBX 7 13 1 0
BITMAP
46
46
3C
00
7C
46
02
02
7E
C2
86
C6
7A
ENDCHAR
STARTCHAR 04D2
ENCODING 1234
SWIDTH 600 0
DWIDTH 10 0
BBX 10 15 0 0
BITMAP
1B00
0000
0000
0C00
0E00
0A00
1A00
1300
1100
3180
3F80
6080
40C0
4040
C040
ENDCHAR
STARTCHAR 04D3
ENCODING 1235
SWIDTH 540 0
DWIDTH 9 0
BBX 7 12 1 0
BITMAP
6C
00
00
7C
46
02
02
7E
C2
86
C6
7A
ENDCHAR
STARTCHAR 04D4
ENCODING 1236
SWIDTH 840 0
DWIDTH 14 0
BBX 14 12 0 0
BITMAP
07FC
0580
0D80
0D80
0980
19F8
1180
3F80
2180
6180
4180
C1FC
ENDCHAR
STARTCHAR 04D5
ENCODING 1237
SWIDTH 840 0
DWIDTH 14 0
BBX 13 9 1 0
BITMAP
7DE0
4730
0610
0618
7FF8
C600
8600
CF00
79F0
ENDCHAR
STARTCHAR 04D6
ENCODING 1238
SWIDTH 540 0
DWIDTH 9 0
BBX 6 16 2 0
BITMAP
84
CC
78
00
FC
80
80
80
80
FC
80
80
80
80
80
FC
ENDCHAR
STARTCHAR 04D7
ENCODING 1239
SWIDTH 540 0
DWIDTH 9 0
BBX 8 13 1 0
BITMAP
46
46
3C
00
3C
46
C2
83
FF
80
C0
60
3E
ENDCHAR
STARTCHAR 04D8
ENCODING 1240
SWIDTH 720 0
DWIDTH 12 0
BBX 10 12 1 0
BITMAP
7E00
4380
0080
00C0
0040
FFC0
FFC0
C040
C0C0
40C0
6180
3F00
ENDCHAR
STARTCHAR 04D9
ENCODING 1241
SWIDTH 540 0
DWIDTH 9 0
BBX 7 9 1 0
BITMAP
FC
86
02
02
FE
82
C2
C6
7C
ENDCHAR
STARTCHAR 04DA
ENCODING 1242
SWIDTH 720 0
DWIDTH 12 0
BBX 10 15 1 0
BITMAP
3200
0000
0000
7E00
4380
0080
00C0
0040
FFC0
FFC0
C040
C0C0
40C0
6180
3F00
ENDCHAR
STARTCHAR 04DB
ENCODING 1243
SWIDTH 540 0
DWIDTH 9 0
BBX 7 12 1 0
BITMAP
6C
00
00
FC
86
02
02
FE
82
C2
C6
7C
ENDCHAR
STARTCHAR 04DC
ENCODING 1244
SWIDTH 840 0
DWIDTH 14 0
BBX 14 15 0 0
BITMAP
0480
0400
0000
430C
6318
3330
1B20
0B60
0FC0
0FC0
0B60
1320
3310
6318
C30C
ENDCHAR
STARTCHAR 04DD
ENCODING 1245
SWIDTH 720 0
DWIDTH 12 0
BBX 12 12 0 0
BITMAP
0980
0000
0000
4230
2260
3240
1A80
0F80
1A80
3240
6220
C230
ENDCHAR
STARTCHAR 04DE
ENCODING 1246
SWIDTH 540 0
DWIDTH 9 0
BBX 8 15 1 0
BITMAP
64
00
00
7C
C6
03
03
06
7C
1E
03
03
03
86
FC
ENDCHAR
STARTCHAR 04DF
ENCODING 1247
SWIDTH 480 0
DWIDTH 8 0
BBX 6 12 1 0
BITMAP
48
00
00
F8
8C
04
0C
78
04
04
0C
F8
ENDCHAR
STARTCHAR 04E0
ENCODING 1248
SWIDTH 540 0
DWIDTH 9 0
BBX 8 12 1 0
BITMAP
FE
06
0C
18
30
78
0E
03
03
03
06
FC
ENDCHAR
STARTCHAR 04E1
ENCODING 1249
SWIDTH 480 0
DWIDTH 8 0
BBX 8 13 0 -4
BITMAP
FE
06
0C
08
10
38
0E
02
03
03
02
86
FC
ENDCHAR
STARTCHAR 04E2
ENCODING 1250
SWIDTH 720 0
DWIDTH 12 0
BBX 9 14 2 0
BITMAP
3E00
0000
8180
8180
8380
8680
8480
8C80
9880
9080
B080
E080
C080
C080
ENDCHAR
STARTCHAR 04E3
ENCODING 1251
SWIDTH 600 0
DWIDTH 10 0
BBX 8 11 1 0
BITMAP
3E
00
C3
C3
C5
CD
C9
D1
F1
E1
E1
ENDCHAR
STARTCHAR 04E4
ENCODING 1252
SWIDTH 720 0
DWIDTH 12 0
BBX 9 15 2 0
BITMAP
3600
0000
0000
8180
8180
8380
8680
8480
8C80
9880
9080
B080
E080
C080
C080
ENDCHAR
STARTCHAR 04E5
ENCODING 1253
SWIDTH 600 0
DWIDTH 10 0
BBX 8 12 1 0
BITMAP
36
00
00
C3
C3
C5
CD
C9
D1
F1
E1
E1
ENDCHAR
STARTCHAR 04E6
ENCODING 1254
SWIDTH 780 0
DWIDTH 13 0
BBX 11 15 1 0
BITMAP
1B00
0000
0000
1F00
71C0
60C0
C060
C060
C060
C060
C060
C060
4040
71C0
1F00
ENDCHAR
STARTCHAR 04E7
ENCODING 1255
SWIDTH 600 0
DWIDTH 10 0
BBX 8 12 1 0
BITMAP
24
00
00
3C
66
C3
C1
81
C1
C3
62
3C
ENDCHAR
STARTCHAR 04E8
ENCODING 1256
SWIDTH 780 0
DWIDTH 13 0
BBX 11 12 1 0
BITMAP
1F00
71C0
60C0
C060
C060
FFE0
FFE0
C060
C060
4040
71C0
1F00
ENDCHAR
STARTCHAR 04E9
ENCODING 1257
SWIDTH 600 0
DWIDTH 10 0
BBX 8 9 1 0
BITMAP
3C
62
C3
81
FF
81
C3
42
3C
ENDCHAR
STARTCHAR 04EA
ENCODING 1258
SWIDTH 780 0
DWIDTH 13 0
BBX 11 15 1 0
BITMAP
1B00
1900
0000
1F00
71C0
60C0
C060
C060
FFE0
FFE0
C060
C060
4040
71C0
1F00
ENDCHAR
STARTCHAR 04EB
ENCODING 1259
SWIDTH 600 0
DWIDTH 10 0
BBX 8 12 1 0
BITMAP
24
00
00
3C
62
C3
81
FF
81
C3
42
3C
ENDCHAR
STARTCHAR 04EC
ENCODING 1260
SWIDTH 600 0
DWIDTH 10 0
BBX 9 15 1 0
BITMAP
4800
0800
0000
FC00
8E00
0300
0100
0100
7F80
0100
0100
0100
0300
0600
FC00
ENDCHAR
STARTCHAR 04ED
ENCODING 1261
SWIDTH 480 0
DWIDTH 8 0
BBX 7 12 0 0
BITMAP
6C
00
00
7C
06
06
02
7E
02
06
86
F8
ENDCHAR
STARTCHAR 04EE
ENCODING 1262
SWIDTH 600 0
DWIDTH 10 0
BBX 10 14 0 0
BITMAP
1F00
0000
C040
60C0
6080
3180
3100
1B00
1B00
0E00
0600
0C00
0C00
7800
ENDCHAR
STARTCHAR 04EF
ENCODING 1263
SWIDTH 480 0
DWIDTH 8 0
BBX 8 15 0 -4
BITMAP
3E
00
C1
43
63
62
26
34
14
1C
18
18
18
30
E0
ENDCHAR
STARTCHAR 04F0
ENCODING 1264
SWIDTH 600 0
DWIDTH 10 0
BBX 10 15 0 0
BITMAP
1B00
0000
0000
C040
60C0
6080
3180
3100
1B00
1B00
0E00
0600
0C00
0C00
7800
ENDCHAR
STARTCHAR 04F1
ENCODING 1265
SWIDTH 480 0
DWIDTH 8 0
BBX 8 16 0 -4
BITMAP
26
00
00
C1
43
63
62
26
34
14
1C
18
18
18
30
E0
ENDCHAR
STARTCHAR 04F2
ENCODING 1266
SWIDTH 600 0
DWIDTH 10 0
BBX 10 16 0 0
BITMAP
0480
0D80
0B00
0000
C040
60C0
6080
3180
3100
1B00
1B00
0E00
0600
0C00
0C00
7800
ENDCHAR
STARTCHAR 04F3
ENCODING 1267
SWIDTH 480 0
DWIDTH 8 0
BBX 8 17 0 -4
BITMAP
0B
12
24
00
C1
43
63
62
26
34
14
1C
18
18
18
30
E0
ENDCHAR
STARTCHAR 04F4
ENCODING 1268
SWIDTH 660 0
DWIDTH 11 0
BBX 9 15 1 0
BITMAP
3600
0000
0000
C080
C080
C080
C080
C080
C080
6780
3C80
0080
0080
0080
0080
ENDCHAR
STARTCHAR 04F5
ENCODING 1269
SWIDTH 600 0
DWIDTH 10 0
BBX 8 12 1 0
BITMAP
24
00
00
C3
C3
C3
C3
C7
7B
03
03
03
ENDCHAR
STARTCHAR 04F6
ENCODING 1270
SWIDTH 480 0
DWIDTH 8 0
BBX 6 15 2 -3
BITMAP
FC
80
80
80
80
80
80
80
80
80
80
E0
60
60
60
ENDCHAR
STARTCHAR 04F7
ENCODING 1271
SWIDTH 420 0
DWIDTH 7 0
BBX 6 12 1 -3
BITMAP
FC
C0
C0
C0
C0
C0
C0
C0
E0
20
20
20
ENDCHAR
STARTCHAR 04F8
ENCODING 1272
SWIDTH 840 0
DWIDTH 14 0
BBX 11 15 2 0
BITMAP
1300
0000
0000
8060
8060
8060
8060
8060
F860
8E60
8260
8260
8260
8660
FC60
ENDCHAR
STARTCHAR 04F9
ENCODING 1273
SWIDTH 720 0
DWIDTH 12 0
BBX 11 12 1 0
BITMAP
1B00
0000
0000
C060
C060
C060
C060
FE60
C360
C360
C260
FC60
ENDCHAR
STARTCHAR 04FA
ENCODING 1274
SWIDTH 480 0
DWIDTH 8 0
BBX 8 15 0 -3
BITMAP
3F
20
20
20
20
FE
FE
20
20
20
20
30
10
10
70
ENDCHAR
STARTCHAR 04FB
ENCODING 1275
SWIDTH 420 0
DWIDTH 7 0
BBX 7 12 0 -3
BITMAP
7E
60
60
60
FC
60
60
60
70
10
10
70
ENDCHAR
STARTCHAR 04FC
ENCODING 1276
SWIDTH 600 0
DWIDTH 10 0
BBX 10 15 0 -3
BITMAP
4080
6180
2300
1200
1E00
0C00
0C00
1600
3200
2300
6180
C0C0
0040
0040
01C0
ENDCHAR
STARTCHAR 04FD
ENCODING 1277
SWIDTH 540 0
DWIDTH 9 0
BBX 8 12 1 -3
BITMAP
86
C4
6C
38
30
38
6C
C4
83
01
01
07
ENDCHAR
STARTCHAR 04FE
ENCODING 1278
SWIDTH 540 0
DWIDTH 9 0
BBX 9 12 0 0
BITMAP
4080
6180
2300
1200
1E00
7F80
0C00
1600
3200
2300
6180
C080
ENDCHAR
STARTCHAR 04FF
ENCODING 1279
SWIDTH 480 0
DWIDTH 8 0
BBX 7 9 1 0
BITMAP
86
C4
6C
38
FE
38
6C
C4
82
ENDCHAR
STARTCHAR 0500
ENCODING 1280
SWIDTH 600 0
DWIDTH 10 0
BBX 8 12 1 0
BITMAP
03
03
03
03
03
3F
73
C3
C3
C3
E3
3F
ENDCHAR
STARTCHAR 0501
ENCODING 1281
SWIDTH 600 0
DWIDTH 10 0
BBX 8 13 1 0
BITMAP
03
03
03
03
3F
67
C3
C3
83
83
C3
47
7D
ENDCHAR
STARTCHAR 0502
ENCODING 1282
SWIDTH 900 0
DWIDTH 15 0
BBX 13 12 1 0
BITMAP
0200
0200
0200
0200
0200
3E18
7218
C218
C218
C210
C730
7DE0
ENDCHAR
STARTCHAR 0503
ENCODING 1283
SWIDTH 840 0
DWIDTH 14 0
BBX 13 13 1 0
BITMAP
0300
0300
0300
0300
3B00
4700
C300
8318
8318
8318
C318
4710
7DF0
ENDCHAR
STARTCHAR 0504
ENCODING 1284
SWIDTH 900 0
DWIDTH 15 0
BBX 13 12 1 0
BITMAP
7C00
C600
0200
0200
0600
7818
1C18
0218
0218
0318
0310
01F0
ENDCHAR
STARTCHAR 0505
ENCODING 1285
SWIDTH 780 0
DWIDTH 13 0
BBX 11 9 1 0
BITMAP
F800
8C00
0C00
0820
7820
0C20
0420
0660
03C0
ENDCHAR
STARTCHAR 0506
ENCODING 1286
SWIDTH 600 0
DWIDTH 10 0
BBX 9 15 1 -3
BITMAP
7C00
C600
0200
0200
0600
7800
1E00
0200
0300
0300
0300
0380
0080
0080
0080
ENDCHAR
STARTCHAR 0507
ENCODING 1287
SWIDTH 480 0
DWIDTH 8 0
BBX 8 12 1 -3
BITMAP
F8
8C
04
0C
78
0C
04
04
07
03
03
03
ENDCHAR
STARTCHAR 0508
ENCODING 1288
SWIDTH 960 0
DWIDTH 16 0
BBX 15 12 0 0
BITMAP
0FC0
18C0
18C0
18C0
18C0
10C6
10C6
10C6
30C6
30C6
2046
E07C
ENDCHAR
STARTCHAR 0509
ENCODING 1289
SWIDTH 840 0
DWIDTH 14 0
BBX 13 9 0 0
BITMAP
1F00
1100
1100
3108
3108
3108
2118
6198
C0F0
ENDCHAR
STARTCHAR 050A
ENCODING 1290
SWIDTH 960 0
DWIDTH 16 0
BBX 13 12 2 0
BITMAP
8100
8100
8100
8100
8100
FF08
8108
8108
8108
8108
8198
80F0
ENDCHAR
STARTCHAR 050B
ENCODING 1291
SWIDTH 900 0
DWIDTH 15 0
BBX 13 9 1 0
BITMAP
C100
C100
C100
C118
FF18
C118
C118
C198
C0F0
ENDCHAR
STARTCHAR 050C
ENCODING 1292
SWIDTH 720 0
DWIDTH 12 0
BBX 11 12 1 0
BITMAP
1F80
3080
6000
C000
C000
C000
C3E0
C060
C060
6040
70C0
1F80
ENDCHAR
STARTCHAR 050D
ENCODING 1293
SWIDTH 600 0
DWIDTH 10 0
BBX 9 9 1 0
BITMAP
3F00
6100
C000
C000
8780
C180
C180
6300
3E00
ENDCHAR
STARTCHAR 050E
ENCODING 1294
SWIDTH 660 0
DWIDTH 11 0
BBX 10 12 0 0
BITMAP
FF80
0800
0800
0800
0800
0840
0840
0840
0840
0840
0CC0
0780
ENDCHAR
STARTCHAR 050F
ENCODING 1295
SWIDTH 600 0
DWIDTH 10 0
BBX 10 9 0 0
BITMAP
FE00
1800
1800
18C0
18C0
18C0
18C0
1880
0F80
ENDCHAR
STARTCHAR 0510
ENCODING 1296
SWIDTH 540 0
DWIDTH 9 0
BBX 8 12 1 0
BITMAP
3E
63
C0
C0
40
3E
70
C0
80
C0
E1
7F
ENDCHAR
STARTCHAR 0511
ENCODING 1297
SWIDTH 480 0
DWIDTH 8 0
BBX 6 9 1 0
BITMAP
7C
C4
80
C0
78
C0
80
C0
7C
ENDCHAR
STARTCHAR 0512
ENCODING 1298
SWIDTH 660 0
DWIDTH 11 0
BBX 11 15 0 -3
BITMAP
0FC0
1840
1840
1840
1840
1040
1040
1040
3040
3040
2040
E060
0020
0020
0060
ENDCHAR
STARTCHAR 0513
ENCODING 1299
SWIDTH 540 0
DWIDTH 9 0
BBX 10 12 0 -3
BITMAP
1F00
1100
1100
3100
3100
3100
2100
6100
C1C0
00C0
0080
0180
ENDCHAR
STARTCHAR 0514
ENCODING 1300
SWIDTH 900 0
DWIDTH 15 0
BBX 15 12 0 0
BITMAP
0F02
1986
188C
1848
1878
1030
1030
1058
30C8
308C
2186
E302
ENDCHAR
STARTCHAR 0515
ENCODING 1301
SWIDTH 780 0
DWIDTH 13 0
BBX 13 9 0 0
BITMAP
1E18
1330
1120
30E0
30C0
31E0
2120
6330
C618
ENDCHAR
STARTCHAR 0516
ENCODING 1302
SWIDTH 780 0
DWIDTH 13 0
BBX 11 12 2 0
BITMAP
F860
8E40
86C0
8380
8300
8700
FF00
8180
8080
80C0
8040
8060
ENDCHAR
STARTCHAR 0517
ENCODING 1303
SWIDTH 780 0
DWIDTH 13 0
BBX 12 13 1 -4
BITMAP
DE30
E320
C340
C1C0
C180
C1C0
C360
E320
DE30
C000
C000
C000
C000
ENDCHAR
STARTCHAR 0518
ENCODING 1304
SWIDTH 900 0
DWIDTH 15 0
BBX 13 12 1 0
BITMAP
3FF8
6100
C100
C100
C100
61F8
3F00
3100
2100
6100
C100
81F8
ENDCHAR
STARTCHAR 0519
ENCODING 1305
SWIDTH 840 0
DWIDTH 14 0
BBX 13 9 1 0
BITMAP
7FE0
C730
8618
8618
FFF8
2600
6200
C300
81F0
ENDCHAR
STARTCHAR 051A
ENCODING 1306
SWIDTH 780 0
DWIDTH 13 0
BBX 11 15 1 -3
BITMAP
1F00
71C0
60C0
C060
C060
C060
C060
C060
C060
4040
71C0
1F00
0300
0180
00C0
ENDCHAR
STARTCHAR 051B
ENCODING 1307
SWIDTH 600 0
DWIDTH 10 0
BBX 8 13 1 -4
BITMAP
3D
67
C3
C3
83
83
C3
47
7F
03
03
03
03
ENDCHAR
STARTCHAR 051C
ENCODING 1308
SWIDTH 900 0
DWIDTH 15 0
BBX 15 12 0 0
BITMAP
C182
4186
4386
6284
62C4
264C
244C
3468
3C28
1C38
1838
1830
ENDCHAR
STARTCHAR 051D
ENCODING 1309
SWIDTH 780 0
DWIDTH 13 0
BBX 13 9 0 0
BITMAP
C318
4718
4510
6510
6DB0
28A0
28A0
38E0
1060
ENDCHAR
STARTCHAR 051E
ENCODING 1310
SWIDTH 600 0
DWIDTH 10 0
BBX 8 12 2 0
BITMAP
93
9E
8C
9E
B2
E0
A0
B0
98
8C
86
83
ENDCHAR
STARTCHAR 051F
ENCODING 1311
SWIDTH 480 0
DWIDTH 8 0
BBX 7 9 1 0
BITMAP
D6
CC
CC
D2
F0
D8
C8
C4
C6
ENDCHAR
STARTCHAR 0520
ENCODING 1312
SWIDTH 960 0
DWIDTH 16 0
BBX 16 16 0 -4
BITMAP
0F80
0880
1880
1880
1880
10B0
10FC
1086
3083
3081
2081
E081
0003
0003
0046
007C
ENDCHAR
STARTCHAR 0521
ENCODING 1313
SWIDTH 780 0
DWIDTH 13 0
BBX 13 13 0 -4
BITMAP
1F00
1300
1300
3300
33E0
3330
2318
6308
C308
0008
0018
0010
00F0
ENDCHAR
STARTCHAR 0522
ENCODING 1314
SWIDTH 1080 0
DWIDTH 18 0
BBX 16 16 2 -4
BITMAP
8180
8180
8180
8180
8180
FFE0
81FC
8186
8182
8182
8183
8183
0002
0006
000E
007C
ENDCHAR
STARTCHAR 0523
ENCODING 1315
SWIDTH 840 0
DWIDTH 14 0
BBX 13 13 1 -4
BITMAP
C300
C300
C300
C300
FFE0
C330
C318
C318
C308
0018
0018
0130
01E0
ENDCHAR
STARTCHAR 0524
ENCODING 1316
SWIDTH 720 0
DWIDTH 12 0
BBX 10 15 2 -3
BITMAP
FF80
8180
8180
8180
8180
8180
8180
8180
8180
8180
8180
81C0
0040
0040
0040
ENDCHAR
STARTCHAR 0525
ENCODING 1317
SWIDTH 600 0
DWIDTH 10 0
BBX 9 12 1 -3
BITMAP
FF00
C300
C300
C300
C300
C300
C300
C300
C380
0080
0080
0080
ENDCHAR
STARTCHAR 0526
ENCODING 1318
SWIDTH 720 0
DWIDTH 12 0
BBX 10 15 2 -3
BITMAP
8000
8000
8000
8000
9C00
FF00
8100
8100
8100
8100
8100
81C0
00C0
00C0
00C0
ENDCHAR
STARTCHAR 0527
ENCODING 1319
SWIDTH 600 0
DWIDTH 10 0
BBX 9 16 1 -3
BITMAP
C000
C000
C000
C000
DE00
E300
C300
C300
C300
C300
C300
C300
C380
0080
0080
0080
ENDCHAR
STARTCHAR 0528
ENCODING 1320
SWIDTH 720 0
DWIDTH 12 0
BBX 11 15 0 -3
BITMAP
2060
2060
2060
2060
2060
3FE0
2060
2060
2060
2060
2060
2060
2000
2000
E000
ENDCHAR
STARTCHAR 0529
ENCODING 1321
SWIDTH 600 0
DWIDTH 10 0
BBX 10 13 -1 -4
BITMAP
3040
3040
3040
3040
3FC0
3040
3040
3040
3040
3000
3000
3000
E000
ENDCHAR
STARTCHAR 052A
ENCODING 1322
SWIDTH 1380 0
DWIDTH 23 0
BBX 23 15 0 -3
BITMAP
0FC106
08C10C
08C118
08C130
18C160
18FF40
10FFE0
30C120
30C130
20C118
60C10C
FFE106
C02000
C02000
C02000
ENDCHAR
STARTCHAR 052B
ENCODING 1323
SWIDTH 1140 0
DWIDTH 19 0
BBX 19 12 0 -3
BITMAP
1F0860
1908C0
190980
110B00
11FE00
310B00
210980
6108C0
FF8860
C08000
C08000
C08000
ENDCHAR
STARTCHAR 052C
ENCODING 1324
SWIDTH 660 0
DWIDTH 11 0
BBX 11 15 0 -3
BITMAP
47C0
44C0
44C0
4CC0
4CC0
48C0
7BC0
3EC0
10C0
10C0
30C0
FFE0
C020
C020
C020
ENDCHAR
STARTCHAR 052D
ENCODING 1325
SWIDTH 540 0
DWIDTH 9 0
BBX 10 12 0 -3
BITMAP
4F00
4900
4900
5900
5300
3D00
3100
2100
FFC0
C0C0
C0C0
C0C0
ENDCHAR
STARTCHAR 052E
ENCODING 1326
SWIDTH 660 0
DWIDTH 11 0
BBX 12 15 0 -3
BITMAP
0FC0
1840
1840
1840
1840
1040
1040
1040
3040
3040
2040
E070
0030
0030
0030
ENDCHAR
STARTCHAR 052F
ENCODING 1327
SWIDTH 540 0
DWIDTH 9 0
BBX 9 12 0 -3
BITMAP
1F00
1100
1100
3100
3100
3100
2100
6100
C180
0080
0080
0080
ENDCHAR
STARTCHAR 0900
ENCODING 2304
SWIDTH 0 0
DWIDTH 0 0
BBX 7 4 -6 11
BITMAP
38
44
D2
10
ENDCHAR
STARTCHAR 0901
ENCODING 2305
SWIDTH 0 0
DWIDTH 0 0
BBX 7 4 -6 11
BITMAP
92
56
6C
18
ENDCHAR
STARTCHAR 0902
ENCODING 2306
SWIDTH 0 0
DWIDTH 0 0
BBX 2 2 -3 12
BITMAP
C0
C0
ENDCHAR
STARTCHAR 0903
ENCODING 2307
SWIDTH 240 0
DWIDTH 4 0
BBX 2 7 1 1
BITMAP
C0
40
00
00
00
C0
C0
ENDCHAR
STARTCHAR 0904
ENCODING 2308
SWIDTH 720 0
DWIDTH 12 0
BBX 12 15 1 0
BITMAP
0800
0D00
0780
0040
1040
3CF0
0640
0640
1C40
87C0
C640
4640
3E40
1840
0040
ENDCHAR
STARTCHAR 0905
ENCODING 2309
SWIDTH 720 0
DWIDTH 12 0
BBX 12 11 1 0
BITMAP
1000
3CF0
0640
0640
1C40
87C0
C640
4640
3E40
1840
0040
ENDCHAR
STARTCHAR 0906
ENCODING 2310
SWIDTH 1020 0
DWIDTH 17 0
BBX 16 11 1 0
BITMAP
1000
3CFF
0646
0646
1C46
87C6
C646
4646
3E46
1846
0046
ENDCHAR
STARTCHAR 0907
ENCODING 2311
SWIDTH 480 0
DWIDTH 8 0
BBX 8 12 0 -2
BITMAP
FF
06
3E
60
40
7C
22
02
62
7C
0C
02
ENDCHAR
STARTCHAR 0908
ENCODING 2312
SWIDTH 480 0
DWIDTH 8 0
BBX 8 17 0 -2
BITMAP
07
0C
08
0C
04
FF
06
3E
60
40
7C
22
02
62
7C
0C
02
ENDCHAR
STARTCHAR 0909
ENCODING 2313
SWIDTH 540 0
DWIDTH 9 0
BBX 9 10 0 0
BITMAP
FF80
0100
0100
0300
4E00
4300
6100
2100
1300
0E00
ENDCHAR
STARTCHAR 090A
ENCODING 2314
SWIDTH 720 0
DWIDTH 12 0
BBX 13 10 0 0
BITMAP
FFF8
0100
0100
0300
4E40
43F0
6110
2110
1330
0E20
ENDCHAR
STARTCHAR 090B
ENCODING 2315
SWIDTH 840 0
DWIDTH 14 0
BBX 14 11 0 -1
BITMAP
FFFC
0300
3300
7B30
07F0
07B0
1F30
3360
2340
037C
0018
ENDCHAR
STARTCHAR 090C
ENCODING 2316
SWIDTH 660 0
DWIDTH 11 0
BBX 12 12 0 -2
BITMAP
FFF0
0080
0080
3BC0
4660
4420
4060
20E0
3180
1900
0190
00E0
ENDCHAR
STARTCHAR 090D
ENCODING 2317
SWIDTH 540 0
DWIDTH 9 0
BBX 9 18 0 -3
BITMAP
2080
3180
1B00
0E00
0000
FF80
6100
6100
6100
6300
6700
2600
3800
0C00
0300
0100
0100
0300
ENDCHAR
STARTCHAR 090E
ENCODING 2318
SWIDTH 540 0
DWIDTH 9 0
BBX 9 18 0 -3
BITMAP
6000
3400
1E00
0200
0100
FF80
6100
6100
6100
6300
6700
2600
3800
0C00
0300
0100
0100
0300
ENDCHAR
STARTCHAR 090F
ENCODING 2319
SWIDTH 540 0
DWIDTH 9 0
BBX 9 13 0 -3
BITMAP
FF80
6100
6100
6100
6300
6700
2600
3800
0C00
0300
0100
0100
0300
ENDCHAR
STARTCHAR 0910
ENCODING 2320
SWIDTH 540 0
DWIDTH 9 0
BBX 9 18 0 -3
BITMAP
1C00
0600
0200
0200
0100
FF80
6100
6100
6100
6300
6700
2600
3800
0C00
0300
0100
0100
0300
ENDCHAR
STARTCHAR 0911
ENCODING 2321
SWIDTH 1020 0
DWIDTH 17 0
BBX 16 15 1 0
BITMAP
0021
0031
001B
000C
1000
3CFF
0646
0646
1C46
87C6
C646
4646
3E46
1846
0046
ENDCHAR
STARTCHAR 0912
ENCODING 2322
SWIDTH 1020 0
DWIDTH 17 0
BBX 16 15 1 0
BITMAP
0080
0050
003C
0004
1004
3CFF
0646
0646
1C46
87C6
C646
4646
3E46
1846
0046
ENDCHAR
STARTCHAR 0913
ENCODING 2323
SWIDTH 1020 0
DWIDTH 17 0
BBX 16 15 1 0
BITMAP
0070
0008
000C
0004
1004
3CFF
0646
0646
1C46
87C6
C646
4646
3E46
1846
0046
ENDCHAR
STARTCHAR 0914
ENCODING 2324
SWIDTH 1020 0
DWIDTH 17 0
BBX 16 15 1 0
BITMAP
0070
0008
0074
004C
1004
3CFF
0646
0646
1C46
87C6
C646
4646
3E46
1846
0046
ENDCHAR
STARTCHAR 0915
ENCODING 2325
SWIDTH 720 0
DWIDTH 12 0
BBX 13 10 0 0
BITMAP
FFF8
0300
1F00
7F40
43F0
4310
6710
3F30
0320
0300
ENDCHAR
STARTCHAR 0916
ENCODING 2326
SWIDTH 780 0
DWIDTH 13 0
BBX 14 10 0 0
BITMAP
FFFC
0810
09D0
5B10
7210
6210
21F0
1810
0E30
03D0
ENDCHAR
STARTCHAR 0917
ENCODING 2327
SWIDTH 540 0
DWIDTH 9 0
BBX 10 10 0 0
BITMAP
FFC0
2100
2100
2100
6100
6100
2100
0100
0100
0100
ENDCHAR
STARTCHAR 0918
ENCODING 2328
SWIDTH 540 0
DWIDTH 9 0
BBX 10 10 0 0
BITMAP
FFC0
4100
4100
3900
2100
6100
2300
3F00
0100
0100
ENDCHAR
STARTCHAR 0919
ENCODING 2329
SWIDTH 600 0
DWIDTH 10 0
BBX 11 10 0 0
BITMAP
FFE0
0100
1F00
3040
3040
1F00
0980
4080
3180
1F00
ENDCHAR
STARTCHAR 091A
ENCODING 2330
SWIDTH 600 0
DWIDTH 10 0
BBX 11 10 0 0
BITMAP
FFE0
0080
0080
7C80
1080
3080
1180
1E80
0080
0080
ENDCHAR
STARTCHAR 091B
ENCODING 2331
SWIDTH 660 0
DWIDTH 11 0
BBX 12 10 0 0
BITMAP
FFF0
0080
7BC0
4260
4220
7B20
3060
20C0
3180
1F00
ENDCHAR
STARTCHAR 091C
ENCODING 2332
SWIDTH 720 0
DWIDTH 12 0
BBX 13 10 0 0
BITMAP
FFF8
0020
0020
47E0
4220
6320
2320
1E20
0C20
0020
ENDCHAR
STARTCHAR 091D
ENCODING 2333
SWIDTH 720 0
DWIDTH 12 0
BBX 13 12 0 -2
BITMAP
FFF8
0620
3E20
6020
4020
7E60
23E0
0220
6220
7C20
0C00
0200
ENDCHAR
STARTCHAR 091E
ENCODING 2334
SWIDTH 720 0
DWIDTH 12 0
BBX 13 10 0 0
BITMAP
FFF8
0020
0020
1F20
4160
61E0
3320
1E20
0020
0020
ENDCHAR
STARTCHAR 091F
ENCODING 2335
SWIDTH 480 0
DWIDTH 8 0
BBX 9 10 0 0
BITMAP
FF80
0400
0400
1C00
6000
4000
4000
4000
6300
1E00
ENDCHAR
STARTCHAR 0920
ENCODING 2336
SWIDTH 540 0
DWIDTH 9 0
BBX 10 10 0 0
BITMAP
FFC0
0400
0400
1E00
6300
4180
4080
4180
6300
1E00
ENDCHAR
STARTCHAR 0921
ENCODING 2337
SWIDTH 540 0
DWIDTH 9 0
BBX 10 10 0 0
BITMAP
FFC0
0100
1F00
3000
3000
1F00
0980
4080
3180
1F00
ENDCHAR
STARTCHAR 0922
ENCODING 2338
SWIDTH 540 0
DWIDTH 9 0
BBX 10 10 0 0
BITMAP
FFC0
0400
0400
3C00
6000
4700
4D80
4980
2900
1E00
ENDCHAR
STARTCHAR 0923
ENCODING 2339
SWIDTH 720 0
DWIDTH 12 0
BBX 12 10 0 0
BITMAP
FFF0
6260
6260
6260
6260
6260
3E60
1860
0060
0060
ENDCHAR
STARTCHAR 0924
ENCODING 2340
SWIDTH 540 0
DWIDTH 9 0
BBX 10 10 0 0
BITMAP
FFC0
0100
0100
1F00
7F00
4100
4100
6100
3100
1100
ENDCHAR
STARTCHAR 0925
ENCODING 2341
SWIDTH 600 0
DWIDTH 10 0
BBX 10 11 1 0
BITMAP
4000
F7C0
9900
D900
1100
7100
4100
6700
1D00
0100
0100
ENDCHAR
STARTCHAR 0926
ENCODING 2342
SWIDTH 480 0
DWIDTH 8 0
BBX 9 11 0 -1
BITMAP
FF80
0400
0C00
3C00
4000
4000
4600
7700
1E00
0200
0100
ENDCHAR
STARTCHAR 0927
ENCODING 2343
SWIDTH 600 0
DWIDTH 10 0
BBX 10 11 1 0
BITMAP
2000
F7C0
9300
9300
FB00
6300
4300
4300
3F00
0300
0300
ENDCHAR
STARTCHAR 0928
ENCODING 2344
SWIDTH 540 0
DWIDTH 9 0
BBX 9 10 0 0
BITMAP
FF80
0300
0300
0300
7F00
6300
2300
0300
0300
0300
ENDCHAR
STARTCHAR 0929
ENCODING 2345
SWIDTH 540 0
DWIDTH 9 0
BBX 9 10 0 0
BITMAP
FF80
0300
0300
0300
7F00
6300
2300
0300
0300
3300
ENDCHAR
STARTCHAR 092A
ENCODING 2346
SWIDTH 540 0
DWIDTH 9 0
BBX 10 10 0 0
BITMAP
FFC0
6100
6100
6100
6100
6300
3F00
0900
0100
0100
ENDCHAR
STARTCHAR 092B
ENCODING 2347
SWIDTH 720 0
DWIDTH 12 0
BBX 13 10 0 0
BITMAP
FFF8
6300
6300
6360
63F0
6310
3F10
1B30
0330
0300
ENDCHAR
STARTCHAR 092C
ENCODING 2348
SWIDTH 540 0
DWIDTH 9 0
BBX 10 10 0 0
BITMAP
FFC0
0100
1D00
7100
5900
4900
6700
3D00
0100
0100
ENDCHAR
STARTCHAR 092D
ENCODING 2349
SWIDTH 660 0
DWIDTH 11 0
BBX 11 11 1 0
BITMAP
4000
F3E0
9080
F880
3880
1880
3F80
3880
0080
0080
0080
ENDCHAR
STARTCHAR 092E
ENCODING 2350
SWIDTH 540 0
DWIDTH 9 0
BBX 10 10 0 0
BITMAP
FFC0
2100
2100
2100
2100
7F00
6100
0100
0100
0100
ENDCHAR
STARTCHAR 092F
ENCODING 2351
SWIDTH 540 0
DWIDTH 9 0
BBX 10 10 0 0
BITMAP
FFC0
3100
1100
3100
6100
4100
3700
1D00
0100
0100
ENDCHAR
STARTCHAR 0930
ENCODING 2352
SWIDTH 360 0
DWIDTH 6 0
BBX 7 10 0 0
BITMAP
FE
0C
0C
48
78
60
20
10
0C
04
ENDCHAR
STARTCHAR 0931
ENCODING 2353
SWIDTH 360 0
DWIDTH 6 0
BBX 7 10 0 0
BITMAP
FE
0C
0C
48
78
60
20
10
4C
64
ENDCHAR
STARTCHAR 0932
ENCODING 2354
SWIDTH 660 0
DWIDTH 11 0
BBX 12 10 0 0
BITMAP
FFF0
00C0
00C0
3BC0
46C0
44C0
40C0
20C0
30C0
18C0
ENDCHAR
STARTCHAR 0933
ENCODING 2355
SWIDTH 720 0
DWIDTH 12 0
BBX 13 9 0 1
BITMAP
FFF8
0040
0040
3DE0
4730
4210
4630
6F30
39E0
ENDCHAR
STARTCHAR 0934
ENCODING 2356
SWIDTH 720 0
DWIDTH 12 0
BBX 13 12 0 -2
BITMAP
FFF8
0040
0040
3DE0
4730
4210
4630
6F30
39E0
0000
1000
1000
ENDCHAR
STARTCHAR 0935
ENCODING 2357
SWIDTH 540 0
DWIDTH 9 0
BBX 10 10 0 0
BITMAP
FFC0
0300
1F00
7700
4300
4300
6700
3F00
0300
0300
ENDCHAR
STARTCHAR 0936
ENCODING 2358
SWIDTH 660 0
DWIDTH 11 0
BBX 11 11 1 0
BITMAP
2000
FBE0
8980
C980
2980
1980
F180
E180
1180
0980
0D80
ENDCHAR
STARTCHAR 0937
ENCODING 2359
SWIDTH 540 0
DWIDTH 9 0
BBX 10 10 0 0
BITMAP
FFC0
7100
7900
6900
6500
6300
3F00
0900
0100
0100
ENDCHAR
STARTCHAR 0938
ENCODING 2360
SWIDTH 660 0
DWIDTH 11 0
BBX 12 10 0 0
BITMAP
FFF0
08C0
08C0
58C0
78C0
6FC0
20C0
10C0
08C0
04C0
ENDCHAR
STARTCHAR 0939
ENCODING 2361
SWIDTH 480 0
DWIDTH 8 0
BBX 9 12 0 -2
BITMAP
FF80
0200
3E00
6000
6000
3E00
6300
4100
4300
6200
3000
1800
ENDCHAR
STARTCHAR 093A
ENCODING 2362
SWIDTH 0 0
DWIDTH 0 0
BBX 2 3 -3 10
BITMAP
C0
C0
C0
ENDCHAR
STARTCHAR 093B
ENCODING 2363
SWIDTH 240 0
DWIDTH 4 0
BBX 5 13 0 0
BITMAP
60
60
60
F8
60
60
60
60
60
60
60
60
60
ENDCHAR
STARTCHAR 093C
ENCODING 2364
SWIDTH 0 0
DWIDTH 0 0
BBX 2 2 -6 -3
BITMAP
40
C0
ENDCHAR
STARTCHAR 093D
ENCODING 2365
SWIDTH 420 0
DWIDTH 7 0
BBX 6 9 1 1
BITMAP
7C
40
60
30
18
0C
84
C4
78
ENDCHAR
STARTCHAR 093E
ENCODING 2366
SWIDTH 240 0
DWIDTH 4 0
BBX 5 10 0 0
BITMAP
F8
60
60
60
60
60
60
60
60
60
ENDCHAR
STARTCHAR 093F
ENCODING 2367
SWIDTH 240 0
DWIDTH 4 0
BBX 12 15 0 0
BITMAP
3E00
6380
40C0
4060
6030
F800
6000
6000
6000
6000
6000
6000
6000
6000
6000
ENDCHAR
STARTCHAR 0940
ENCODING 2368
SWIDTH 240 0
DWIDTH 4 0
BBX 9 15 -4 0
BITMAP
7800
4C00
C400
C400
4600
0F80
0600
0600
0600
0600
0600
0600
0600
0600
0600
ENDCHAR
STARTCHAR 0941
ENCODING 2369
SWIDTH 0 0
DWIDTH 0 0
BBX 7 4 -7 -4
BITMAP
1E
82
C2
7E
ENDCHAR
STARTCHAR 0942
ENCODING 2370
SWIDTH 0 0
DWIDTH 0 0
BBX 8 4 -6 -4
BITMAP
7C
46
C3
79
ENDCHAR
STARTCHAR 0943
ENCODING 2371
SWIDTH 0 0
DWIDTH 0 0
BBX 4 4 -4 -4
BITMAP
E0
80
80
F0
ENDCHAR
STARTCHAR 0944
ENCODING 2372
SWIDTH 0 0
DWIDTH 0 0
BBX 5 7 -4 -7
BITMAP
E0
80
80
F0
80
78
30
ENDCHAR
STARTCHAR 0945
ENCODING 2373
SWIDTH 0 0
DWIDTH 0 0
BBX 7 4 -6 11
BITMAP
82
46
7C
18
ENDCHAR
STARTCHAR 0946
ENCODING 2374
SWIDTH 0 0
DWIDTH 0 0
BBX 6 5 -8 10
BITMAP
80
50
3C
04
04
ENDCHAR
STARTCHAR 0947
ENCODING 2375
SWIDTH 0 0
DWIDTH 0 0
BBX 5 5 -7 10
BITMAP
E0
10
18
08
08
ENDCHAR
STARTCHAR 0948
ENCODING 2376
SWIDTH 0 0
DWIDTH 0 0
BBX 5 5 -7 10
BITMAP
E0
10
E8
98
08
ENDCHAR
STARTCHAR 0949
ENCODING 2377
SWIDTH 240 0
DWIDTH 4 0
BBX 7 15 -2 0
BITMAP
82
C6
6C
38
00
3E
18
18
18
18
18
18
18
18
18
ENDCHAR
STARTCHAR 094A
ENCODING 2378
SWIDTH 240 0
DWIDTH 4 0
BBX 9 15 -4 0
BITMAP
C000
6800
3C00
0400
0600
0F80
0600
0600
0600
0600
0600
0600
0600
0600
0600
ENDCHAR
STARTCHAR 094B
ENCODING 2379
SWIDTH 240 0
DWIDTH 4 0
BBX 7 15 -2 0
BITMAP
E0
30
10
10
18
3E
18
18
18
18
18
18
18
18
18
ENDCHAR
STARTCHAR 094C
ENCODING 2380
SWIDTH 240 0
DWIDTH 4 0
BBX 8 15 -3 0
BITMAP
70
18
E8
18
0C
1F
0C
0C
0C
0C
0C
0C
0C
0C
0C
ENDCHAR
STARTCHAR 094D
ENCODING 2381
SWIDTH 0 0
DWIDTH 0 0
BBX 5 3 -3 -4
BITMAP
E0
18
08
ENDCHAR
STARTCHAR 094E
ENCODING 2382
SWIDTH 240 0
DWIDTH 4 0
BBX 3 10 2 0
BITMAP
E0
80
80
80
80
80
80
80
80
80
ENDCHAR
STARTCHAR 094F
ENCODING 2383
SWIDTH 240 0
DWIDTH 4 0
BBX 8 15 -3 0
BITMAP
30
18
E4
7C
0C
1F
0C
0C
0C
0C
0C
0C
0C
0C
0C
ENDCHAR
STARTCHAR 0950
ENCODING 2384
SWIDTH 900 0
DWIDTH 15 0
BBX 13 13 1 1
BITMAP
05B0
0620
03C0
1000
3C00
0670
06C8
1C88
8708
C6D8
4670
3E00
1800
ENDCHAR
STARTCHAR 0951
ENCODING 2385
SWIDTH 0 0
DWIDTH 0 0
BBX 1 4 -3 11
BITMAP
80
80
80
80
ENDCHAR
STARTCHAR 0952
ENCODING 2386
SWIDTH 0 0
DWIDTH 0 0
BBX 6 1 -7 -2
BITMAP
FC
ENDCHAR
STARTCHAR 0953
ENCODING 2387
SWIDTH 0 0
DWIDTH 0 0
BBX 3 4 -4 11
BITMAP
80
C0
40
60
ENDCHAR
STARTCHAR 0954
ENCODING 2388
SWIDTH 0 0
DWIDTH 0 0
BBX 3 4 -3 11
BITMAP
60
40
C0
80
ENDCHAR
STARTCHAR 0955
ENCODING 2389
SWIDTH 0 0
DWIDTH 0 0
BBX 7 4 -6 11
BITMAP
C6
64
38
7C
ENDCHAR
STARTCHAR 0956
ENCODING 2390
SWIDTH 0 0
DWIDTH 0 0
BBX 6 2 -8 -3
BITMAP
84
78
ENDCHAR
STARTCHAR 0957
ENCODING 2391
SWIDTH 0 0
DWIDTH 0 0
BBX 6 3 -8 -3
BITMAP
FC
00
FC
ENDCHAR
STARTCHAR 0958
ENCODING 2392
SWIDTH 720 0
DWIDTH 12 0
BBX 13 11 0 -1
BITMAP
FFF8
0300
1F00
7F40
43F0
4310
6710
3F30
0320
6300
2000
ENDCHAR
STARTCHAR 0959
ENCODING 2393
SWIDTH 780 0
DWIDTH 13 0
BBX 14 10 0 0
BITMAP
FFFC
0810
09D0
5B10
7210
6210
21F0
1810
4E30
63D0
ENDCHAR
STARTCHAR 095A
ENCODING 2394
SWIDTH 540 0
DWIDTH 9 0
BBX 10 10 0 0
BITMAP
FFC0
2100
2100
2100
6100
6100
2100
0100
2100
3100
ENDCHAR
STARTCHAR 095B
ENCODING 2395
SWIDTH 720 0
DWIDTH 12 0
BBX 13 12 0 -2
BITMAP
FFF8
0020
0020
47E0
4220
6320
2320
1E20
0C20
0020
0800
0800
ENDCHAR
STARTCHAR 095C
ENCODING 2396
SWIDTH 540 0
DWIDTH 9 0
BBX 10 13 0 -3
BITMAP
FFC0
0100
1F00
3000
3000
1F00
0980
4080
3180
1F00
0000
0400
0C00
ENDCHAR
STARTCHAR 095D
ENCODING 2397
SWIDTH 540 0
DWIDTH 9 0
BBX 10 13 0 -3
BITMAP
FFC0
0400
0400
3C00
6000
4700
4D80
4980
2900
1E00
0000
0800
0800
ENDCHAR
STARTCHAR 095E
ENCODING 2398
SWIDTH 720 0
DWIDTH 12 0
BBX 13 11 0 -1
BITMAP
FFF8
6300
6300
6360
63F0
6310
3F10
1B30
0330
6300
2000
ENDCHAR
STARTCHAR 095F
ENCODING 2399
SWIDTH 540 0
DWIDTH 9 0
BBX 10 11 0 -1
BITMAP
FFC0
3100
1100
3100
6100
4100
3700
1D00
0100
2100
2000
ENDCHAR
STARTCHAR 0960
ENCODING 2400
SWIDTH 840 0
DWIDTH 14 0
BBX 14 13 0 -3
BITMAP
FFFC
0300
3300
7B30
07F0
07B0
1F30
3360
2340
033C
0020
0034
001C
ENDCHAR
STARTCHAR 0961
ENCODING 2401
SWIDTH 660 0
DWIDTH 11 0
BBX 13 13 0 -3
BITMAP
FFF0
0080
0080
3BC0
4660
4420
4060
21C0
3100
19B0
00E0
0080
00F8
ENDCHAR
STARTCHAR 0962
ENCODING 2402
SWIDTH 0 0
DWIDTH 0 0
BBX 9 7 -8 -7
BITMAP
7700
C900
9900
4700
2400
0780
0300
ENDCHAR
STARTCHAR 0963
ENCODING 2403
SWIDTH 0 0
DWIDTH 0 0
BBX 10 7 -8 -7
BITMAP
7700
C900
9A00
4240
2180
0140
0080
ENDCHAR
STARTCHAR 0964
ENCODING 2404
SWIDTH 360 0
DWIDTH 6 0
BBX 2 10 3 0
BITMAP
C0
C0
C0
C0
C0
C0
C0
C0
C0
C0
ENDCHAR
STARTCHAR 0965
ENCODING 2405
SWIDTH 540 0
DWIDTH 9 0
BBX 5 10 3 0
BITMAP
C8
C8
C8
C8
C8
C8
C8
C8
C8
C8
ENDCHAR
STARTCHAR 0966
ENCODING 2406
SWIDTH 540 0
DWIDTH 9 0
BBX 7 7 1 2
BITMAP
38
7C
C6
C2
C6
44
38
ENDCHAR
STARTCHAR 0967
ENCODING 2407
SWIDTH 540 0
DWIDTH 9 0
BBX 5 12 2 -1
BITMAP
20
F8
C8
C8
18
30
C0
60
30
18
08
18
ENDCHAR
STARTCHAR 0968
ENCODING 2408
SWIDTH 540 0
DWIDTH 9 0
BBX 6 11 2 0
BITMAP
20
F8
08
08
08
18
F0
70
18
08
0C
ENDCHAR
STARTCHAR 0969
ENCODING 2409
SWIDTH 540 0
DWIDTH 9 0
BBX 5 12 2 -1
BITMAP
20
F8
08
18
70
18
08
08
F8
70
18
08
ENDCHAR
STARTCHAR 096A
ENCODING 2410
SWIDTH 540 0
DWIDTH 9 0
BBX 7 10 1 1
BITMAP
82
C6
44
2C
18
38
6C
44
6C
38
ENDCHAR
STARTCHAR 096B
ENCODING 2411
SWIDTH 540 0
DWIDTH 9 0
BBX 8 12 1 -1
BITMAP
40
40
40
C0
C0
4E
7E
1C
04
02
03
01
ENDCHAR
STARTCHAR 096C
ENCODING 2412
SWIDTH 540 0
DWIDTH 9 0
BBX 7 12 2 -1
BITMAP
20
F0
80
80
70
C0
C0
CC
7C
04
04
06
ENDCHAR
STARTCHAR 096D
ENCODING 2413
SWIDTH 540 0
DWIDTH 9 0
BBX 8 9 1 1
BITMAP
80
9C
B6
B2
DE
43
42
62
3E
ENDCHAR
STARTCHAR 096E
ENCODING 2414
SWIDTH 540 0
DWIDTH 9 0
BBX 7 10 1 1
BITMAP
04
08
18
30
60
40
C0
C0
46
3C
ENDCHAR
STARTCHAR 096F
ENCODING 2415
SWIDTH 540 0
DWIDTH 9 0
BBX 8 11 1 0
BITMAP
78
CC
CC
CC
78
30
0C
06
03
03
03
ENDCHAR
STARTCHAR 0970
ENCODING 2416
SWIDTH 420 0
DWIDTH 7 0
BBX 5 4 1 5
BITMAP
70
88
88
70
ENDCHAR
STARTCHAR 0971
ENCODING 2417
SWIDTH 300 0
DWIDTH 5 0
BBX 2 2 2 9
BITMAP
80
C0
ENDCHAR
STARTCHAR 0972
ENCODING 2418
SWIDTH 720 0
DWIDTH 12 0
BBX 12 15 1 0
BITMAP
0210
0210
01F0
00C0
1000
3CF0
0640
0640
1C40
87C0
C640
4640
3E40
1840
0040
ENDCHAR
STARTCHAR 0973
ENCODING 2419
SWIDTH 720 0
DWIDTH 12 0
BBX 12 13 1 0
BITMAP
0040
0040
1040
3CF0
0640
0640
1C40
87C0
C640
4640
3E40
1840
0040
ENDCHAR
STARTCHAR 0974
ENCODING 2420
SWIDTH 1020 0
DWIDTH 17 0
BBX 16 13 1 0
BITMAP
0006
0006
1006
3CFF
0646
0646
1C46
87C6
C646
4646
3E46
1846
0046
ENDCHAR
STARTCHAR 0975
ENCODING 2421
SWIDTH 1020 0
DWIDTH 17 0
BBX 16 15 1 0
BITMAP
0010
009C
00F6
003A
1006
3CFF
0646
0646
1C46
87C6
C646
4646
3E46
1846
0046
ENDCHAR
STARTCHAR 0976
ENCODING 2422
SWIDTH 720 0
DWIDTH 12 0
BBX 12 14 1 -3
BITMAP
1000
3CF0
0640
0640
1C40
87C0
C640
4640
3E40
1840
0040
0000
08C0
0F80
ENDCHAR
STARTCHAR 0977
ENCODING 2423
SWIDTH 720 0
DWIDTH 12 0
BBX 12 15 1 -4
BITMAP
1000
3CF0
0640
0640
1C40
87C0
C640
4640
3E40
1840
0040
0040
1FC0
0000
1FC0
ENDCHAR
STARTCHAR 0978
ENCODING 2424
SWIDTH 540 0
DWIDTH 9 0
BBX 9 9 0 0
BITMAP
FF80
2000
2000
7E00
6100
6100
0100
0100
0300
ENDCHAR
STARTCHAR 0979
ENCODING 2425
SWIDTH 720 0
DWIDTH 12 0
BBX 13 11 0 -1
BITMAP
FFF8
0020
07E0
4420
6220
2320
3320
0E20
1220
1220
0C00
ENDCHAR
STARTCHAR 097A
ENCODING 2426
SWIDTH 540 0
DWIDTH 9 0
BBX 10 10 0 0
BITMAP
FFC0
3100
1900
3900
6500
4300
3700
1D00
0100
0100
ENDCHAR
STARTCHAR 097B
ENCODING 2427
SWIDTH 540 0
DWIDTH 9 0
BBX 10 10 0 0
BITMAP
FFC0
2100
2100
2100
6100
6100
2100
0100
0100
7F00
ENDCHAR
STARTCHAR 097C
ENCODING 2428
SWIDTH 720 0
DWIDTH 12 0
BBX 12 10 0 0
BITMAP
FFF0
0060
07E0
4460
6260
2360
3360
0E60
0060
7FE0
ENDCHAR
STARTCHAR 097D
ENCODING 2429
SWIDTH 420 0
DWIDTH 7 0
BBX 6 11 1 0
BITMAP
20
F8
0C
04
0C
18
30
20
20
20
20
ENDCHAR
STARTCHAR 097E
ENCODING 2430
SWIDTH 540 0
DWIDTH 9 0
BBX 10 10 0 0
BITMAP
FFC0
0100
1F00
3000
3600
1F80
6080
3F80
0E00
7F80
ENDCHAR
STARTCHAR 097F
ENCODING 2431
SWIDTH 540 0
DWIDTH 9 0
BBX 10 10 0 0
BITMAP
FFC0
0100
3D00
7100
4900
4D00
6700
1D00
0100
7F00
ENDCHAR
STARTCHAR 1AB0
ENCODING 6832
SWIDTH 0 0
DWIDTH 0 0
BBX 10 3 -5 10
BITMAP
6180
7380
8E40
ENDCHAR
STARTCHAR 1AB1
ENCODING 6833
SWIDTH 0 0
DWIDTH 0 0
BBX 8 4 -4 10
BITMAP
18
A5
A5
18
ENDCHAR
STARTCHAR 1AB2
ENCODING 6834
SWIDTH 0 0
DWIDTH 0 0
BBX 8 4 -4 10
BITMAP
66
99
99
66
ENDCHAR
STARTCHAR 1AB3
ENCODING 6835
SWIDTH 0 0
DWIDTH 0 0
BBX 4 4 -2 10
BITMAP
40
40
F0
60
ENDCHAR
STARTCHAR 1AB4
ENCODING 6836
SWIDTH 0 0
DWIDTH 0 0
BBX 4 4 -2 10
BITMAP
60
60
00
90
ENDCHAR
STARTCHAR 1AB5
ENCODING 6837
SWIDTH 0 0
DWIDTH 0 0
BBX 6 3 -3 -4
BITMAP
C4
CC
CC
ENDCHAR
STARTCHAR 1AB6
ENCODING 6838
SWIDTH 0 0
DWIDTH 0 0
BBX 16 3 -8 -4
BITMAP
6186
9249
8E71
ENDCHAR
STARTCHAR 1AB7
ENCODING 6839
SWIDTH 0 0
DWIDTH 0 0
BBX 2 4 -1 -4
BITMAP
80
80
80
40
ENDCHAR
STARTCHAR 1AB8
ENCODING 6840
SWIDTH 0 0
DWIDTH 0 0
BBX 4 4 -2 -4
BITMAP
90
90
90
90
ENDCHAR
STARTCHAR 1AB9
ENCODING 6841
SWIDTH 0 0
DWIDTH 0 0
BBX 3 5 -10 -4
BITMAP
20
20
40
40
80
ENDCHAR
STARTCHAR 1ABA
ENCODING 6842
SWIDTH 0 0
DWIDTH 0 0
BBX 3 5 -9 -4
BITMAP
20
20
40
C0
C0
ENDCHAR
STARTCHAR 1ABB
ENCODING 6843
SWIDTH 0 0
DWIDTH 0 0
BBX 6 4 -3 10
BITMAP
84
84
84
84
ENDCHAR
STARTCHAR 1ABC
ENCODING 6844
SWIDTH 0 0
DWIDTH 0 0
BBX 10 4 -5 10
BITMAP
A140
A140
A140
A140
ENDCHAR
STARTCHAR 1ABD
ENCODING 6845
SWIDTH 0 0
DWIDTH 0 0
BBX 6 4 -3 -4
BITMAP
84
84
84
84
ENDCHAR
STARTCHAR 1ABE
ENCODING 6846
SWIDTH 0 0
DWIDTH 0 0
BBX 14 4 -7 2
BITMAP
4008
8004
8004
8008
ENDCHAR
STARTCHAR 1ABF
ENCODING 6847
SWIDTH 0 0
DWIDTH 0 0
BBX 6 4 -3 -5
BITMAP
B4
B8
48
48
ENDCHAR
STARTCHAR 1AC0
ENCODING 6848
SWIDTH 0 0
DWIDTH 0 0
BBX 6 4 -3 -5
BITMAP
48
B8
B4
84
ENDCHAR
STARTCHAR 1C80
ENCODING 7296
SWIDTH 540 0
DWIDTH 9 0
BBX 7 13 1 0
BITMAP
1C
22
62
F6
C8
80
80
80
BE
C2
C2
62
3E
ENDCHAR
STARTCHAR 1C81
ENCODING 7297
SWIDTH 540 0
DWIDTH 9 0
BBX 9 13 0 -4
BITMAP
1F00
1900
1100
1100
1100
3100
6100
FF80
C080
C080
C080
C080
C080
ENDCHAR
STARTCHAR 1C82
ENCODING 7298
SWIDTH 420 0
DWIDTH 7 0
BBX 6 9 1 0
BITMAP
78
C8
CC
8C
8C
8C
CC
C8
78
ENDCHAR
STARTCHAR 1C83
ENCODING 7299
SWIDTH 600 0
DWIDTH 10 0
BBX 9 9 1 0
BITMAP
3F80
6000
C000
C000
8000
C000
C000
6000
3F00
ENDCHAR
STARTCHAR 1C84
ENCODING 7300
SWIDTH 360 0
DWIDTH 6 0
BBX 7 12 -1 0
BITMAP
FE
04
04
04
0C
0C
0C
08
08
08
18
18
ENDCHAR
STARTCHAR 1C85
ENCODING 7301
SWIDTH 840 0
DWIDTH 14 0
BBX 13 9 1 0
BITMAP
FFF8
C218
C218
C218
C218
C218
C218
C218
C218
ENDCHAR
STARTCHAR 1C86
ENCODING 7302
SWIDTH 600 0
DWIDTH 10 0
BBX 11 13 -1 0
BITMAP
F800
F800
1800
1800
1800
1800
1800
1800
1FC0
1860
1860
1840
1F80
ENDCHAR
STARTCHAR 1C87
ENCODING 7303
SWIDTH 600 0
DWIDTH 10 0
BBX 10 13 0 0
BITMAP
3000
3000
3000
3000
FC00
3000
3000
3000
3F80
30C0
30C0
3080
3F00
ENDCHAR
STARTCHAR 1C88
ENCODING 7304
SWIDTH 600 0
DWIDTH 10 0
BBX 8 13 1 0
BITMAP
81
42
66
24
18
3C
62
C3
81
81
C3
C3
7E
ENDCHAR
STARTCHAR 1CD0
ENCODING 7376
SWIDTH 0 0
DWIDTH 0 0
BBX 6 4 -6 16
BITMAP
30
58
48
84
ENDCHAR
STARTCHAR 1CD1
ENCODING 7377
SWIDTH 0 0
DWIDTH 0 0
BBX 6 6 -6 15
BITMAP
20
30
48
78
B4
30
ENDCHAR
STARTCHAR 1CD2
ENCODING 7378
SWIDTH 0 0
DWIDTH 0 0
BBX 6 2 -6 16
BITMAP
FC
FC
ENDCHAR
STARTCHAR 1CD3
ENCODING 7379
SWIDTH 240 0
DWIDTH 4 0
BBX 3 4 1 11
BITMAP
A0
A0
A0
A0
ENDCHAR
STARTCHAR 1CD4
ENCODING 7380
SWIDTH 0 0
DWIDTH 0 0
BBX 5 2 -5 4
BITMAP
F8
F8
ENDCHAR
STARTCHAR 1CD5
ENCODING 7381
SWIDTH 0 0
DWIDTH 0 0
BBX 7 3 -8 -4
BITMAP
D2
DA
6E
ENDCHAR
STARTCHAR 1CD6
ENCODING 7382
SWIDTH 0 0
DWIDTH 0 0
BBX 6 3 -7 -4
BITMAP
80
80
FC
ENDCHAR
STARTCHAR 1CD7
ENCODING 7383
SWIDTH 0 0
DWIDTH 0 0
BBX 6 3 -7 -4
BITMAP
C0
80
FC
ENDCHAR
STARTCHAR 1CD8
ENCODING 7384
SWIDTH 0 0
DWIDTH 0 0
BBX 7 3 -6 -4
BITMAP
C2
46
3C
ENDCHAR
STARTCHAR 1CD9
ENCODING 7385
SWIDTH 0 0
DWIDTH 0 0
BBX 6 4 -5 -4
BITMAP
20
30
4C
84
ENDCHAR
STARTCHAR 1CDA
ENCODING 7386
SWIDTH 0 0
DWIDTH 0 0
BBX 3 4 -4 11
BITMAP
A0
A0
A0
A0
ENDCHAR
STARTCHAR 1CDB
ENCODING 7387
SWIDTH 0 0
DWIDTH 0 0
BBX 5 4 -5 11
BITMAP
E8
E8
E8
E8
ENDCHAR
STARTCHAR 1CDC
ENCODING 7388
SWIDTH 0 0
DWIDTH 0 0
BBX 1 3 -3 -4
BITMAP
80
80
80
ENDCHAR
STARTCHAR 1CDD
ENCODING 7389
SWIDTH 0 0
DWIDTH 0 0
BBX 2 2 -3 -4
BITMAP
C0
C0
ENDCHAR
STARTCHAR 1CDE
ENCODING 7390
SWIDTH 0 0
DWIDTH 0 0
BBX 4 2 -5 -3
BITMAP
B0
B0
ENDCHAR
STARTCHAR 1CDF
ENCODING 7391
SWIDTH 0 0
DWIDTH 0 0
BBX 7 2 -8 -3
BITMAP
D6
D6
ENDCHAR
STARTCHAR 1CE0
ENCODING 7392
SWIDTH 0 0
DWIDTH 0 0
BBX 6 4 1 9
BITMAP
FC
80
80
40
ENDCHAR
STARTCHAR 1CE1
ENCODING 7393
SWIDTH 360 0
DWIDTH 6 0
BBX 8 17 -1 -3
BITMAP
0F
18
18
18
18
08
08
08
08
08
08
08
08
08
08
F8
E0
ENDCHAR
STARTCHAR 1CE2
ENCODING 7394
SWIDTH 0 0
DWIDTH 0 0
BBX 5 1 -5 4
BITMAP
F8
ENDCHAR
STARTCHAR 1CE3
ENCODING 7395
SWIDTH 0 0
DWIDTH 0 0
BBX 5 5 -2 5
BITMAP
20
10
18
18
F0
ENDCHAR
STARTCHAR 1CE4
ENCODING 7396
SWIDTH 0 0
DWIDTH 0 0
BBX 5 6 1 4
BITMAP
20
60
C0
80
80
F8
ENDCHAR
STARTCHAR 1CE5
ENCODING 7397
SWIDTH 0 0
DWIDTH 0 0
BBX 5 5 1 -1
BITMAP
F8
80
80
C0
60
ENDCHAR
STARTCHAR 1CE6
ENCODING 7398
SWIDTH 0 0
DWIDTH 0 0
BBX 5 5 -2 -1
BITMAP
F0
08
18
30
60
ENDCHAR
STARTCHAR 1CE7
ENCODING 7399
SWIDTH 0 0
DWIDTH 0 0
BBX 6 9 -2 4
BITMAP
30
58
C4
40
60
10
18
18
F0
ENDCHAR
STARTCHAR 1CE8
ENCODING 7400
SWIDTH 0 0
DWIDTH 0 0
BBX 6 9 0 -4
BITMAP
7C
40
40
60
10
08
88
F8
20
ENDCHAR
STARTCHAR 1CE9
ENCODING 7401
SWIDTH 780 0
DWIDTH 13 0
BBX 12 11 1 0
BITMAP
1080
7BC0
CA20
8B20
B1E0
8030
8020
C020
4060
71C0
1F80
ENDCHAR
STARTCHAR 1CEA
ENCODING 7402
SWIDTH 720 0
DWIDTH 12 0
BBX 11 11 1 0
BITMAP
4080
F3E0
9A20
D2E0
3380
2180
40C0
4040
40C0
6180
3F00
ENDCHAR
STARTCHAR 1CEB
ENCODING 7403
SWIDTH 720 0
DWIDTH 12 0
BBX 11 11 1 0
BITMAP
4000
F100
9BC0
D640
3260
21E0
4060
4060
4040
6180
3F00
ENDCHAR
STARTCHAR 1CEC
ENCODING 7404
SWIDTH 780 0
DWIDTH 13 0
BBX 12 11 1 0
BITMAP
4000
F100
9F80
D640
3640
23C0
4070
40D0
40D0
6190
3E10
ENDCHAR
STARTCHAR 1CED
ENCODING 7405
SWIDTH 0 0
DWIDTH 0 0
BBX 5 3 -3 -4
BITMAP
C0
30
18
ENDCHAR
STARTCHAR 1CEE
ENCODING 7406
SWIDTH 480 0
DWIDTH 8 0
BBX 8 11 1 0
BITMAP
30
F8
80
80
C2
7B
60
40
42
66
3C
ENDCHAR
STARTCHAR 1CEF
ENCODING 7407
SWIDTH 420 0
DWIDTH 7 0
BBX 6 11 1 0
BITMAP
18
7C
C0
98
C0
7C
38
40
D8
48
78
ENDCHAR
STARTCHAR 1CF0
ENCODING 7408
SWIDTH 540 0
DWIDTH 9 0
BBX 7 11 1 0
BITMAP
10
78
60
22
16
38
FC
82
82
C6
7C
ENDCHAR
STARTCHAR 1CF1
ENCODING 7409
SWIDTH 480 0
DWIDTH 8 0
BBX 7 10 1 -1
BITMAP
20
60
CC
88
80
FC
06
66
6C
18
ENDCHAR
STARTCHAR 1CF2
ENCODING 7410
SWIDTH 480 0
DWIDTH 8 0
BBX 7 7 1 2
BITMAP
86
C4
78
00
7C
C4
86
ENDCHAR
STARTCHAR 1CF3
ENCODING 7411
SWIDTH 540 0
DWIDTH 9 0
BBX 7 7 1 1
BITMAP
C6
6C
28
28
28
66
C2
ENDCHAR
STARTCHAR 1CF4
ENCODING 7412
SWIDTH 0 0
DWIDTH 0 0
BBX 7 3 -6 16
BITMAP
C2
46
3C
ENDCHAR
STARTCHAR 1CF5
ENCODING 7413
SWIDTH 480 0
DWIDTH 8 0
BBX 7 7 1 1
BITMAP
C6
6C
38
30
38
6C
C6
ENDCHAR
STARTCHAR 1CF6
ENCODING 7414
SWIDTH 600 0
DWIDTH 10 0
BBX 9 4 1 3
BITMAP
8980
9980
DF00
6600
ENDCHAR
STARTCHAR 1CF8
ENCODING 7416
SWIDTH 0 0
DWIDTH 0 0
BBX 4 3 -4 12
BITMAP
F0
90
60
ENDCHAR
STARTCHAR 1CF9
ENCODING 7417
SWIDTH 0 0
DWIDTH 0 0
BBX 7 4 -6 11
BITMAP
04
FA
9A
66
ENDCHAR
STARTCHAR 1D00
ENCODING 7424
SWIDTH 480 0
DWIDTH 8 0
BBX 8 9 0 0
BITMAP
08
1C
14
34
26
3E
63
43
C1
ENDCHAR
STARTCHAR 1D01
ENCODING 7425
SWIDTH 660 0
DWIDTH 11 0
BBX 11 9 0 0
BITMAP
0FE0
0A00
1A00
1200
33E0
3E00
6200
4200
C3E0
ENDCHAR
STARTCHAR 1D02
ENCODING 7426
SWIDTH 840 0
DWIDTH 14 0
BBX 13 9 1 0
BITMAP
F8F0
8D10
0618
0210
FFF0
8200
C600
C710
79F0
ENDCHAR
STARTCHAR 1D03
ENCODING 7427
SWIDTH 540 0
DWIDTH 9 0
BBX 9 9 0 0
BITMAP
7F00
6100
6180
6300
FF80
6180
6180
6180
7F00
ENDCHAR
STARTCHAR 1D04
ENCODING 7428
SWIDTH 480 0
DWIDTH 8 0
BBX 7 9 1 0
BITMAP
3E
62
C0
C0
C0
C0
C0
60
3E
ENDCHAR
STARTCHAR 1D05
ENCODING 7429
SWIDTH 540 0
DWIDTH 9 0
BBX 8 9 1 0
BITMAP
FC
C6
C3
C3
C3
C3
C3
C6
FC
ENDCHAR
STARTCHAR 1D06
ENCODING 7430
SWIDTH 540 0
DWIDTH 9 0
BBX 8 9 1 0
BITMAP
7C
46
43
43
F3
43
43
46
7C
ENDCHAR
STARTCHAR 1D07
ENCODING 7431
SWIDTH 420 0
DWIDTH 7 0
BBX 6 9 1 0
BITMAP
FC
C0
C0
C0
FC
C0
C0
C0
FC
ENDCHAR
STARTCHAR 1D08
ENCODING 7432
SWIDTH 480 0
DWIDTH 8 0
BBX 6 9 1 0
BITMAP
F8
0C
04
04
78
0C
04
0C
F8
ENDCHAR
STARTCHAR 1D09
ENCODING 7433
SWIDTH 240 0
DWIDTH 4 0
BBX 2 12 1 -3
BITMAP
40
40
40
40
40
40
40
40
40
00
00
C0
ENDCHAR
STARTCHAR 1D0A
ENCODING 7434
SWIDTH 300 0
DWIDTH 5 0
BBX 3 9 1 0
BITMAP
20
20
20
20
20
20
20
20
E0
ENDCHAR
STARTCHAR 1D0B
ENCODING 7435
SWIDTH 480 0
DWIDTH 8 0
BBX 7 9 1 0
BITMAP
C6
CC
D8
F0
F0
D8
CC
C4
C6
ENDCHAR
STARTCHAR 1D0C
ENCODING 7436
SWIDTH 420 0
DWIDTH 7 0
BBX 7 9 0 0
BITMAP
60
60
60
68
70
E0
60
60
7E
ENDCHAR
STARTCHAR 1D0D
ENCODING 7437
SWIDTH 720 0
DWIDTH 12 0
BBX 10 9 1 0
BITMAP
E0C0
E1C0
E1C0
F3C0
D2C0
D2C0
DEC0
CCC0
CCC0
ENDCHAR
STARTCHAR 1D0E
ENCODING 7438
SWIDTH 600 0
DWIDTH 10 0
BBX 8 9 1 0
BITMAP
C3
C7
C5
CF
DB
D3
F3
E3
C3
ENDCHAR
STARTCHAR 1D0F
ENCODING 7439
SWIDTH 600 0
DWIDTH 10 0
BBX 9 9 1 0
BITMAP
3E00
6300
C100
C180
C180
C180
C100
6300
3E00
ENDCHAR
STARTCHAR 1D10
ENCODING 7440
SWIDTH 480 0
DWIDTH 8 0
BBX 7 9 1 0
BITMAP
F8
8C
04
06
06
06
04
0C
F8
ENDCHAR
STARTCHAR 1D11
ENCODING 7441
SWIDTH 600 0
DWIDTH 10 0
BBX 10 9 0 0
BITMAP
0C00
3F00
6180
C080
C0C0
C080
4180
7F00
1C00
ENDCHAR
STARTCHAR 1D12
ENCODING 7442
SWIDTH 600 0
DWIDTH 10 0
BBX 10 7 0 1
BITMAP
1E00
7F80
4080
C0C0
C0C0
40C0
4080
ENDCHAR
STARTCHAR 1D13
ENCODING 7443
SWIDTH 600 0
DWIDTH 10 0
BBX 10 9 0 0
BITMAP
0C00
FF00
6180
58C0
CCC0
46C0
6180
3FC0
1E00
ENDCHAR
STARTCHAR 1D14
ENCODING 7444
SWIDTH 900 0
DWIDTH 15 0
BBX 14 9 1 0
BITMAP
F8F0
8518
070C
020C
FE0C
820C
C30C
C518
7CF0
ENDCHAR
STARTCHAR 1D15
ENCODING 7445
SWIDTH 540 0
DWIDTH 9 0
BBX 7 9 1 0
BITMAP
C6
C6
46
3C
C6
C2
C2
C6
7C
ENDCHAR
STARTCHAR 1D16
ENCODING 7446
SWIDTH 600 0
DWIDTH 10 0
BBX 9 5 1 4
BITMAP
3E00
6300
C100
C180
C180
ENDCHAR
STARTCHAR 1D17
ENCODING 7447
SWIDTH 600 0
DWIDTH 10 0
BBX 9 4 1 0
BITMAP
C180
C100
6300
3E00
ENDCHAR
STARTCHAR 1D18
ENCODING 7448
SWIDTH 480 0
DWIDTH 8 0
BBX 6 9 1 0
BITMAP
F8
CC
C4
C4
FC
F0
C0
C0
C0
ENDCHAR
STARTCHAR 1D19
ENCODING 7449
SWIDTH 480 0
DWIDTH 8 0
BBX 6 9 1 0
BITMAP
7C
C4
C4
C4
7C
24
64
C4
84
ENDCHAR
STARTCHAR 1D1A
ENCODING 7450
SWIDTH 480 0
DWIDTH 8 0
BBX 6 9 1 0
BITMAP
84
C4
64
24
7C
C4
C4
C4
7C
ENDCHAR
STARTCHAR 1D1B
ENCODING 7451
SWIDTH 420 0
DWIDTH 7 0
BBX 7 9 0 0
BITMAP
FE
18
18
18
18
18
18
18
18
ENDCHAR
STARTCHAR 1D1C
ENCODING 7452
SWIDTH 540 0
DWIDTH 9 0
BBX 8 9 1 0
BITMAP
C3
C3
C3
C3
C3
C3
C3
46
3C
ENDCHAR
STARTCHAR 1D1D
ENCODING 7453
SWIDTH 600 0
DWIDTH 10 0
BBX 9 7 1 1
BITMAP
FF80
0300
0100
0180
0180
0180
FF00
ENDCHAR
STARTCHAR 1D1E
ENCODING 7454
SWIDTH 780 0
DWIDTH 13 0
BBX 13 7 0 1
BITMAP
0FF0
C030
4010
0018
C018
C010
0FF0
ENDCHAR
STARTCHAR 1D1F
ENCODING 7455
SWIDTH 600 0
DWIDTH 10 0
BBX 9 13 1 -2
BITMAP
FF80
FE00
0100
0080
0180
0180
FF00
0300
0180
0080
0180
FF00
FF00
ENDCHAR
STARTCHAR 1D20
ENCODING 7456
SWIDTH 420 0
DWIDTH 7 0
BBX 8 9 0 0
BITMAP
C3
42
42
66
24
24
3C
18
18
ENDCHAR
STARTCHAR 1D21
ENCODING 7457
SWIDTH 660 0
DWIDTH 11 0
BBX 12 9 0 0
BITMAP
C630
4620
4620
4B20
6960
2940
3940
31C0
30C0
ENDCHAR
STARTCHAR 1D22
ENCODING 7458
SWIDTH 420 0
DWIDTH 7 0
BBX 6 9 1 0
BITMAP
FC
0C
08
10
30
60
40
C0
FC
ENDCHAR
STARTCHAR 1D23
ENCODING 7459
SWIDTH 480 0
DWIDTH 8 0
BBX 6 9 1 0
BITMAP
FC
0C
18
60
7C
04
04
0C
F8
ENDCHAR
STARTCHAR 1D24
ENCODING 7460
SWIDTH 420 0
DWIDTH 7 0
BBX 7 13 0 0
BITMAP
38
6C
06
06
04
0C
10
30
60
C0
C0
C2
7C
ENDCHAR
STARTCHAR 1D25
ENCODING 7461
SWIDTH 480 0
DWIDTH 8 0
BBX 8 9 0 0
BITMAP
3C
3E
7E
7E
3E
3C
18
3C
E7
ENDCHAR
STARTCHAR 1D26
ENCODING 7462
SWIDTH 420 0
DWIDTH 7 0
BBX 6 9 1 0
BITMAP
FC
C0
C0
C0
C0
C0
C0
C0
C0
ENDCHAR
STARTCHAR 1D27
ENCODING 7463
SWIDTH 480 0
DWIDTH 8 0
BBX 8 9 0 0
BITMAP
18
18
1C
34
24
66
62
43
C3
ENDCHAR
STARTCHAR 1D28
ENCODING 7464
SWIDTH 540 0
DWIDTH 9 0
BBX 7 9 1 0
BITMAP
FE
C2
C2
C2
C2
C2
C2
C2
C2
ENDCHAR
STARTCHAR 1D29
ENCODING 7465
SWIDTH 480 0
DWIDTH 8 0
BBX 6 9 1 0
BITMAP
F8
CC
C4
C4
FC
F0
C0
C0
C0
ENDCHAR
STARTCHAR 1D2A
ENCODING 7466
SWIDTH 600 0
DWIDTH 10 0
BBX 9 9 1 0
BITMAP
8980
8980
8980
8980
C980
7F00
0800
0800
0800
ENDCHAR
STARTCHAR 1D2B
ENCODING 7467
SWIDTH 540 0
DWIDTH 9 0
BBX 8 9 0 0
BITMAP
1F
11
11
11
31
31
21
21
E1
ENDCHAR
STARTCHAR 1D2C
ENCODING 7468
SWIDTH 360 0
DWIDTH 6 0
BBX 7 7 0 5
BITMAP
10
28
28
28
7C
44
82
ENDCHAR
STARTCHAR 1D2D
ENCODING 7469
SWIDTH 540 0
DWIDTH 9 0
BBX 9 7 0 5
BITMAP
1F80
1400
2400
2780
7C00
4400
8780
ENDCHAR
STARTCHAR 1D2E
ENCODING 7470
SWIDTH 420 0
DWIDTH 7 0
BBX 5 7 1 5
BITMAP
F8
88
88
F0
88
88
F8
ENDCHAR
STARTCHAR 1D2F
ENCODING 7471
SWIDTH 420 0
DWIDTH 7 0
BBX 7 7 0 5
BITMAP
7C
44
44
FE
44
44
7C
ENDCHAR
STARTCHAR 1D30
ENCODING 7472
SWIDTH 420 0
DWIDTH 7 0
BBX 6 7 1 5
BITMAP
F8
8C
84
84
84
84
F8
ENDCHAR
STARTCHAR 1D31
ENCODING 7473
SWIDTH 360 0
DWIDTH 6 0
BBX 4 7 1 5
BITMAP
F0
80
80
F0
80
80
F0
ENDCHAR
STARTCHAR 1D32
ENCODING 7474
SWIDTH 360 0
DWIDTH 6 0
BBX 4 7 1 5
BITMAP
F0
10
10
F0
10
10
F0
ENDCHAR
STARTCHAR 1D33
ENCODING 7475
SWIDTH 420 0
DWIDTH 7 0
BBX 6 7 1 5
BITMAP
7C
C0
80
9C
84
84
7C
ENDCHAR
STARTCHAR 1D34
ENCODING 7476
SWIDTH 480 0
DWIDTH 8 0
BBX 6 7 1 5
BITMAP
84
84
84
FC
84
84
84
ENDCHAR
STARTCHAR 1D35
ENCODING 7477
SWIDTH 180 0
DWIDTH 3 0
BBX 3 7 0 5
BITMAP
E0
40
40
40
40
40
60
ENDCHAR
STARTCHAR 1D36
ENCODING 7478
SWIDTH 120 0
DWIDTH 2 0
BBX 3 9 -1 3
BITMAP
20
20
20
20
20
20
20
20
E0
ENDCHAR
STARTCHAR 1D37
ENCODING 7479
SWIDTH 360 0
DWIDTH 6 0
BBX 5 7 1 5
BITMAP
88
90
A0
E0
B0
90
88
ENDCHAR
STARTCHAR 1D38
ENCODING 7480
SWIDTH 300 0
DWIDTH 5 0
BBX 4 7 1 5
BITMAP
80
80
80
80
80
80
F0
ENDCHAR
STARTCHAR 1D39
ENCODING 7481
SWIDTH 540 0
DWIDTH 9 0
BBX 8 7 1 5
BITMAP
C3
C3
C5
A5
A9
99
99
ENDCHAR
STARTCHAR 1D3A
ENCODING 7482
SWIDTH 480 0
DWIDTH 8 0
BBX 6 7 1 5
BITMAP
84
C4
A4
B4
94
8C
84
ENDCHAR
STARTCHAR 1D3B
ENCODING 7483
SWIDTH 480 0
DWIDTH 8 0
BBX 6 7 1 5
BITMAP
84
8C
94
94
A4
C4
C4
ENDCHAR
STARTCHAR 1D3C
ENCODING 7484
SWIDTH 480 0
DWIDTH 8 0
BBX 7 7 1 5
BITMAP
78
84
82
82
82
84
7C
ENDCHAR
STARTCHAR 1D3D
ENCODING 7485
SWIDTH 420 0
DWIDTH 7 0
BBX 6 7 1 5
BITMAP
88
88
58
A8
84
84
F8
ENDCHAR
STARTCHAR 1D3E
ENCODING 7486
SWIDTH 360 0
DWIDTH 6 0
BBX 5 7 1 5
BITMAP
F0
88
88
98
E0
80
80
ENDCHAR
STARTCHAR 1D3F
ENCODING 7487
SWIDTH 360 0
DWIDTH 6 0
BBX 5 7 1 5
BITMAP
F0
88
88
F0
90
90
88
ENDCHAR
STARTCHAR 1D40
ENCODING 7488
SWIDTH 360 0
DWIDTH 6 0
BBX 6 7 0 5
BITMAP
FC
10
10
10
10
10
10
ENDCHAR
STARTCHAR 1D41
ENCODING 7489
SWIDTH 420 0
DWIDTH 7 0
BBX 6 7 1 5
BITMAP
84
84
84
84
84
84
78
ENDCHAR
STARTCHAR 1D42
ENCODING 7490
SWIDTH 600 0
DWIDTH 10 0
BBX 10 7 0 5
BITMAP
8C40
4C40
4C80
5280
5280
3300
2100
ENDCHAR
STARTCHAR 1D43
ENCODING 7491
SWIDTH 360 0
DWIDTH 6 0
BBX 4 5 1 5
BITMAP
F0
10
F0
90
F0
ENDCHAR
STARTCHAR 1D44
ENCODING 7492
SWIDTH 360 0
DWIDTH 6 0
BBX 5 5 1 5
BITMAP
F0
88
F0
80
F0
ENDCHAR
STARTCHAR 1D45
ENCODING 7493
SWIDTH 360 0
DWIDTH 6 0
BBX 5 5 1 5
BITMAP
F8
88
88
88
F8
ENDCHAR
STARTCHAR 1D46
ENCODING 7494
SWIDTH 540 0
DWIDTH 9 0
BBX 8 5 1 5
BITMAP
FF
11
FE
90
FE
ENDCHAR
STARTCHAR 1D47
ENCODING 7495
SWIDTH 360 0
DWIDTH 6 0
BBX 5 7 1 5
BITMAP
80
80
F0
88
88
88
F8
ENDCHAR
STARTCHAR 1D48
ENCODING 7496
SWIDTH 360 0
DWIDTH 6 0
BBX 5 7 1 5
BITMAP
08
08
F8
88
88
88
F8
ENDCHAR
STARTCHAR 1D49
ENCODING 7497
SWIDTH 360 0
DWIDTH 6 0
BBX 5 5 1 5
BITMAP
F0
90
F8
80
F0
ENDCHAR
STARTCHAR 1D4A
ENCODING 7498
SWIDTH 360 0
DWIDTH 6 0
BBX 5 5 1 5
BITMAP
F0
10
F8
90
F0
ENDCHAR
STARTCHAR 1D4B
ENCODING 7499
SWIDTH 300 0
DWIDTH 5 0
BBX 5 5 0 5
BITMAP
78
40
30
C0
78
ENDCHAR
STARTCHAR 1D4C
ENCODING 7500
SWIDTH 300 0
DWIDTH 5 0
BBX 5 5 0 5
BITMAP
F8
08
70
08
70
ENDCHAR
STARTCHAR 1D4D
ENCODING 7501
SWIDTH 360 0
DWIDTH 6 0
BBX 5 8 1 2
BITMAP
F8
88
88
88
D8
28
18
60
ENDCHAR
STARTCHAR 1D4E
ENCODING 7502
SWIDTH 120 0
DWIDTH 2 0
BBX 1 7 1 3
BITMAP
80
80
80
80
80
00
80
ENDCHAR
STARTCHAR 1D4F
ENCODING 7503
SWIDTH 300 0
DWIDTH 5 0
BBX 4 7 1 5
BITMAP
80
80
90
A0
C0
A0
90
ENDCHAR
STARTCHAR 1D50
ENCODING 7504
SWIDTH 600 0
DWIDTH 10 0
BBX 8 5 1 5
BITMAP
F7
89
89
89
89
ENDCHAR
STARTCHAR 1D51
ENCODING 7505
SWIDTH 360 0
DWIDTH 6 0
BBX 5 8 1 2
BITMAP
F8
88
88
88
88
08
08
30
ENDCHAR
STARTCHAR 1D52
ENCODING 7506
SWIDTH 360 0
DWIDTH 6 0
BBX 5 5 1 5
BITMAP
F0
88
88
88
F0
ENDCHAR
STARTCHAR 1D53
ENCODING 7507
SWIDTH 300 0
DWIDTH 5 0
BBX 5 5 0 5
BITMAP
70
10
08
10
F0
ENDCHAR
STARTCHAR 1D54
ENCODING 7508
SWIDTH 360 0
DWIDTH 6 0
BBX 5 3 1 7
BITMAP
F0
88
88
ENDCHAR
STARTCHAR 1D55
ENCODING 7509
SWIDTH 360 0
DWIDTH 6 0
BBX 5 2 1 5
BITMAP
88
F8
ENDCHAR
STARTCHAR 1D56
ENCODING 7510
SWIDTH 360 0
DWIDTH 6 0
BBX 5 8 1 2
BITMAP
F0
88
88
88
D0
A0
80
80
ENDCHAR
STARTCHAR 1D57
ENCODING 7511
SWIDTH 180 0
DWIDTH 3 0
BBX 4 6 0 5
BITMAP
40
F0
40
40
40
60
ENDCHAR
STARTCHAR 1D58
ENCODING 7512
SWIDTH 360 0
DWIDTH 6 0
BBX 5 5 1 5
BITMAP
88
88
88
88
F8
ENDCHAR
STARTCHAR 1D59
ENCODING 7513
SWIDTH 360 0
DWIDTH 6 0
BBX 6 5 0 5
BITMAP
FC
04
04
04
F8
ENDCHAR
STARTCHAR 1D5A
ENCODING 7514
SWIDTH 600 0
DWIDTH 10 0
BBX 8 5 1 5
BITMAP
89
89
89
99
FF
ENDCHAR
STARTCHAR 1D5B
ENCODING 7515
SWIDTH 300 0
DWIDTH 5 0
BBX 5 5 0 5
BITMAP
88
48
50
50
30
ENDCHAR
STARTCHAR 1D5C
ENCODING 7516
SWIDTH 300 0
DWIDTH 5 0
BBX 4 5 1 5
BITMAP
E0
F0
E0
60
B0
ENDCHAR
STARTCHAR 1D5D
ENCODING 7517
SWIDTH 360 0
DWIDTH 6 0
BBX 5 10 1 2
BITMAP
F0
88
90
B0
88
88
D8
A0
80
80
ENDCHAR
STARTCHAR 1D5E
ENCODING 7518
SWIDTH 300 0
DWIDTH 5 0
BBX 5 7 0 3
BITMAP
88
48
48
50
30
20
20
ENDCHAR
STARTCHAR 1D5F
ENCODING 7519
SWIDTH 360 0
DWIDTH 6 0
BBX 6 7 0 5
BITMAP
38
60
30
48
84
44
78
ENDCHAR
STARTCHAR 1D60
ENCODING 7520
SWIDTH 420 0
DWIDTH 7 0
BBX 6 10 1 2
BITMAP
20
20
F8
A4
A4
A4
E8
30
20
20
ENDCHAR
STARTCHAR 1D61
ENCODING 7521
SWIDTH 300 0
DWIDTH 5 0
BBX 6 8 0 2
BITMAP
C4
28
28
10
30
28
48
84
ENDCHAR
STARTCHAR 1D62
ENCODING 7522
SWIDTH 120 0
DWIDTH 2 0
BBX 1 8 1 -2
BITMAP
80
00
80
80
80
80
80
80
ENDCHAR
STARTCHAR 1D63
ENCODING 7523
SWIDTH 240 0
DWIDTH 4 0
BBX 3 6 1 -2
BITMAP
A0
C0
80
80
80
80
ENDCHAR
STARTCHAR 1D64
ENCODING 7524
SWIDTH 360 0
DWIDTH 6 0
BBX 5 6 1 -2
BITMAP
88
88
88
88
98
68
ENDCHAR
STARTCHAR 1D65
ENCODING 7525
SWIDTH 300 0
DWIDTH 5 0
BBX 5 6 0 -2
BITMAP
88
48
48
50
30
20
ENDCHAR
STARTCHAR 1D66
ENCODING 7526
SWIDTH 360 0
DWIDTH 6 0
BBX 5 10 1 -4
BITMAP
70
88
88
B0
98
88
88
F0
80
80
ENDCHAR
STARTCHAR 1D67
ENCODING 7527
SWIDTH 300 0
DWIDTH 5 0
BBX 5 8 0 -4
BITMAP
88
88
48
48
30
20
20
20
ENDCHAR
STARTCHAR 1D68
ENCODING 7528
SWIDTH 360 0
DWIDTH 6 0
BBX 5 8 1 -4
BITMAP
70
88
88
88
98
E0
80
80
ENDCHAR
STARTCHAR 1D69
ENCODING 7529
SWIDTH 420 0
DWIDTH 7 0
BBX 6 10 1 -4
BITMAP
20
20
78
A4
A4
A4
A4
78
20
20
ENDCHAR
STARTCHAR 1D6A
ENCODING 7530
SWIDTH 300 0
DWIDTH 5 0
BBX 6 8 0 -4
BITMAP
C4
44
28
30
10
30
48
44
ENDCHAR
STARTCHAR 1D6B
ENCODING 7531
SWIDTH 900 0
DWIDTH 15 0
BBX 14 9 1 0
BITMAP
C3F0
C398
C308
C30C
C3FC
C300
C300
4780
3CF8
ENDCHAR
STARTCHAR 1D6C
ENCODING 7532
SWIDTH 600 0
DWIDTH 10 0
BBX 9 13 0 0
BITMAP
6000
E800
F800
6000
6F00
7180
6180
6080
6080
6080
6080
7180
7F00
ENDCHAR
STARTCHAR 1D6D
ENCODING 7533
SWIDTH 600 0
DWIDTH 10 0
BBX 10 13 1 0
BITMAP
0300
0740
0F80
0300
3F00
6700
C300
C300
8300
8300
C300
4700
7D00
ENDCHAR
STARTCHAR 1D6E
ENCODING 7534
SWIDTH 300 0
DWIDTH 5 0
BBX 6 13 0 0
BITMAP
1C
34
20
20
FC
20
20
60
F8
B0
20
20
20
ENDCHAR
STARTCHAR 1D6F
ENCODING 7535
SWIDTH 900 0
DWIDTH 15 0
BBX 16 9 0 0
BITMAP
6F78
73CC
6184
6184
FFF7
E1BC
6184
6184
6184
ENDCHAR
STARTCHAR 1D70
ENCODING 7536
SWIDTH 600 0
DWIDTH 10 0
BBX 10 9 0 0
BITMAP
6F00
7180
6180
6180
FFC0
E380
6180
6180
6180
ENDCHAR
STARTCHAR 1D71
ENCODING 7537
SWIDTH 600 0
DWIDTH 10 0
BBX 10 13 -1 -4
BITMAP
3780
38C0
30C0
3040
3040
3040
30C0
38C0
3780
3000
7400
B800
3000
ENDCHAR
STARTCHAR 1D72
ENCODING 7538
SWIDTH 360 0
DWIDTH 6 0
BBX 8 9 -1 0
BITMAP
37
38
30
30
74
B8
30
30
30
ENDCHAR
STARTCHAR 1D73
ENCODING 7539
SWIDTH 300 0
DWIDTH 5 0
BBX 6 9 -1 0
BITMAP
1C
30
30
30
74
B8
30
30
30
ENDCHAR
STARTCHAR 1D74
ENCODING 7540
SWIDTH 420 0
DWIDTH 7 0
BBX 8 9 0 0
BITMAP
3E
62
40
71
FF
86
02
06
7C
ENDCHAR
STARTCHAR 1D75
ENCODING 7541
SWIDTH 360 0
DWIDTH 6 0
BBX 6 11 0 0
BITMAP
20
20
FC
20
20
68
F8
B0
20
20
3C
ENDCHAR
STARTCHAR 1D76
ENCODING 7542
SWIDTH 420 0
DWIDTH 7 0
BBX 6 9 1 0
BITMAP
FC
0C
08
54
FC
68
40
C0
FC
ENDCHAR
STARTCHAR 1D77
ENCODING 7543
SWIDTH 600 0
DWIDTH 10 0
BBX 8 13 1 0
BITMAP
3E
63
40
C0
DE
E3
C3
C1
C1
C1
C3
E3
DE
ENDCHAR
STARTCHAR 1D78
ENCODING 7544
SWIDTH 360 0
DWIDTH 6 0
BBX 5 5 1 5
BITMAP
88
88
F8
88
88
ENDCHAR
STARTCHAR 1D79
ENCODING 7545
SWIDTH 540 0
DWIDTH 9 0
BBX 8 13 1 -4
BITMAP
FE
06
18
30
18
3C
C6
83
83
83
C3
C6
3C
ENDCHAR
STARTCHAR 1D7A
ENCODING 7546
SWIDTH 960 0
DWIDTH 16 0
BBX 15 14 0 -1
BITMAP
0198
0190
21A0
21C0
FDFC
21C6
2186
2382
2582
2D82
2982
3182
3D82
4000
ENDCHAR
STARTCHAR 1D7B
ENCODING 7547
SWIDTH 300 0
DWIDTH 5 0
BBX 4 9 1 0
BITMAP
F0
40
40
40
F0
40
40
40
F0
ENDCHAR
STARTCHAR 1D7C
ENCODING 7548
SWIDTH 300 0
DWIDTH 5 0
BBX 5 9 0 0
BITMAP
60
60
60
60
F8
60
60
60
38
ENDCHAR
STARTCHAR 1D7D
ENCODING 7549
SWIDTH 600 0
DWIDTH 10 0
BBX 10 13 0 -4
BITMAP
6F00
7180
6180
6080
FFC0
6080
6180
7180
6F00
6000
6000
6000
6000
ENDCHAR
STARTCHAR 1D7E
ENCODING 7550
SWIDTH 540 0
DWIDTH 9 0
BBX 10 9 0 0
BITMAP
6180
6180
6180
6180
FFC0
6180
6180
2300
1E00
ENDCHAR
STARTCHAR 1D7F
ENCODING 7551
SWIDTH 600 0
DWIDTH 10 0
BBX 10 9 0 0
BITMAP
F3C0
3300
2180
6180
FFC0
4080
6180
2180
1F00
ENDCHAR
STARTCHAR 1D80
ENCODING 7552
SWIDTH 600 0
DWIDTH 10 0
BBX 8 16 1 -3
BITMAP
C0
C0
C0
C0
DE
E3
C3
C1
C1
C1
C1
E3
FE
02
02
0E
ENDCHAR
STARTCHAR 1D81
ENCODING 7553
SWIDTH 600 0
DWIDTH 10 0
BBX 9 16 1 -3
BITMAP
0300
0300
0300
0300
3F00
6700
C300
C300
8300
8300
C300
4700
7D80
0180
0180
0300
ENDCHAR
STARTCHAR 1D82
ENCODING 7554
SWIDTH 300 0
DWIDTH 5 0
BBX 6 16 0 -3
BITMAP
1C
34
20
20
FC
20
20
20
20
20
20
20
30
10
10
70
ENDCHAR
STARTCHAR 1D83
ENCODING 7555
SWIDTH 780 0
DWIDTH 13 0
BBX 12 13 1 -4
BITMAP
3D00
6700
C300
C300
8300
8300
C300
43F0
7F30
0330
0330
4660
7C00
ENDCHAR
STARTCHAR 1D84
ENCODING 7556
SWIDTH 480 0
DWIDTH 8 0
BBX 8 16 1 -3
BITMAP
C0
C0
C0
C0
C6
CC
D8
D0
F0
D8
CC
C6
C3
03
03
07
ENDCHAR
STARTCHAR 1D85
ENCODING 7557
SWIDTH 240 0
DWIDTH 4 0
BBX 3 16 1 -3
BITMAP
C0
C0
C0
C0
C0
C0
C0
C0
C0
C0
C0
C0
E0
60
60
C0
ENDCHAR
STARTCHAR 1D86
ENCODING 7558
SWIDTH 900 0
DWIDTH 15 0
BBX 14 12 1 -3
BITMAP
DEF0
E798
C308
C308
C308
C308
C308
C308
C30C
0004
0004
001C
ENDCHAR
STARTCHAR 1D87
ENCODING 7559
SWIDTH 600 0
DWIDTH 10 0
BBX 9 12 1 -3
BITMAP
DE00
E300
C300
C300
C300
C300
C300
C300
C380
0180
0180
0300
ENDCHAR
STARTCHAR 1D88
ENCODING 7560
SWIDTH 600 0
DWIDTH 10 0
BBX 8 13 1 -4
BITMAP
DE
E3
C3
C1
C1
C1
C3
E3
DE
C2
C2
CE
C0
ENDCHAR
STARTCHAR 1D89
ENCODING 7561
SWIDTH 360 0
DWIDTH 6 0
BBX 6 12 1 -3
BITMAP
DC
E0
C0
C0
C0
C0
C0
C0
E0
60
60
C0
ENDCHAR
STARTCHAR 1D8A
ENCODING 7562
SWIDTH 420 0
DWIDTH 7 0
BBX 6 12 1 -3
BITMAP
7C
C4
80
E0
38
0C
04
0C
F8
08
08
38
ENDCHAR
STARTCHAR 1D8B
ENCODING 7563
SWIDTH 420 0
DWIDTH 7 0
BBX 7 17 0 -4
BITMAP
18
38
60
60
60
60
60
60
60
60
60
7E
66
66
66
6C
C0
ENDCHAR
STARTCHAR 1D8C
ENCODING 7564
SWIDTH 480 0
DWIDTH 8 0
BBX 8 12 0 -3
BITMAP
C1
43
43
62
26
34
34
1C
1F
01
03
07
ENDCHAR
STARTCHAR 1D8D
ENCODING 7565
SWIDTH 480 0
DWIDTH 8 0
BBX 7 12 1 -3
BITMAP
86
C4
6C
38
30
38
6C
C4
82
02
02
0E
ENDCHAR
STARTCHAR 1D8E
ENCODING 7566
SWIDTH 420 0
DWIDTH 7 0
BBX 6 12 1 -3
BITMAP
FC
0C
08
10
30
60
40
C0
FC
04
04
1C
ENDCHAR
STARTCHAR 1D8F
ENCODING 7567
SWIDTH 540 0
DWIDTH 9 0
BBX 9 12 1 -3
BITMAP
7C00
4600
0200
0200
7E00
C200
8600
C600
7B00
0300
0300
0180
ENDCHAR
STARTCHAR 1D90
ENCODING 7568
SWIDTH 600 0
DWIDTH 10 0
BBX 11 12 1 -3
BITMAP
3D00
6700
C300
C300
8300
8300
C300
4700
7D80
0080
0080
00E0
ENDCHAR
STARTCHAR 1D91
ENCODING 7569
SWIDTH 600 0
DWIDTH 10 0
BBX 9 17 1 -4
BITMAP
0180
0180
0300
0300
3F00
6700
C300
C300
8300
8300
C300
4700
7F00
0300
0300
0100
0180
ENDCHAR
STARTCHAR 1D92
ENCODING 7570
SWIDTH 540 0
DWIDTH 9 0
BBX 9 12 1 -3
BITMAP
3C00
4600
C200
8300
FF00
8000
C000
6000
3E00
0200
0200
0380
ENDCHAR
STARTCHAR 1D93
ENCODING 7571
SWIDTH 480 0
DWIDTH 8 0
BBX 8 12 1 -3
BITMAP
7C
C4
80
C0
78
C0
80
C0
7C
04
06
07
ENDCHAR
STARTCHAR 1D94
ENCODING 7572
SWIDTH 480 0
DWIDTH 8 0
BBX 6 12 1 -3
BITMAP
F8
8C
04
0C
78
04
04
0C
F8
80
80
E0
ENDCHAR
STARTCHAR 1D95
ENCODING 7573
SWIDTH 600 0
DWIDTH 10 0
BBX 10 12 1 -3
BITMAP
FC00
8600
0200
0200
FF80
8380
C380
C780
7D80
0180
0180
00C0
ENDCHAR
STARTCHAR 1D96
ENCODING 7574
SWIDTH 240 0
DWIDTH 4 0
BBX 4 15 1 -3
BITMAP
C0
40
00
C0
C0
C0
C0
C0
C0
C0
C0
E0
60
60
30
ENDCHAR
STARTCHAR 1D97
ENCODING 7575
SWIDTH 480 0
DWIDTH 8 0
BBX 6 12 1 -3
BITMAP
F0
18
0C
0C
04
0C
0C
18
F0
80
80
E0
ENDCHAR
STARTCHAR 1D98
ENCODING 7576
SWIDTH 240 0
DWIDTH 4 0
BBX 5 16 0 -3
BITMAP
18
38
60
60
60
60
60
60
60
60
60
60
C0
80
80
C0
ENDCHAR
STARTCHAR 1D99
ENCODING 7577
SWIDTH 600 0
DWIDTH 10 0
BBX 10 12 1 -3
BITMAP
C300
C300
C300
C300
C300
C300
C300
4700
7D80
0180
0180
00C0
ENDCHAR
STARTCHAR 1D9A
ENCODING 7578
SWIDTH 480 0
DWIDTH 8 0
BBX 6 12 1 -3
BITMAP
FC
0C
10
20
7C
04
04
0C
F8
80
80
E0
ENDCHAR
STARTCHAR 1D9B
ENCODING 7579
SWIDTH 360 0
DWIDTH 6 0
BBX 5 5 1 5
BITMAP
F0
88
88
88
F0
ENDCHAR
STARTCHAR 1D9C
ENCODING 7580
SWIDTH 300 0
DWIDTH 5 0
BBX 4 5 1 5
BITMAP
F0
80
80
80
F0
ENDCHAR
STARTCHAR 1D9D
ENCODING 7581
SWIDTH 300 0
DWIDTH 5 0
BBX 4 6 1 4
BITMAP
F0
80
80
F0
D0
20
ENDCHAR
STARTCHAR 1D9E
ENCODING 7582
SWIDTH 360 0
DWIDTH 6 0
BBX 5 7 1 5
BITMAP
70
50
08
D8
88
88
F0
ENDCHAR
STARTCHAR 1D9F
ENCODING 7583
SWIDTH 300 0
DWIDTH 5 0
BBX 5 5 0 5
BITMAP
70
08
70
08
F8
ENDCHAR
STARTCHAR 1DA0
ENCODING 7584
SWIDTH 180 0
DWIDTH 3 0
BBX 4 7 0 5
BITMAP
70
40
F0
40
40
40
40
ENDCHAR
STARTCHAR 1DA1
ENCODING 7585
SWIDTH 120 0
DWIDTH 2 0
BBX 4 8 -1 2
BITMAP
20
20
70
20
20
20
20
C0
ENDCHAR
STARTCHAR 1DA2
ENCODING 7586
SWIDTH 360 0
DWIDTH 6 0
BBX 5 8 1 2
BITMAP
F8
88
88
88
D8
28
18
60
ENDCHAR
STARTCHAR 1DA3
ENCODING 7587
SWIDTH 360 0
DWIDTH 6 0
BBX 5 7 1 3
BITMAP
88
88
88
88
D8
28
08
ENDCHAR
STARTCHAR 1DA4
ENCODING 7588
SWIDTH 120 0
DWIDTH 2 0
BBX 3 7 0 5
BITMAP
40
00
40
40
E0
40
40
ENDCHAR
STARTCHAR 1DA5
ENCODING 7589
SWIDTH 180 0
DWIDTH 3 0
BBX 2 5 1 5
BITMAP
80
80
80
80
C0
ENDCHAR
STARTCHAR 1DA6
ENCODING 7590
SWIDTH 180 0
DWIDTH 3 0
BBX 2 5 1 5
BITMAP
C0
80
80
80
C0
ENDCHAR
STARTCHAR 1DA7
ENCODING 7591
SWIDTH 180 0
DWIDTH 3 0
BBX 3 5 0 5
BITMAP
60
40
E0
40
60
ENDCHAR
STARTCHAR 1DA8
ENCODING 7592
SWIDTH 120 0
DWIDTH 2 0
BBX 4 10 -1 2
BITMAP
20
00
20
20
20
20
20
F0
A0
40
ENDCHAR
STARTCHAR 1DA9
ENCODING 7593
SWIDTH 120 0
DWIDTH 2 0
BBX 2 10 1 2
BITMAP
80
80
80
80
80
80
80
80
80
40
ENDCHAR
STARTCHAR 1DAA
ENCODING 7594
SWIDTH 120 0
DWIDTH 2 0
BBX 2 9 0 3
BITMAP
40
40
40
40
40
40
40
40
C0
ENDCHAR
STARTCHAR 1DAB
ENCODING 7595
SWIDTH 240 0
DWIDTH 4 0
BBX 4 5 1 5
BITMAP
80
80
80
80
F0
ENDCHAR
STARTCHAR 1DAC
ENCODING 7596
SWIDTH 600 0
DWIDTH 10 0
BBX 8 8 1 2
BITMAP
F7
89
89
89
89
01
01
03
ENDCHAR
STARTCHAR 1DAD
ENCODING 7597
SWIDTH 600 0
DWIDTH 10 0
BBX 8 8 1 2
BITMAP
89
89
89
99
9B
65
01
01
ENDCHAR
STARTCHAR 1DAE
ENCODING 7598
SWIDTH 360 0
DWIDTH 6 0
BBX 6 8 0 2
BITMAP
7C
44
44
44
44
40
40
80
ENDCHAR
STARTCHAR 1DAF
ENCODING 7599
SWIDTH 360 0
DWIDTH 6 0
BBX 6 8 1 2
BITMAP
F8
88
88
88
88
08
08
04
ENDCHAR
STARTCHAR 1DB0
ENCODING 7600
SWIDTH 360 0
DWIDTH 6 0
BBX 5 5 1 5
BITMAP
C8
C8
A8
98
98
ENDCHAR
STARTCHAR 1DB1
ENCODING 7601
SWIDTH 360 0
DWIDTH 6 0
BBX 5 5 1 5
BITMAP
F0
88
F8
88
F0
ENDCHAR
STARTCHAR 1DB2
ENCODING 7602
SWIDTH 420 0
DWIDTH 7 0
BBX 6 10 1 2
BITMAP
20
20
F8
A4
A4
A4
E8
30
20
20
ENDCHAR
STARTCHAR 1DB3
ENCODING 7603
SWIDTH 300 0
DWIDTH 5 0
BBX 4 7 1 3
BITMAP
E0
80
60
10
B0
C0
C0
ENDCHAR
STARTCHAR 1DB4
ENCODING 7604
SWIDTH 120 0
DWIDTH 2 0
BBX 3 10 0 2
BITMAP
60
40
40
40
40
40
40
40
40
80
ENDCHAR
STARTCHAR 1DB5
ENCODING 7605
SWIDTH 180 0
DWIDTH 3 0
BBX 4 9 0 2
BITMAP
40
F0
40
40
40
40
30
10
20
ENDCHAR
STARTCHAR 1DB6
ENCODING 7606
SWIDTH 360 0
DWIDTH 6 0
BBX 7 5 0 5
BITMAP
44
44
FE
44
7C
ENDCHAR
STARTCHAR 1DB7
ENCODING 7607
SWIDTH 360 0
DWIDTH 6 0
BBX 6 5 0 5
BITMAP
EC
44
44
44
78
ENDCHAR
STARTCHAR 1DB8
ENCODING 7608
SWIDTH 360 0
DWIDTH 6 0
BBX 5 5 1 5
BITMAP
88
88
88
88
F0
ENDCHAR
STARTCHAR 1DB9
ENCODING 7609
SWIDTH 360 0
DWIDTH 6 0
BBX 5 5 1 5
BITMAP
B8
88
88
88
F0
ENDCHAR
STARTCHAR 1DBA
ENCODING 7610
SWIDTH 300 0
DWIDTH 5 0
BBX 5 5 0 5
BITMAP
30
50
50
48
88
ENDCHAR
STARTCHAR 1DBB
ENCODING 7611
SWIDTH 300 0
DWIDTH 5 0
BBX 4 5 1 5
BITMAP
F0
20
40
80
E0
ENDCHAR
STARTCHAR 1DBC
ENCODING 7612
SWIDTH 300 0
DWIDTH 5 0
BBX 5 8 1 2
BITMAP
F0
20
40
80
80
70
10
08
ENDCHAR
STARTCHAR 1DBD
ENCODING 7613
SWIDTH 300 0
DWIDTH 5 0
BBX 5 6 1 4
BITMAP
F0
20
40
B8
D8
60
ENDCHAR
STARTCHAR 1DBE
ENCODING 7614
SWIDTH 300 0
DWIDTH 5 0
BBX 5 8 0 2
BITMAP
F8
10
20
70
08
08
18
60
ENDCHAR
STARTCHAR 1DBF
ENCODING 7615
SWIDTH 360 0
DWIDTH 6 0
BBX 5 7 1 5
BITMAP
F0
88
88
F8
88
88
F0
ENDCHAR
STARTCHAR 1DC0
ENCODING 7616
SWIDTH 0 0
DWIDTH 0 0
BBX 6 2 -3 11
BITMAP
2C
D0
ENDCHAR
STARTCHAR 1DC1
ENCODING 7617
SWIDTH 0 0
DWIDTH 0 0
BBX 6 2 -3 11
BITMAP
34
A0
ENDCHAR
STARTCHAR 1DC2
ENCODING 7618
SWIDTH 0 0
DWIDTH 0 0
BBX 1 3 0 -4
BITMAP
80
80
80
ENDCHAR
ENDFONT
